<svg xmlns="http://www.w3.org/2000/svg" viewBox="-615 -378 1230 756" width="1230" height="756" style="background-color: rgb(255, 255, 255);"><rect id="background" height="756" width="1230" y="-378" x="-615" stroke-width="0" stroke="#000000" fill="#ffffff"/><text x="389.43230440644413" y="278.2535332944548" z="-0.9942624917188163" font-family="Verdana" font-size="15" fill="rgb(0,0,0)">Treatment</text><text x="-385.5157045230796" y="-287.9904667055452" z="-0.9942624917188163" font-family="Verdana" font-size="15" fill="rgb(0,0,0)">Axis 1 (49.77 %)</text><path d="M389.43230440644413,278.2535332944548L-385.5157045230796,278.2535332944548M-385.5157045230796,-287.9904667055452L-385.5157045230796,278.2535332944548" style="fill:none;stroke:rgb(0,0,0);stroke-opacity:1;stroke-width:3;stroke-linecap:round"/><path d="M-361.1572357364825,144.63729732536532L-366.4404290865196,145.6751294683462L-364.4557218905403,145.65907658456z" style="fill:rgb(0,0,34);fill-opacity:1"/><path d="M-363.10066247294463,144.67084970903232L-359.7742844506694,145.81221481753278L-357.82309326805006,145.48843885170643z" style="fill:rgb(0,0,36);fill-opacity:1"/><path d="M-358.6992092803258,145.24418944754564L-360.7313323802971,145.34345565528065L-355.12202948991484,147.9293946586301z" style="fill:rgb(0,0,79);fill-opacity:1"/><path d="M-369.1480293169721,159.24929230346103L-365.4830734126173,162.103724555625L-363.56775302507947,161.5727310757582z" style="fill:rgb(0,0,57);fill-opacity:1"/><path d="M-364.4534233775379,161.45149228981055L-366.443830324442,161.51804637454865L-361.15613301156253,162.5017456536699z" style="fill:rgb(0,0,13);fill-opacity:1"/><path d="M-357.8084044909055,161.50843332387822L-359.802615058115,161.43502339865353L-363.0870206426436,162.52782759549734z" style="fill:rgb(0,0,14);fill-opacity:1"/><path d="M-310.03367275047765,184.15910670226305L-315.31686610051474,185.19693884524392L-313.33215890453545,185.18088596145773z" style="fill:rgb(0,0,34);fill-opacity:1"/><path d="M-311.9770994869398,184.19265908593005L-308.6507214646645,185.3340241944305L-306.69953028204515,185.01024822860415z" style="fill:rgb(0,0,36);fill-opacity:1"/><path d="M-307.5756462943209,184.76599882444336L-309.6077693942922,184.86526503217837L-303.9984665039099,187.45120403552784z" style="fill:rgb(0,0,79);fill-opacity:1"/><path d="M-318.02446633096724,198.7711016803588L-314.3595104266125,201.6255339325227L-312.44419003907456,201.09454045265593z" style="fill:rgb(0,0,57);fill-opacity:1"/><path d="M-313.32986039153303,200.97330166670827L-315.32026733843713,201.03985575144637L-310.0325700255577,202.0235550305676z" style="fill:rgb(0,0,13);fill-opacity:1"/><path d="M-306.6848415049006,201.03024270077597L-308.6790520721101,200.95683277555128L-311.96345765663875,202.04963697239498z" style="fill:rgb(0,0,14);fill-opacity:1"/><path d="M-224.8277344404695,117.43852924532649L-230.11092779050665,118.4763613883074L-228.12622059452738,118.46030850452125z" style="fill:rgb(0,0,34);fill-opacity:1"/><path d="M-226.77116117693166,117.47208162899351L-223.44478315465642,118.613446737494L-221.49359197203702,118.28967077166763z" style="fill:rgb(0,0,36);fill-opacity:1"/><path d="M-222.36970798431278,118.04542136750686L-224.4018310842841,118.14468757524187L-218.79252819390177,120.73062657859124z" style="fill:rgb(0,0,79);fill-opacity:1"/><path d="M-232.81852802095912,132.05052422342223L-229.15357211660435,134.90495647558626L-227.23825172906652,134.3739629957194z" style="fill:rgb(0,0,57);fill-opacity:1"/><path d="M-228.12392208152497,134.25272420977177L-230.11432902842904,134.31927829450987L-224.82663171554952,135.3029775736311z" style="fill:rgb(0,0,13);fill-opacity:1"/><path d="M-221.47890319489247,134.30966524383945L-223.47311376210197,134.23625531861475L-226.75751934663066,135.32905951545854z" style="fill:rgb(0,0,14);fill-opacity:1"/><path d="M-139.6217961304614,148.84135346683985L-144.90498948049856,149.87918560982075L-142.92028228451926,149.86313272603456z" style="fill:rgb(0,0,34);fill-opacity:1"/><path d="M-141.56522286692356,148.87490585050682L-138.23884484464833,150.01627095900736L-136.28765366202893,149.692494993181z" style="fill:rgb(0,0,36);fill-opacity:1"/><path d="M-137.1637696743047,149.4482455890202L-139.19589277427602,149.5475117967552L-133.58658988389368,152.13345080010464z" style="fill:rgb(0,0,79);fill-opacity:1"/><path d="M-147.612589710951,163.45334844493559L-143.94763380659626,166.30778069709956L-142.0323134190584,165.77678721723277z" style="fill:rgb(0,0,57);fill-opacity:1"/><path d="M-142.91798377151684,165.6555484312851L-144.90839071842095,165.7221025160232L-139.62069340554143,166.70580179514445z" style="fill:rgb(0,0,13);fill-opacity:1"/><path d="M-136.27296488488437,165.71248946535277L-138.26717545209388,165.63907954012808L-141.55158103662257,166.7318837369719z" style="fill:rgb(0,0,14);fill-opacity:1"/><path d="M-54.41585782045335,255.6634993759819L-59.69905117049049,256.70133151896283L-57.714343974511166,256.68527863517664z" style="fill:rgb(0,0,34);fill-opacity:1"/><path d="M-56.359284556915476,255.69705175964887L-53.032906534640276,256.83841686814947L-51.081715352020865,256.51464090232304z" style="fill:rgb(0,0,36);fill-opacity:1"/><path d="M-51.95783136429663,256.27039149816227L-53.989954464267946,256.3696577058973L-48.380651573885615,258.95559670924666z" style="fill:rgb(0,0,79);fill-opacity:1"/><path d="M-62.40665140094293,270.27549435407764L-58.74169549658819,273.12992660624155L-56.82637510905032,272.59893312637485z" style="fill:rgb(0,0,57);fill-opacity:1"/><path d="M-57.71204546150876,272.47769434042715L-59.702452408412874,272.5442484251653L-54.41475509553337,273.5279477042865z" style="fill:rgb(0,0,13);fill-opacity:1"/><path d="M-51.0670265748763,272.5346353744948L-53.06123714208582,272.46122544927016L-56.34564272661449,273.5540296461139z" style="fill:rgb(0,0,14);fill-opacity:1"/><path d="M22.26948665855393,202.3912975908348L16.986293308516803,203.4291297338157L18.9710005044961,203.4130768500295z" style="fill:rgb(0,0,34);fill-opacity:1"/><path d="M20.326059922091797,202.42484997450177L23.65243794436701,203.5662150830023L25.603629126986412,203.24243911717593z" style="fill:rgb(0,0,36);fill-opacity:1"/><path d="M24.727513114710657,202.99818971301514L22.69539001473933,203.09745592075015L28.30469290512166,205.6833949240996z" style="fill:rgb(0,0,79);fill-opacity:1"/><path d="M14.278693078064364,217.00329256893048L17.943648982419102,219.85772482109454L19.85896936995694,219.32673134122774z" style="fill:rgb(0,0,57);fill-opacity:1"/><path d="M18.97329901749852,219.20549255528007L16.982892070594414,219.27204664001817L22.2705893834739,220.2557459191394z" style="fill:rgb(0,0,13);fill-opacity:1"/><path d="M25.61831790413098,219.26243358934775L23.624107336921455,219.18902366412306L20.339701752392784,220.28182786096684z" style="fill:rgb(0,0,14);fill-opacity:1"/><path d="M115.99601879956283,224.56538012277224L110.71282544952568,225.60321226575314L112.69753264550499,225.58715938196696z" style="fill:rgb(0,0,34);fill-opacity:1"/><path d="M114.05259206310069,224.5989325064392L117.37897008537591,225.74029761493975L119.33016126799531,225.41652164911338z" style="fill:rgb(0,0,36);fill-opacity:1"/><path d="M118.45404525571954,225.17227224495258L116.42192215574822,225.27153845268762L122.03122504613057,227.85747745603695z" style="fill:rgb(0,0,79);fill-opacity:1"/><path d="M108.00522521907324,239.17737510086792L111.670181123428,242.03180735303192L113.58550151096583,241.50081387316507z" style="fill:rgb(0,0,57);fill-opacity:1"/><path d="M112.69983115850741,241.37957508721743L110.7094242116033,241.44612917195553L115.9971215244828,242.42982845107676z" style="fill:rgb(0,0,13);fill-opacity:1"/><path d="M119.34485004513986,241.4365161212851L117.35063947793036,241.36310619606041L114.06623389340169,242.4559103929042z" style="fill:rgb(0,0,14);fill-opacity:1"/><path d="M201.20195710957086,185.11823753624307L195.91876375953373,186.15606967922395L197.903470955513,186.14001679543776z" style="fill:rgb(0,0,34);fill-opacity:1"/><path d="M199.2585303731087,185.15178991991007L202.58490839538393,186.2931550284105L204.53609957800336,185.9693790625842z" style="fill:rgb(0,0,36);fill-opacity:1"/><path d="M203.6599835657276,185.72512965842338L201.62786046575624,185.8243958661584L207.23716335613858,188.41033486950784z" style="fill:rgb(0,0,79);fill-opacity:1"/><path d="M193.21116352908126,199.73023251433878L196.87611943343603,202.5846647665028L198.79143982097386,202.05367128663596z" style="fill:rgb(0,0,57);fill-opacity:1"/><path d="M197.90576946851542,201.93243250068832L195.91536252161134,201.99898658542642L201.20305983449083,202.98268586454765z" style="fill:rgb(0,0,13);fill-opacity:1"/><path d="M204.55078835514792,201.989373534756L202.55657778793838,201.9159636095313L199.2721722034097,203.0087678063751z" style="fill:rgb(0,0,14);fill-opacity:1"/><path d="M286.407895419579,223.04946474593308L281.1247020695419,224.08729688891398L283.1094092655212,224.0712440051278z" style="fill:rgb(0,0,34);fill-opacity:1"/><path d="M284.4644686831169,223.08301712960005L287.79084670539214,224.2243822381006L289.7420378880115,223.90060627227422z" style="fill:rgb(0,0,36);fill-opacity:1"/><path d="M288.86592187573575,223.65635686811342L286.8337987757645,223.75562307584843L292.4431016661468,226.34156207919787z" style="fill:rgb(0,0,79);fill-opacity:1"/><path d="M278.4171018390894,237.66145972402876L282.08205774344424,240.51589197619282L283.99737813098204,239.98489849632602z" style="fill:rgb(0,0,57);fill-opacity:1"/><path d="M283.1117077785236,239.86365971037836L281.1213008316195,239.93021379511646L286.408998144499,240.91391307423768z" style="fill:rgb(0,0,13);fill-opacity:1"/><path d="M289.75672666515607,239.92060074444606L287.76251609794656,239.84719081922137L284.4781105134179,240.93999501606507z" style="fill:rgb(0,0,14);fill-opacity:1"/><path d="M363.0932398985863,168.03847086235407L357.8100465485493,169.07630300533498L359.7947537445285,169.0602501215488z" style="fill:rgb(0,0,34);fill-opacity:1"/><path d="M361.1498131621242,168.07202324602105L364.4761911843994,169.21338835452158L366.4273823670188,168.8896123886952z" style="fill:rgb(0,0,36);fill-opacity:1"/><path d="M365.55126635474306,168.64536298453442L363.51914325477173,168.74462919226946L369.12844614515404,171.3305681956188z" style="fill:rgb(0,0,79);fill-opacity:1"/><path d="M355.1024463180968,182.65046584044978L358.7674022224516,185.50489809261381L360.68272260998936,184.97390461274696z" style="fill:rgb(0,0,57);fill-opacity:1"/><path d="M359.79705225753094,184.85266582679932L357.8066453106269,184.91921991153743L363.0943426235063,185.90291919065868z" style="fill:rgb(0,0,13);fill-opacity:1"/><path d="M366.4420711441634,184.909606860867L364.4478605769538,184.8361969356423L361.1634549924252,185.92900113248612z" style="fill:rgb(0,0,14);fill-opacity:1"/><path d="M-364.83123479219415,144.8101563222814L-369.18255787914103,147.7683127589618L-366.1787965336448,147.82254416187052z" style="fill:rgb(0,0,75);fill-opacity:1"/><path d="M-355.73075263620024,146.99588573034364L-358.69437045798253,147.14890535096245L-353.4301760823547,150.95976068549672z" style="fill:rgb(0,0,108);fill-opacity:1"/><path d="M-370.84239649262156,156.19768657784635L-368.4752557687157,160.26673579321144L-365.5784754673318,159.87381355844002z" style="fill:rgb(0,0,90);fill-opacity:1"/><path d="M-355.0673234623272,159.43662081082093L-358.1467986872477,159.2372629358231L-359.34471555065176,162.3678907065429z" style="fill:rgb(0,0,62);fill-opacity:1"/><path d="M-313.7076718061893,184.3319656991791L-318.0589948931362,187.29012213585955L-315.0552335476399,187.34435353876827z" style="fill:rgb(0,0,75);fill-opacity:1"/><path d="M-304.6071896501953,186.5176951072414L-307.5708074719776,186.6707147278602L-302.30661309634985,190.48157006239447z" style="fill:rgb(0,0,108);fill-opacity:1"/><path d="M-319.71883350661665,195.7194959547441L-317.35169278271087,199.7885451701092L-314.4549124813269,199.39562293533777z" style="fill:rgb(0,0,90);fill-opacity:1"/><path d="M-303.94376047632227,198.95843018771868L-307.0232357012428,198.75907231272086L-308.22115256464684,201.88970008344063z" style="fill:rgb(0,0,62);fill-opacity:1"/><path d="M-228.50173349618117,117.6113882422426L-232.85305658312805,120.56954467892297L-229.84929523763182,120.62377608183172z" style="fill:rgb(0,0,75);fill-opacity:1"/><path d="M-219.4012513401872,119.79711765030483L-222.36486916196958,119.95013727092362L-217.10067478634173,123.76099260545797z" style="fill:rgb(0,0,108);fill-opacity:1"/><path d="M-234.5128951966086,128.99891849780758L-232.14575447270278,133.06796771317264L-229.2489741713188,132.67504547840122z" style="fill:rgb(0,0,90);fill-opacity:1"/><path d="M-218.73782216631417,132.2378527307821L-221.81729739123475,132.0384948557843L-223.0152142546387,135.16912262650416z" style="fill:rgb(0,0,62);fill-opacity:1"/><path d="M-143.2957951861731,149.0142124637559L-147.64711827311993,151.97236890043635L-144.64335692762367,152.0266003033451z" style="fill:rgb(0,0,75);fill-opacity:1"/><path d="M-134.1953130301791,151.1999418718182L-137.15893085196146,151.352961492437L-131.89473647633363,155.1638168269713z" style="fill:rgb(0,0,108);fill-opacity:1"/><path d="M-149.30695688660052,160.40174271932094L-146.93981616269465,164.470791934686L-144.04303586131067,164.07786969991457z" style="fill:rgb(0,0,90);fill-opacity:1"/><path d="M-133.53188385630608,163.64067695229548L-136.61135908122662,163.44131907729766L-137.8092759446306,166.57194684801746z" style="fill:rgb(0,0,62);fill-opacity:1"/><path d="M-58.089856876165015,255.83635837289805L-62.44117996311187,258.79451480957835L-59.43741861761563,258.84874621248713z" style="fill:rgb(0,0,75);fill-opacity:1"/><path d="M-48.98937472017103,258.02208778096025L-51.95299254195339,258.175107401579L-46.68879816632557,261.9859627361133z" style="fill:rgb(0,0,108);fill-opacity:1"/><path d="M-64.10101857659241,267.22388862846293L-61.73387785268658,271.29293784382804L-58.83709755130263,270.9000156090566z" style="fill:rgb(0,0,90);fill-opacity:1"/><path d="M-48.325945546298016,270.4628228614375L-51.40542077121857,270.2634649864397L-52.60333763462253,273.3940927571595z" style="fill:rgb(0,0,62);fill-opacity:1"/><path d="M18.595487602842265,202.5641565877509L14.244164515895408,205.5223130244313L17.247925861391654,205.57654442734002z" style="fill:rgb(0,0,75);fill-opacity:1"/><path d="M27.69596975883625,204.74988599581314L24.732351937053892,204.90290561643195L29.996546312681712,208.71376095096625z" style="fill:rgb(0,0,108);fill-opacity:1"/><path d="M12.584325902414857,213.95168684331585L14.951466626320702,218.02073605868088L17.848246927704643,217.62781382390946z" style="fill:rgb(0,0,90);fill-opacity:1"/><path d="M28.35939893270926,217.19062107629034L25.27992370778871,216.99126320129255L24.082006844384757,220.12189097201247z" style="fill:rgb(0,0,62);fill-opacity:1"/><path d="M112.32201974385116,224.73823911968836L107.97069665690428,227.69639555636866L110.97445800240055,227.7506269592774z" style="fill:rgb(0,0,75);fill-opacity:1"/><path d="M121.42250189984514,226.92396852775053L118.45888407806277,227.07698814836934L123.72307845369062,230.88784348290366z" style="fill:rgb(0,0,108);fill-opacity:1"/><path d="M106.31085804342376,236.1257693752533L108.67799876732958,240.19481859061833L111.57477906871354,239.8018963558469z" style="fill:rgb(0,0,90);fill-opacity:1"/><path d="M122.08593107371816,239.3647036082278L119.0064558487976,239.16534573323L117.80853898539364,242.2959735039498z" style="fill:rgb(0,0,62);fill-opacity:1"/><path d="M197.5279580538592,185.29109653315913L193.17663496691233,188.24925296983955L196.18039631240853,188.30348437274827z" style="fill:rgb(0,0,75);fill-opacity:1"/><path d="M206.62844020985315,187.4768259412214L203.6648223880708,187.6298455618402L208.92901676369866,191.44070089637447z" style="fill:rgb(0,0,108);fill-opacity:1"/><path d="M191.51679635343177,196.67862678872413L193.8839370773376,200.7476760040892L196.78071737872156,200.35475376931777z" style="fill:rgb(0,0,90);fill-opacity:1"/><path d="M207.29186938372618,199.91756102169865L204.21239415880564,199.71820314670086L203.0144772954017,202.8488309174207z" style="fill:rgb(0,0,62);fill-opacity:1"/><path d="M282.73389636386736,223.22232374284917L278.3825732769205,226.18048017952958L281.38633462241677,226.2347115824383z" style="fill:rgb(0,0,75);fill-opacity:1"/><path d="M291.8343785198614,225.40805315091143L288.870760698079,225.56107277153023L294.1349550737068,229.37192810606456z" style="fill:rgb(0,0,108);fill-opacity:1"/><path d="M276.72273466343995,234.60985399841414L279.0898753873458,238.67890321377917L281.98665568872974,238.28598097900775z" style="fill:rgb(0,0,90);fill-opacity:1"/><path d="M292.4978076937344,237.84878823138862L289.4183324688138,237.64943035639084L288.22041560540987,240.78005812711075z" style="fill:rgb(0,0,62);fill-opacity:1"/><path d="M359.41924084287473,168.21132985927017L355.06791775592785,171.16948629595055L358.0716791014241,171.22371769885928z" style="fill:rgb(0,0,75);fill-opacity:1"/><path d="M368.51972299886864,170.3970592673324L365.55610517708635,170.5500788879512L370.8202995527141,174.3609342224855z" style="fill:rgb(0,0,108);fill-opacity:1"/><path d="M353.40807914244726,179.59886011483513L355.77521986635315,183.6679093302002L358.67200016773705,183.27498709542877z" style="fill:rgb(0,0,90);fill-opacity:1"/><path d="M369.18315217274164,182.83779434780965L366.10367694782116,182.63843647281186L364.9057600844172,185.76906424353172z" style="fill:rgb(0,0,62);fill-opacity:1"/><path d="M-368.0987706695517,146.52392655304027L-370.92633128551176,150.74170932372135L-367.2031960111882,150.65848093207296z" style="fill:rgb(0,0,101);fill-opacity:1"/><path d="M-353.66656345618867,149.75292741876703L-357.3106710219157,149.90415870210998L-353.00035807766557,154.412499729084z" style="fill:rgb(0,0,121);fill-opacity:1"/><path d="M-371.2619541643688,152.7245452245016L-370.5457079620801,157.49638058740473L-366.96617222298767,157.1522760344332z" style="fill:rgb(0,0,109);fill-opacity:1"/><path d="M-353.31612609440475,156.4852322410471L-357.1098903236181,156.42678499340857L-356.097112520932,160.6066536530103z" style="fill:rgb(0,0,97);fill-opacity:1"/><path d="M-316.97520768354684,186.04573592993802L-319.80276829950685,190.2635187006191L-316.0796330251833,190.1802903089707z" style="fill:rgb(0,0,101);fill-opacity:1"/><path d="M-302.5430004701838,189.27473679566478L-306.18710803591085,189.42596807900776L-301.8767950916607,193.93430910598167z" style="fill:rgb(0,0,121);fill-opacity:1"/><path d="M-320.1383911783639,192.2463546013993L-319.4221449760752,197.01818996430248L-315.84260923698275,196.67408541133096z" style="fill:rgb(0,0,109);fill-opacity:1"/><path d="M-302.1925631083999,196.00704161794485L-305.98632733761326,195.94859437030632L-304.9735495349271,200.12846302990806z" style="fill:rgb(0,0,97);fill-opacity:1"/><path d="M-231.76926937353875,119.32515847300144L-234.59682998949881,123.54294124368262L-230.87369471517516,123.45971285203419z" style="fill:rgb(0,0,101);fill-opacity:1"/><path d="M-217.33706216017575,122.55415933872827L-220.98116972590276,122.70539062207123L-216.6708567816526,127.21373164904517z" style="fill:rgb(0,0,121);fill-opacity:1"/><path d="M-234.9324528683558,125.5257771444628L-234.21620666606708,130.29761250736595L-230.6366709269747,129.95350795439444z" style="fill:rgb(0,0,109);fill-opacity:1"/><path d="M-216.9866247983918,129.28646416100833L-220.7803890276052,129.2280169133698L-219.76761122491894,133.4078855729715z" style="fill:rgb(0,0,97);fill-opacity:1"/><path d="M-146.5633310635306,150.72798269451482L-149.39089167949075,154.94576546519593L-145.66775640516707,154.86253707354754z" style="fill:rgb(0,0,101);fill-opacity:1"/><path d="M-132.13112385016765,153.9569835602416L-135.77523141589467,154.10821484358456L-131.4649184716445,158.61655587055856z" style="fill:rgb(0,0,121);fill-opacity:1"/><path d="M-149.72651455834767,156.92860136597616L-149.010268356059,161.7004367288793L-145.4307326169666,161.3563321759078z" style="fill:rgb(0,0,109);fill-opacity:1"/><path d="M-131.7806864883837,160.68928838252168L-135.5744507175971,160.63084113488316L-134.56167291491084,164.81070979448486z" style="fill:rgb(0,0,97);fill-opacity:1"/><path d="M-61.35739275352254,257.55012860365684L-64.18495336948264,261.767911374338L-60.461818095159025,261.68468298268954z" style="fill:rgb(0,0,101);fill-opacity:1"/><path d="M-46.92518554015955,260.77912946938363L-50.569293105886594,260.9303607527266L-46.25898016163643,265.4387017797006z" style="fill:rgb(0,0,121);fill-opacity:1"/><path d="M-64.52057624833961,263.7507472751182L-63.8043300460509,268.5225826380213L-60.224794306958536,268.17847808504985z" style="fill:rgb(0,0,109);fill-opacity:1"/><path d="M-46.574748178375636,267.5114342916637L-50.36851240758903,267.4529870440252L-49.355734604902764,271.6328557036269z" style="fill:rgb(0,0,97);fill-opacity:1"/><path d="M15.32795172548474,204.27792681850977L12.500391109524637,208.49570958919088L16.223526383848274,208.4124811975425z" style="fill:rgb(0,0,101);fill-opacity:1"/><path d="M29.760158938847724,207.50692768423656L26.116051373120687,207.6581589675795L30.42636431737084,212.1664999945535z" style="fill:rgb(0,0,121);fill-opacity:1"/><path d="M12.164768230667665,210.4785454899711L12.881014432956377,215.25038085287423L16.46055017204876,214.90627629990271z" style="fill:rgb(0,0,109);fill-opacity:1"/><path d="M30.110596300631645,214.2392325065166L26.316832071418244,214.18078525887807L27.329609874104516,218.36065391847976z" style="fill:rgb(0,0,97);fill-opacity:1"/><path d="M109.05448386649363,226.45200935044716L106.22692325053355,230.6697921211283L109.95005852485714,230.5865637294799z" style="fill:rgb(0,0,101);fill-opacity:1"/><path d="M123.48669107985663,229.68101021617397L119.84258351412959,229.83224149951695L124.15289645837973,234.34058252649086z" style="fill:rgb(0,0,121);fill-opacity:1"/><path d="M105.89130037167656,232.6526280219085L106.60754657396528,237.42446338481167L110.18708231305763,237.08035883184016z" style="fill:rgb(0,0,109);fill-opacity:1"/><path d="M123.83712844164054,236.41331503845404L120.04336421242715,236.35486779081552L121.05614201511341,240.5347364504172z" style="fill:rgb(0,0,97);fill-opacity:1"/><path d="M194.26042217650166,187.00486676391802L191.43286156054154,191.2226495345991L195.15599683486522,191.1394211429507z" style="fill:rgb(0,0,101);fill-opacity:1"/><path d="M208.69262938986463,190.23386762964478L205.04852182413762,190.38509891298773L209.3588347683878,194.89343993996175z" style="fill:rgb(0,0,121);fill-opacity:1"/><path d="M191.0972386816846,193.20548543537936L191.8134848839733,197.9773207982825L195.3930206230657,197.633216245311z" style="fill:rgb(0,0,109);fill-opacity:1"/><path d="M209.04306675164858,196.96617245192488L205.2493025224352,196.90772520428635L206.26208032512142,201.08759386388806z" style="fill:rgb(0,0,97);fill-opacity:1"/><path d="M279.4663604865098,224.93609397360805L276.63879987054975,229.1538767442892L280.3619351448733,229.0706483526408z" style="fill:rgb(0,0,101);fill-opacity:1"/><path d="M293.89856769987284,228.16509483933487L290.2544601341458,228.31632612267785L294.56477307839594,232.82466714965176z" style="fill:rgb(0,0,121);fill-opacity:1"/><path d="M276.3031769916928,231.1367126450694L277.0194231939814,235.9085480079725L280.59895893307385,235.564443455001z" style="fill:rgb(0,0,109);fill-opacity:1"/><path d="M294.24900506165676,234.89739966161488L290.45524083244334,234.83895241397636L291.4680186351297,239.01882107357804z" style="fill:rgb(0,0,97);fill-opacity:1"/><path d="M356.1517049655172,169.92510009002902L353.32414434955706,174.14288286071013L357.0472796238806,174.05965446906174z" style="fill:rgb(0,0,101);fill-opacity:1"/><path d="M370.58391217888015,173.1541009557558L366.9398046131531,173.30533223909876L371.25011755740326,177.81367326607275z" style="fill:rgb(0,0,121);fill-opacity:1"/><path d="M352.98852147070005,176.12571876149036L353.70476767298874,180.8975541243935L357.28430341208116,180.553449571422z" style="fill:rgb(0,0,109);fill-opacity:1"/><path d="M370.9343495406641,179.88640577803588L367.1405853114507,179.82795853039735L368.1533631141369,184.00782718999906z" style="fill:rgb(0,0,97);fill-opacity:1"/><path d="M-361.6556295206551,144.2475326501204L-365.45775570551507,145.70362087313654L-361.6140974882776,146.0203498550146z" style="fill:rgb(0,0,69);fill-opacity:1"/><path d="M-362.59382027645387,144.20834918414747L-362.6143067109783,146.14833435458777L-358.8158172033265,145.6148198395363z" style="fill:rgb(0,0,70);fill-opacity:1"/><path d="M-361.61688947397744,161.1033101718654L-365.46407279018484,161.4902493514666L-361.6465204502855,162.87772479469712z" style="fill:rgb(0,0,48);fill-opacity:1"/><path d="M-358.81179073256175,161.41126758962469L-362.92671288365034,161.20435103321148L-362.2854405745466,162.85566569519293z" style="fill:rgb(0,0,49);fill-opacity:1"/><path d="M-310.53206653465026,183.76934202701813L-314.3341927195102,185.22543025003426L-310.49053450227274,185.5421592319123z" style="fill:rgb(0,0,69);fill-opacity:1"/><path d="M-311.470257290449,183.7301585610452L-311.49074372497347,185.6701437314855L-307.6922542173216,185.13662921643402z" style="fill:rgb(0,0,70);fill-opacity:1"/><path d="M-310.4933264879726,200.6251195487631L-314.34050980418,201.01205872836434L-310.52295746428064,202.39953417159478z" style="fill:rgb(0,0,48);fill-opacity:1"/><path d="M-307.68822774655683,200.9330769665224L-311.8031498976455,200.7261604101092L-311.16187758854176,202.37747507209062z" style="fill:rgb(0,0,49);fill-opacity:1"/><path d="M-225.3261282246421,117.04876457008159L-229.12825440950212,118.50485279309777L-225.28459619226467,118.82158177497578z" style="fill:rgb(0,0,69);fill-opacity:1"/><path d="M-226.26431898044092,117.00958110410863L-226.28480541496535,118.94956627454899L-222.48631590731347,118.41605175949752z" style="fill:rgb(0,0,70);fill-opacity:1"/><path d="M-225.28738817796443,133.9045420918266L-229.1345714941719,134.29148127142784L-225.31701915427257,135.67895671465828z" style="fill:rgb(0,0,48);fill-opacity:1"/><path d="M-222.48228943654874,134.2124995095859L-226.59721158763736,134.0055829531727L-225.95593927853363,135.65689761515412z" style="fill:rgb(0,0,49);fill-opacity:1"/><path d="M-140.120189914634,148.4515887915949L-143.922316099494,149.90767701461112L-140.07865788225658,150.22440599648914z" style="fill:rgb(0,0,69);fill-opacity:1"/><path d="M-141.05838067043283,148.412405325622L-141.07886710495725,150.35239049606233L-137.28037759730537,149.81887598101085z" style="fill:rgb(0,0,70);fill-opacity:1"/><path d="M-140.08144986795634,165.30736631333994L-143.92863318416377,165.69430549294114L-140.11108084426448,167.08178093617167z" style="fill:rgb(0,0,48);fill-opacity:1"/><path d="M-137.27635112654065,165.61532373109924L-141.39127327762927,165.40840717468603L-140.75000096852554,167.05972183666748z" style="fill:rgb(0,0,49);fill-opacity:1"/><path d="M-54.914251604625946,255.27373470073695L-58.71637778948591,256.7298229237532L-54.872719572248506,257.0465519056312z" style="fill:rgb(0,0,69);fill-opacity:1"/><path d="M-55.852442360424746,255.23455123476404L-55.872928794949175,257.17453640520444L-52.074439287297324,256.6410218901529z" style="fill:rgb(0,0,70);fill-opacity:1"/><path d="M-54.87551155794827,272.129512222482L-58.72269487415569,272.5164514020832L-54.9051425342564,273.9039268453137z" style="fill:rgb(0,0,48);fill-opacity:1"/><path d="M-52.07041281653259,272.43746964024126L-56.18533496762119,272.23055308382806L-55.54406265851747,273.8818677458096z" style="fill:rgb(0,0,49);fill-opacity:1"/><path d="M21.771092874381335,202.00153291558985L17.96896668952136,203.45762113860607L21.81262490675877,203.7743501204841z" style="fill:rgb(0,0,69);fill-opacity:1"/><path d="M20.832902118582535,201.96234944961694L20.812415684058102,203.90233462005727L24.61090519170995,203.3688201050058z" style="fill:rgb(0,0,70);fill-opacity:1"/><path d="M21.809832921059005,218.85731043733492L17.962649604851578,219.24424961693614L21.780201944750882,220.6317250601666z" style="fill:rgb(0,0,48);fill-opacity:1"/><path d="M24.614931662474696,219.1652678550942L20.50000951138608,218.958351298681L21.141281820489812,220.60966596066243z" style="fill:rgb(0,0,49);fill-opacity:1"/><path d="M115.49762501539024,224.1756154475273L111.69549883053024,225.63170367054352L115.53915704776767,225.94843265242153z" style="fill:rgb(0,0,69);fill-opacity:1"/><path d="M114.55943425959144,224.13643198155438L114.53894782506701,226.07641715199472L118.33743733271884,225.54290263694324z" style="fill:rgb(0,0,70);fill-opacity:1"/><path d="M115.53636506206792,241.03139296927228L111.68918174586047,241.4183321488735L115.50673408575977,242.80580759210395z" style="fill:rgb(0,0,48);fill-opacity:1"/><path d="M118.34146380348359,241.33935038703157L114.22654165239499,241.13243383061837L114.86781396149871,242.78374849259978z" style="fill:rgb(0,0,49);fill-opacity:1"/><path d="M200.70356332539825,184.72847286099815L196.90143714053826,186.1845610840143L200.74509535777568,186.50129006589233z" style="fill:rgb(0,0,69);fill-opacity:1"/><path d="M199.76537256959944,184.6892893950252L199.744886135075,186.62927456546552L203.5433756427269,186.09576005041404z" style="fill:rgb(0,0,70);fill-opacity:1"/><path d="M200.74230337207592,201.58425038274316L196.8951200558685,201.9711895623444L200.71267239576778,203.35866500557484z" style="fill:rgb(0,0,48);fill-opacity:1"/><path d="M203.54740211349161,201.89220780050246L199.432479962403,201.68529124408926L200.07375227150672,203.33660590607067z" style="fill:rgb(0,0,49);fill-opacity:1"/><path d="M285.9095016354064,222.65970007068813L282.10737545054644,224.11578829370436L285.9510336677839,224.43251727558237z" style="fill:rgb(0,0,69);fill-opacity:1"/><path d="M284.97131087960764,222.62051660471522L284.9508244450832,224.56050177515556L288.74931395273506,224.02698726010408z" style="fill:rgb(0,0,70);fill-opacity:1"/><path d="M285.9482416820841,239.5154775924332L282.10105836587667,239.90241677203443L285.918610705776,241.28989221526487z" style="fill:rgb(0,0,48);fill-opacity:1"/><path d="M288.7533404234998,239.8234350101925L284.6384182724112,239.6165184537793L285.2796905815149,241.2678331157607z" style="fill:rgb(0,0,49);fill-opacity:1"/><path d="M362.5948461144137,167.64870618710913L358.79271992955375,169.10479441012535L362.63637814679123,169.42152339200337z" style="fill:rgb(0,0,69);fill-opacity:1"/><path d="M361.65665535861496,167.60952272113622L361.6361689240905,169.54950789157655L365.4346584317423,169.01599337652507z" style="fill:rgb(0,0,70);fill-opacity:1"/><path d="M362.6335861610914,184.50448370885417L358.786402844884,184.89142288845537L362.60395518478333,186.2788983316859z" style="fill:rgb(0,0,48);fill-opacity:1"/><path d="M365.4386849025071,184.81244112661346L361.3237627514185,184.60552457020026L361.9650350605222,186.2568392321817z" style="fill:rgb(0,0,49);fill-opacity:1"/><path d="M-370.31799347311596,149.33094181461672L-371.4053982255405,154.15540303482672L-367.51823874216825,153.90914499961224z" style="fill:rgb(0,0,113);fill-opacity:1"/><path d="M-352.82069145242116,153.08686011478667L-356.77106125898473,153.16741304612754L-353.9180437529759,157.79302468633074z" style="fill:rgb(0,0,117);fill-opacity:1"/><path d="M-356.31308170005093,23.14133176316088L-362.51412464794447,41.9185730901676L-352.71203263917016,23.17386646722713z" style="fill:rgb(105,0,0);fill-opacity:1"/><path d="M-371.53982937982573,23.174585150156645L-361.7334277901107,41.91733637796113L-367.93893074810455,23.141849792437835z" style="fill:rgb(97,0,0);fill-opacity:1"/><path d="M-319.19443048711105,188.85275119151447L-320.28183523953567,193.6772124117244L-316.3946757561634,193.43095437650993z" style="fill:rgb(0,0,113);fill-opacity:1"/><path d="M-301.6971284664163,192.60866949168437L-305.6474982729798,192.68922242302523L-302.79448076697105,197.3148340632285z" style="fill:rgb(0,0,117);fill-opacity:1"/><path d="M-305.189518714046,-137.44578393494723L-311.3905616619396,-118.66854260794052L-301.5884696531653,-137.41324923088098z" style="fill:rgb(105,0,0);fill-opacity:1"/><path d="M-320.4162663938209,-137.41253054795146L-310.6098648041058,-118.66977932014699L-316.8153677620997,-137.44526590567028z" style="fill:rgb(97,0,0);fill-opacity:1"/><path d="M-233.98849217710296,122.13217373457798L-235.07589692952757,126.9566349547879L-231.1887374461553,126.7103769195734z" style="fill:rgb(0,0,113);fill-opacity:1"/><path d="M-216.4911901564082,125.88809203474784L-220.44155996297167,125.96864496608872L-217.58854245696298,130.59425660629196z" style="fill:rgb(0,0,117);fill-opacity:1"/><path d="M-219.98358040403792,-186.84985693030316L-226.18462335193146,-168.07261560329647L-216.3825313431572,-186.8173222262369z" style="fill:rgb(105,0,0);fill-opacity:1"/><path d="M-235.21032808381275,-186.8166035433074L-225.40392649409773,-168.07385231550293L-231.60942945209158,-186.84933890102621z" style="fill:rgb(97,0,0);fill-opacity:1"/><path d="M-148.78255386709486,153.5349979560913L-149.86995861951945,158.35945917630127L-145.98279913614718,158.1132011410868z" style="fill:rgb(0,0,113);fill-opacity:1"/><path d="M-131.28525184640012,157.29091625626123L-135.23562165296357,157.3714691876021L-132.3826041469549,161.99708082780532z" style="fill:rgb(0,0,117);fill-opacity:1"/><path d="M-134.77764209402983,-232.52648910253936L-140.97868504192337,-213.7492477755327L-131.17659303314912,-232.4939543984731z" style="fill:rgb(105,0,0);fill-opacity:1"/><path d="M-150.00438977380463,-232.4932357155436L-140.19798818408964,-213.75048448773916L-146.40349114208345,-232.5259710732624z" style="fill:rgb(97,0,0);fill-opacity:1"/><path d="M-63.57661555708678,260.35714386523335L-64.66402030951137,265.18160508544327L-60.776860826139114,264.9353470502288z" style="fill:rgb(0,0,113);fill-opacity:1"/><path d="M-46.079313536392036,264.1130621654032L-50.02968334295552,264.1936150967441L-47.17666583694679,268.81922673694737z" style="fill:rgb(0,0,117);fill-opacity:1"/><path d="M-49.57170378402177,-237.3052866830993L-55.77274673191531,-218.52804535609258L-45.97065472314102,-237.27275197903305z" style="fill:rgb(105,0,0);fill-opacity:1"/><path d="M-64.79845146379657,-237.27203329610353L-54.992049874081545,-218.52928206829904L-61.197552832075395,-237.30476865382235z" style="fill:rgb(97,0,0);fill-opacity:1"/><path d="M13.108728921920497,207.08494208008625L12.021324169495905,211.90940330029622L15.908483652868165,211.66314526508174z" style="fill:rgb(0,0,113);fill-opacity:1"/><path d="M30.606030942615234,210.84086038025617L26.65566113605176,210.92141331159704L29.50867864206049,215.54702495180024z" style="fill:rgb(0,0,117);fill-opacity:1"/><path d="M27.11364069498551,-273.76692715179473L20.912597747091965,-254.989685824788L30.714689755866257,-273.7343924477285z" style="fill:rgb(105,0,0);fill-opacity:1"/><path d="M11.886893015210704,-273.73367376479894L21.693294604925736,-254.99092253699447L15.487791646931882,-273.76640912251776z" style="fill:rgb(97,0,0);fill-opacity:1"/><path d="M106.8352610629294,229.25902461202367L105.7478563105048,234.0834858322336L109.63501579387705,233.83722779701912z" style="fill:rgb(0,0,113);fill-opacity:1"/><path d="M124.33256308362412,233.01494291219353L120.38219327706065,233.09549584353442L123.23521078306939,237.7211074837377z" style="fill:rgb(0,0,117);fill-opacity:1"/><path d="M120.84017283599441,49.814803560800236L114.63912988810085,68.59204488780695L124.44122189687515,49.84733826486648z" style="fill:rgb(105,0,0);fill-opacity:1"/><path d="M105.6134251562196,49.848056947795996L115.41982674593464,68.59080817560047L109.21432378794076,49.81532159007719z" style="fill:rgb(97,0,0);fill-opacity:1"/><path d="M192.04119937293743,189.81188202549447L190.9537946205128,194.63634324570447L194.84095410388508,194.39008521048999z" style="fill:rgb(0,0,113);fill-opacity:1"/><path d="M209.53850139363217,193.56780032566442L205.5881315870687,193.64835325700528L208.4411490930774,198.27396489720851z" style="fill:rgb(0,0,117);fill-opacity:1"/><path d="M206.04611114600243,119.91312169582443L199.8450681981089,138.69036302283112L209.64716020688317,119.94565639989065z" style="fill:rgb(105,0,0);fill-opacity:1"/><path d="M190.81936346622763,119.94637508282017L200.62576505594262,138.68912631062466L194.4202620979488,119.91363972510138z" style="fill:rgb(97,0,0);fill-opacity:1"/><path d="M277.24713768294555,227.74310923518456L276.15973293052105,232.5675704553945L280.04689241389326,232.32131242018002z" style="fill:rgb(0,0,113);fill-opacity:1"/><path d="M294.74443970364035,231.49902753535446L290.7940698970769,231.57958046669532L293.6470874030856,236.20519210689852z" style="fill:rgb(0,0,117);fill-opacity:1"/><path d="M291.2520494560107,96.2206963943993L285.05100650811704,114.997937721406L294.85309851689135,96.25323109846552z" style="fill:rgb(105,0,0);fill-opacity:1"/><path d="M276.02530177623584,96.25394978139504L285.83170336595083,114.99670100919954L279.62620040795696,96.22121442367624z" style="fill:rgb(97,0,0);fill-opacity:1"/><path d="M353.93248216195286,172.7321153516055L352.8450774095283,177.55657657181547L356.73223689290063,177.310318536601z" style="fill:rgb(0,0,113);fill-opacity:1"/><path d="M371.42978418264767,176.48803365177542L367.47941437608415,176.56858658311629L370.3324318820929,181.19419822331952z" style="fill:rgb(0,0,117);fill-opacity:1"/><path d="M367.93739393501795,134.8579629550787L361.73635098712435,153.63520428208543L371.53844299589866,134.89049765914496z" style="fill:rgb(105,0,0);fill-opacity:1"/><path d="M352.7106462552431,134.89121634207447L362.51704784495814,153.63396756987896L356.3115448869643,134.85848098435565z" style="fill:rgb(97,0,0);fill-opacity:1"/><path d="M-363.6054989113406,145.2097187862257L-365.818205398498,145.0623513719129L-366.9751851158595,148.24496960331777z" style="fill:rgb(0,0,75);fill-opacity:1"/><path d="M-360.59204901397163,144.9940057962262L-357.90261803177896,147.88798717791022L-355.0383053917261,147.5190202689773z" style="fill:rgb(0,0,79);fill-opacity:1"/><path d="M-366.31243410859713,159.35423891195467L-369.22857068326806,159.51836721919088L-363.6774496758647,162.1691683220414z" style="fill:rgb(0,0,57);fill-opacity:1"/><path d="M-357.21983731567275,158.91608188518796L-360.62117683942995,162.0709883359053L-358.5115233244058,161.938677713751z" style="fill:rgb(0,0,62);fill-opacity:1"/><path d="M-312.48193592533573,184.73152816312341L-314.6946424124931,184.58416074881063L-315.8516221298546,187.76677898021552z" style="fill:rgb(0,0,75);fill-opacity:1"/><path d="M-309.4684860279667,184.5158151731239L-306.77905504577404,187.40979655480797L-303.9147424057212,187.04082964587505z" style="fill:rgb(0,0,79);fill-opacity:1"/><path d="M-315.1888711225922,198.87604828885242L-318.1050076972632,199.04017659608863L-312.55388668985984,201.69097769893912z" style="fill:rgb(0,0,57);fill-opacity:1"/><path d="M-306.09627432966784,198.4378912620857L-309.49761385342504,201.59279771280302L-307.3879603384009,201.4604870906487z" style="fill:rgb(0,0,62);fill-opacity:1"/><path d="M-227.2759976153277,118.0109507061869L-229.488704102485,117.86358329187412L-230.64568381984648,121.04620152327895z" style="fill:rgb(0,0,75);fill-opacity:1"/><path d="M-224.2625477179586,117.79523771618739L-221.57311673576598,120.68921909787139L-218.7088040957131,120.32025218893851z" style="fill:rgb(0,0,79);fill-opacity:1"/><path d="M-229.9829328125841,132.15547083191586L-232.89906938725514,132.31959913915205L-227.34794837985177,134.97040024200265z" style="fill:rgb(0,0,57);fill-opacity:1"/><path d="M-220.89033601965983,131.71731380514916L-224.29167554341691,134.87222025586652L-222.18202202839274,134.73990963371222z" style="fill:rgb(0,0,62);fill-opacity:1"/><path d="M-142.07005930531957,149.41377492770025L-144.2827657924769,149.26640751338746L-145.43974550983836,152.44902574479232z" style="fill:rgb(0,0,75);fill-opacity:1"/><path d="M-139.0566094079505,149.19806193770074L-136.36717842575786,152.09204331938474L-133.502865785705,151.72307641045188z" style="fill:rgb(0,0,79);fill-opacity:1"/><path d="M-144.77699450257597,163.55829505342922L-147.69313107724702,163.72242336066543L-142.14201006984365,166.37322446351595z" style="fill:rgb(0,0,57);fill-opacity:1"/><path d="M-135.68439770965168,163.12013802666252L-139.08573723340882,166.27504447737985L-136.97608371838467,166.14273385522554z" style="fill:rgb(0,0,62);fill-opacity:1"/><path d="M-56.864120995311474,256.23592083684235L-59.07682748246885,256.08855342252957L-60.233807199830316,259.2711716539343z" style="fill:rgb(0,0,75);fill-opacity:1"/><path d="M-53.85067109794246,256.0202078468428L-51.1612401157498,258.91418922852677L-48.296927475696926,258.5452223195939z" style="fill:rgb(0,0,79);fill-opacity:1"/><path d="M-59.57105619256792,270.38044096257124L-62.48719276723894,270.5445692698074L-56.93607175983557,273.19537037265803z" style="fill:rgb(0,0,57);fill-opacity:1"/><path d="M-50.47845939964363,269.94228393580454L-53.87979892340078,273.09719038652185L-51.77014540837657,272.96487976436765z" style="fill:rgb(0,0,62);fill-opacity:1"/><path d="M19.821223483695793,202.9637190516952L17.60851699653844,202.8163516373824L16.451537279176957,205.99896986878727z" style="fill:rgb(0,0,75);fill-opacity:1"/><path d="M22.834673381064825,202.7480060616957L25.524104363257486,205.6419874433797L28.388417003310348,205.27302053444683z" style="fill:rgb(0,0,79);fill-opacity:1"/><path d="M17.11428828643935,217.1082391774241L14.198151711768345,217.2723674846603L19.749272719171696,219.92316858751096z" style="fill:rgb(0,0,57);fill-opacity:1"/><path d="M26.206885079363648,216.6700821506574L22.805545555606503,219.82498860137483L24.91519907063071,219.69267797922052z" style="fill:rgb(0,0,62);fill-opacity:1"/><path d="M113.54775562470468,225.13780158363264L111.33504913754733,224.99043416931985L110.17806942018585,228.17305240072466z" style="fill:rgb(0,0,75);fill-opacity:1"/><path d="M116.56120552207372,224.92208859363313L119.25063650426637,227.81606997531708L122.11494914431924,227.44710306638422z" style="fill:rgb(0,0,79);fill-opacity:1"/><path d="M110.84082042744824,239.28232170936155L107.92468385277722,239.44645001659777L113.4758048601806,242.0972511194483z" style="fill:rgb(0,0,57);fill-opacity:1"/><path d="M119.93341722037255,238.84416468259485L116.53207769661539,241.99907113331219L118.6417312116396,241.86676051115788z" style="fill:rgb(0,0,62);fill-opacity:1"/><path d="M198.7536939347127,185.69065899710344L196.54098744755538,185.54329158279066L195.38400773019387,188.72590981419552z" style="fill:rgb(0,0,75);fill-opacity:1"/><path d="M201.76714383208176,185.47494600710394L204.4565748142744,188.36892738878794L207.32088745432725,187.99996047985508z" style="fill:rgb(0,0,79);fill-opacity:1"/><path d="M196.04675873745626,199.83517912283241L193.13062216278524,199.9993074300686L198.6817431701886,202.6501085329192z" style="fill:rgb(0,0,57);fill-opacity:1"/><path d="M205.13935553038056,199.3970220960657L201.73801600662344,202.55192854678307L203.84766952164765,202.41961792462877z" style="fill:rgb(0,0,62);fill-opacity:1"/><path d="M283.9596322447209,223.62188620679348L281.74692575756353,223.4745187924807L280.58994604020205,226.65713702388555z" style="fill:rgb(0,0,75);fill-opacity:1"/><path d="M286.97308214208994,223.40617321679397L289.66251312428255,226.30015459847797L292.5268257643355,225.9311876895451z" style="fill:rgb(0,0,79);fill-opacity:1"/><path d="M281.25269704746444,237.7664063325224L278.33656047279345,237.93053463975858L283.8876814801968,240.58133574260924z" style="fill:rgb(0,0,57);fill-opacity:1"/><path d="M290.34529384038865,237.3282493057557L286.9439543166317,240.4831557564731L289.0536078316558,240.3508451343188z" style="fill:rgb(0,0,62);fill-opacity:1"/><path d="M360.64497672372823,168.61089232321447L358.4322702365709,168.4635249089017L357.27529051920936,171.64614314030652z" style="fill:rgb(0,0,75);fill-opacity:1"/><path d="M363.6584266210972,168.39517933321497L366.3478576032899,171.28916071489897L369.21217024334277,170.92019380596605z" style="fill:rgb(0,0,79);fill-opacity:1"/><path d="M357.93804152647175,182.75541244894342L355.0219049518008,182.9195407561796L360.57302595920413,185.5703418590302z" style="fill:rgb(0,0,57);fill-opacity:1"/><path d="M367.03063831939613,182.31725542217671L363.6292987956389,185.47216187289408L365.7389523106631,185.33985125073977z" style="fill:rgb(0,0,62);fill-opacity:1"/><path d="M-365.74457990689166,146.98240136627803L-368.9330323144828,146.95541195318754L-367.86674593424914,151.16673844733725z" style="fill:rgb(0,0,101);fill-opacity:1"/><path d="M-358.39866958605904,146.68350150778838L-356.7231540679633,150.8034042845321L-353.20127161390326,150.4372110165141z" style="fill:rgb(0,0,108);fill-opacity:1"/><path d="M-367.489536107921,156.43583668546748L-371.0693156929219,156.6202783911835L-365.86947983643796,160.46255581081502z" style="fill:rgb(0,0,90);fill-opacity:1"/><path d="M-356.3482008540668,155.96084536469579L-358.48118641621704,160.28087954790075L-355.37768147929916,160.09651101690127z" style="fill:rgb(0,0,97);fill-opacity:1"/><path d="M-314.62101692088675,186.50421074317575L-317.809469328478,186.47722133008529L-316.74318294824417,190.68854782423503z" style="fill:rgb(0,0,101);fill-opacity:1"/><path d="M-307.27510660005413,186.2053108846861L-305.59959108195847,190.32521366142984L-302.0777086278984,189.9590203934119z" style="fill:rgb(0,0,108);fill-opacity:1"/><path d="M-316.3659731219161,195.95764606236523L-319.945752706917,196.14208776808124L-314.74591685043305,199.98436518771277z" style="fill:rgb(0,0,90);fill-opacity:1"/><path d="M-305.22463786806196,195.48265474159354L-307.35762343021213,199.8026889247985L-304.25411849329424,199.61832039379902z" style="fill:rgb(0,0,97);fill-opacity:1"/><path d="M-229.41507861087868,119.7836332862392L-232.60353101846985,119.75664387314872L-231.53724463823607,123.9679703672985z" style="fill:rgb(0,0,101);fill-opacity:1"/><path d="M-222.06916829004604,119.48473342774956L-220.3936527719504,123.60463620449332L-216.8717703178903,123.23844293647537z" style="fill:rgb(0,0,108);fill-opacity:1"/><path d="M-231.16003481190805,129.2370686054287L-234.73981439690897,129.42151031114471L-229.5399785404249,133.26378773077622z" style="fill:rgb(0,0,90);fill-opacity:1"/><path d="M-220.01869955805392,128.762077284657L-222.15168512020404,133.08211146786195L-219.0481801832861,132.89774293686247z" style="fill:rgb(0,0,97);fill-opacity:1"/><path d="M-144.20914030087056,151.18645750775258L-147.39759270846173,151.1594680946621L-146.33130632822798,155.37079458881183z" style="fill:rgb(0,0,101);fill-opacity:1"/><path d="M-136.86322998003791,150.8875576492629L-135.1877144619423,155.00746042600667L-131.66583200788222,154.64126715798872z" style="fill:rgb(0,0,108);fill-opacity:1"/><path d="M-145.95409650189995,160.63989282694206L-149.53387608690088,160.82433453265807L-144.33404023041678,164.66661195228957z" style="fill:rgb(0,0,90);fill-opacity:1"/><path d="M-134.81276124804583,160.16490150617037L-136.9457468101959,164.4849356893753L-133.842241873278,164.30056715837583z" style="fill:rgb(0,0,97);fill-opacity:1"/><path d="M-59.00320199086249,258.0086034168946L-62.19165439845366,257.9816140038041L-61.12536801821993,262.1929404979539z" style="fill:rgb(0,0,101);fill-opacity:1"/><path d="M-51.657291670029856,257.70970355840495L-49.98177615193424,261.8296063351487L-46.45989369787412,261.4634130671307z" style="fill:rgb(0,0,108);fill-opacity:1"/><path d="M-60.74815819189189,267.4620387360841L-64.32793777689278,267.64648044180007L-59.12810192040873,271.4887578614316z" style="fill:rgb(0,0,90);fill-opacity:1"/><path d="M-49.60682293803776,266.9870474153124L-51.739808500187856,271.3070815985173L-48.636303563269934,271.12271306751785z" style="fill:rgb(0,0,97);fill-opacity:1"/><path d="M17.682142488144773,204.7364016317475L14.493690080553622,204.70941221865704L15.559976460787365,208.9207387128068z" style="fill:rgb(0,0,101);fill-opacity:1"/><path d="M25.028052808977424,204.43750177325785L26.703568327073043,208.55740455000162L30.22545078113315,208.19121128198367z" style="fill:rgb(0,0,108);fill-opacity:1"/><path d="M15.937186287115402,214.18983695093698L12.357406702114492,214.374278656653L17.557242558598542,218.21655607628446z" style="fill:rgb(0,0,90);fill-opacity:1"/><path d="M27.078521540969522,213.71484563016529L24.945535978819425,218.0348798133702L28.049040915737347,217.85051128237072z" style="fill:rgb(0,0,97);fill-opacity:1"/><path d="M111.40867462915367,226.91048416368488L108.22022222156251,226.88349475059442L109.28650860179624,231.09482124474422z" style="fill:rgb(0,0,101);fill-opacity:1"/><path d="M118.75458494998631,226.61158430519524L120.43010046808195,230.73148708193904L123.95198292214205,230.36529381392108z" style="fill:rgb(0,0,108);fill-opacity:1"/><path d="M109.66371842812427,236.36391948287442L106.08393884312339,236.54836118859043L111.28377469960745,240.3906386082219z" style="fill:rgb(0,0,90);fill-opacity:1"/><path d="M120.80505368197844,235.88892816210273L118.67206811982831,240.20896234530764L121.77557305674623,240.02459381430816z" style="fill:rgb(0,0,97);fill-opacity:1"/><path d="M196.61461293916167,187.46334157715575L193.42616053157053,187.43635216406528L194.4924469118043,191.64767865821503z" style="fill:rgb(0,0,101);fill-opacity:1"/><path d="M203.96052325999435,187.1644417186661L205.63603877808998,191.28434449540984L209.15792123215007,190.9181512273919z" style="fill:rgb(0,0,108);fill-opacity:1"/><path d="M194.86965673813233,196.91677689634525L191.2898771531314,197.10121860206127L196.48971300961546,200.94349602169277z" style="fill:rgb(0,0,90);fill-opacity:1"/><path d="M206.01099199198646,196.44178557557356L203.87800642983635,200.7618197587785L206.98151136675426,200.57745122777902z" style="fill:rgb(0,0,97);fill-opacity:1"/><path d="M281.8205512491699,225.3945687868458L278.63209884157874,225.36757937375532L279.6983852218124,229.5789058679051z" style="fill:rgb(0,0,101);fill-opacity:1"/><path d="M289.16646157000247,225.09566892835613L290.8419770880982,229.21557170509993L294.36385954215825,228.84937843708198z" style="fill:rgb(0,0,108);fill-opacity:1"/><path d="M280.0755950481405,234.84800410603526L276.4958154631396,235.03244581175127L281.6956513196236,238.87472323138275z" style="fill:rgb(0,0,90);fill-opacity:1"/><path d="M291.21693030199464,234.37301278526357L289.08394473984447,238.69304696846848L292.1874496767625,238.508678437469z" style="fill:rgb(0,0,97);fill-opacity:1"/><path d="M358.5058957281772,170.38357490326678L355.3174433205861,170.3565854901763L356.3837297008197,174.56791198432603z" style="fill:rgb(0,0,101);fill-opacity:1"/><path d="M365.85180604900984,170.0846750447771L367.5273215671055,174.20457782152087L371.04920402116556,173.83838455350292z" style="fill:rgb(0,0,108);fill-opacity:1"/><path d="M356.7609395271478,179.83701022245626L353.1811599421469,180.02145192817227L358.3809957986309,183.86372934780377z" style="fill:rgb(0,0,90);fill-opacity:1"/><path d="M367.902274781002,179.36201890168456L365.76928921885184,183.6820530848895L368.8727941557697,183.49768455389002z" style="fill:rgb(0,0,97);fill-opacity:1"/><path d="M-367.2964810549891,159.1854501331507L-364.60629739044657,162.03174398870203L-361.1702069811678,161.7085538129915zM-316.1729180689842,198.70725951004846L-313.4827344044417,201.55355336559975L-310.0466439951629,201.23036318988923zM-230.9669797589761,131.9866820531119L-228.27679609443368,134.83297590866326L-224.84070568515477,134.50978573295274zM-145.76104144896797,163.38950627462526L-143.07085778442556,166.23580013017659L-139.63476737514668,165.91260995446606zM-60.555103138959915,270.2116521837673L-57.864919474417476,273.0579460393186L-54.42882906513861,272.73475586360814zM16.130241340047363,216.93945039862015L18.820425004589794,219.78574425417156L22.256515413868662,219.46255407846104zM109.85677348105625,239.1135329305576L112.5469571455987,241.95982678610892L115.98304755487756,241.6366366103984zM195.06271179106426,199.66639034402846L197.7528954556067,202.5126841995798L201.18898586488558,202.1894940238693zM280.26865010107247,237.59761755371844L282.95883376561494,240.44391140926984L286.39492417489373,240.12072123355932zM356.9539945800798,182.58662367013946L359.64417824462225,185.4329175256908L363.08026865390104,185.1097273499803z" style="fill:rgb(0,0,155);fill-opacity:1"/><path d="M-359.617644071016,145.18166655904238L-363.0912527797384,145.36316476734254L-356.9695446278487,147.97220843507145zM-308.4940810850111,184.7034759359401L-311.96768979373354,184.88497414424023L-305.84598164184376,187.49401781196923zM-223.288142775003,117.9828984790036L-226.7617514837254,118.16439668730374L-220.64004333183573,120.77344035503265zM-138.0822044649949,149.38572270051694L-141.5558131737173,149.5672209088171L-135.4341050218276,152.176264576546zM-52.876266154986844,256.20786860965904L-56.34987486370923,256.38936681795917L-50.22816671181953,258.998410485688zM23.809078324020437,202.93566682451188L20.33546961529805,203.11716503281204L26.457177767187744,205.72620870054095zM117.53561046502934,225.10974935644933L114.06200175630696,225.29124756474948L120.18370990819662,227.90029123247834zM202.74154877503736,185.66260676992013L199.26794006631496,185.8441049782203L205.38964821820466,188.4531486459492zM287.94748708504557,223.59383397961017L284.4738783763231,223.77533218791032L290.59558652821283,226.38437585563923zM364.6328315640528,168.58284009603116L361.1592228553304,168.76433830433132L367.2809310072202,171.3733819720602z" style="fill:rgb(0,0,175);fill-opacity:1"/><path d="M-367.2137353033854,149.75591047837077L-370.9459728228949,149.84150904703287L-368.06858983997137,154.47216632455738z" style="fill:rgb(0,0,113);fill-opacity:1"/><path d="M-356.8634312390595,149.3920352586934L-356.4004204447343,154.1669724034907L-352.59771435363353,153.8364821868716z" style="fill:rgb(0,0,121);fill-opacity:1"/><path d="M-367.8156111479114,153.07581842690595L-371.67934939596523,153.23006270120467L-367.39490032390256,157.74141671913432z" style="fill:rgb(0,0,109);fill-opacity:1"/><path d="M-356.1733718789674,152.65358010833359L-357.0070694457792,157.4949950264464L-353.3426876142083,157.22462671155958z" style="fill:rgb(0,0,117);fill-opacity:1"/><path d="M-316.0901723173805,189.27771985526851L-319.82240983688996,189.36331842393062L-316.9450268539665,193.99397570145507z" style="fill:rgb(0,0,113);fill-opacity:1"/><path d="M-305.7398682530547,188.91384463559115L-305.27685745872935,193.68878178038838L-301.4741513676287,193.35829156376928z" style="fill:rgb(0,0,121);fill-opacity:1"/><path d="M-316.69204816190654,192.59762780380365L-320.5557864099604,192.75187207810237L-316.27133733789765,197.26322609603207z" style="fill:rgb(0,0,109);fill-opacity:1"/><path d="M-305.04980889296246,192.17538948523128L-305.88350645977437,197.01680440334414L-302.2191246282034,196.74643608845733z" style="fill:rgb(0,0,117);fill-opacity:1"/><path d="M-230.8842340073724,122.55714239833202L-234.61647152688187,122.64274096699411L-231.73908854395845,127.27339824451855z" style="fill:rgb(0,0,113);fill-opacity:1"/><path d="M-220.5339299430466,122.19326717865464L-220.07091914872126,126.96820432345187L-216.26821305762056,126.63771410683277z" style="fill:rgb(0,0,121);fill-opacity:1"/><path d="M-231.48610985189842,125.87705034686715L-235.34984809995225,126.03129462116584L-231.06539902788958,130.54264863909555z" style="fill:rgb(0,0,109);fill-opacity:1"/><path d="M-219.84387058295437,125.45481202829477L-220.67756814976622,130.29622694640761L-217.01318631819535,130.0258586315208z" style="fill:rgb(0,0,117);fill-opacity:1"/><path d="M-145.67829569736432,153.95996661984535L-149.41053321687377,154.04556518850745L-146.53315023395032,158.67622246603193z" style="fill:rgb(0,0,113);fill-opacity:1"/><path d="M-135.3279916330385,153.59609140016798L-134.86498083871317,158.37102854496524L-131.06227474761246,158.04053832834614z" style="fill:rgb(0,0,121);fill-opacity:1"/><path d="M-146.2801715418903,157.2798745683805L-150.14390978994413,157.4341188426792L-145.8594607178815,161.94547286060893z" style="fill:rgb(0,0,109);fill-opacity:1"/><path d="M-134.63793227294627,156.85763624980814L-135.47162983975812,161.69905116792097L-131.80724800818726,161.42868285303416z" style="fill:rgb(0,0,117);fill-opacity:1"/><path d="M-60.472357387356276,260.7821125289874L-64.2045949068657,260.8677110976495L-61.32721192394223,265.4983683751739z" style="fill:rgb(0,0,113);fill-opacity:1"/><path d="M-50.12205332303043,260.41823730931L-49.65904252870507,265.1931744541073L-45.856336437604405,264.86268423748817z" style="fill:rgb(0,0,121);fill-opacity:1"/><path d="M-61.07423323188223,264.10202047752256L-64.93797147993607,264.2562647518212L-60.65352240787343,268.7676187697509z" style="fill:rgb(0,0,109);fill-opacity:1"/><path d="M-49.43199396293818,263.6797821589501L-50.26569152975007,268.521197077063L-46.60130969817918,268.25082876217624z" style="fill:rgb(0,0,117);fill-opacity:1"/><path d="M16.21298709165102,207.5099107438403L12.48074957214158,207.5955093125024L15.358132555065051,212.22616659002688z" style="fill:rgb(0,0,113);fill-opacity:1"/><path d="M26.563291155976852,207.14603552416293L27.0263019503022,211.9209726689602L30.829008041402872,211.5904824523411z" style="fill:rgb(0,0,121);fill-opacity:1"/><path d="M15.611111247125045,210.82981869237545L11.747372999071212,210.98406296667417L16.031822071133867,215.49541698460382z" style="fill:rgb(0,0,109);fill-opacity:1"/><path d="M27.253350516069094,210.40758037380309L26.41965294925721,215.2489952919159L30.0840347808281,214.97862697702908z" style="fill:rgb(0,0,117);fill-opacity:1"/><path d="M109.93951923265989,229.6839932757777L106.20728171315048,229.76959184443982L109.08466469607394,234.40024912196426z" style="fill:rgb(0,0,113);fill-opacity:1"/><path d="M120.28982329698576,229.32011805610034L120.7528340913111,234.09505520089758L124.55554018241175,233.76456498427848z" style="fill:rgb(0,0,121);fill-opacity:1"/><path d="M109.33764338813393,233.00390122431284L105.4739051400801,233.15814549861153L109.75835421214275,237.6694995165413z" style="fill:rgb(0,0,109);fill-opacity:1"/><path d="M120.979882657078,232.58166290574047L120.14618509026612,237.42307782385333L123.810566921837,237.15270950896652z" style="fill:rgb(0,0,117);fill-opacity:1"/><path d="M195.14545754266797,190.2368506892485L191.41322002315852,190.32244925791062L194.29060300608194,194.95310653543513z" style="fill:rgb(0,0,113);fill-opacity:1"/><path d="M205.4957616069938,189.87297546957114L205.9587724013191,194.64791261436844L209.76147849241983,194.31742239774934z" style="fill:rgb(0,0,121);fill-opacity:1"/><path d="M194.54358169814194,193.5567586377837L190.67984345008813,193.71100291208242L194.96429252215083,198.2223569300121z" style="fill:rgb(0,0,109);fill-opacity:1"/><path d="M206.185820967086,193.13452031921133L205.35212340027417,197.97593523732417L209.01650523184503,197.70556692243736z" style="fill:rgb(0,0,117);fill-opacity:1"/><path d="M280.3513958526761,228.1680778989386L276.61915833316664,228.2536764676007L279.49654131609014,232.88433374512516z" style="fill:rgb(0,0,113);fill-opacity:1"/><path d="M290.701699917002,227.80420267926124L291.16471071132736,232.57913982405847L294.967416802428,232.24864960743938z" style="fill:rgb(0,0,121);fill-opacity:1"/><path d="M279.7495200081501,231.48798584747374L275.88578176009634,231.64223012177243L280.17023083215895,236.15358413970213z" style="fill:rgb(0,0,109);fill-opacity:1"/><path d="M291.39175927709425,231.06574752890137L290.5580617102823,235.90716244701417L294.22244354185324,235.63679413212736z" style="fill:rgb(0,0,117);fill-opacity:1"/><path d="M357.0367403316834,173.15708401535954L353.30450281217395,173.24268258402165L356.1818857950975,177.87333986154613z" style="fill:rgb(0,0,113);fill-opacity:1"/><path d="M367.3870443960093,172.79320879568218L367.8500551903346,177.56814594047944L371.6527612814353,177.23765572386034z" style="fill:rgb(0,0,121);fill-opacity:1"/><path d="M356.43486448715754,176.4769919638947L352.5711262391036,176.6312362381934L356.8555753111662,181.14259025612313z" style="fill:rgb(0,0,109);fill-opacity:1"/><path d="M368.0771037561015,176.05475364532234L367.2434061892896,180.89616856343517L370.90778802086055,180.62580024854836z" style="fill:rgb(0,0,117);fill-opacity:1"/><path d="M-361.6060776081483,145.04472267509485L-365.39419029556757,145.2687503393271L-361.7272148107319,148.20356674703442z" style="fill:rgb(0,0,173);fill-opacity:1"/><path d="M-362.5151813399314,158.90630685033128L-362.6143067109783,162.20721940015528L-358.89445613984896,161.8122216843577z" style="fill:rgb(0,0,157);fill-opacity:1"/><path d="M-310.48251462214347,184.56653205199257L-314.2706273095627,184.79055971622483L-310.603651824727,187.72537612393216z" style="fill:rgb(0,0,173);fill-opacity:1"/><path d="M-311.39161835392656,198.42811622722903L-311.49074372497347,201.729028777053L-307.77089315384404,201.33403106125542z" style="fill:rgb(0,0,157);fill-opacity:1"/><path d="M-225.27657631213532,117.84595459505607L-229.06468899955465,118.06998225928834L-225.39771351471893,121.00479866699557z" style="fill:rgb(0,0,173);fill-opacity:1"/><path d="M-226.18568004391844,131.70753877029247L-226.28480541496535,135.0084513201165L-222.56495484383595,134.61345360431892z" style="fill:rgb(0,0,157);fill-opacity:1"/><path d="M-140.07063800212723,149.2487788165694L-143.85875068954653,149.47280648080167L-140.19177520471084,152.40762288850897z" style="fill:rgb(0,0,173);fill-opacity:1"/><path d="M-140.97974173391034,163.11036299180583L-141.07886710495725,166.41127554162983L-137.35901653382786,166.01627782583225z" style="fill:rgb(0,0,157);fill-opacity:1"/><path d="M-54.86469969211915,256.0709247257115L-58.65281237953845,256.2949523899438L-54.98583689470276,259.22976879765093z" style="fill:rgb(0,0,173);fill-opacity:1"/><path d="M-55.77380342390229,269.9325089009479L-55.872928794949175,273.2334214507719L-52.15307822381978,272.83842373497424z" style="fill:rgb(0,0,157);fill-opacity:1"/><path d="M21.82064478688812,202.79872294056435L18.032532099468824,203.0227506047966L21.69950758430452,205.95756701250392z" style="fill:rgb(0,0,173);fill-opacity:1"/><path d="M20.911541055104998,216.66030711580072L20.812415684058102,219.9612196656248L24.532266255187487,219.56622194982722z" style="fill:rgb(0,0,157);fill-opacity:1"/><path d="M115.54717692789703,224.9728054725018L111.7590642404777,225.19683313673406L115.42603972531343,228.1316495444413z" style="fill:rgb(0,0,173);fill-opacity:1"/><path d="M114.6380731961139,238.83438964773816L114.53894782506701,242.13530219756217L118.25879839619638,241.74030448176458z" style="fill:rgb(0,0,157);fill-opacity:1"/><path d="M200.75311523790504,185.5256628859726L196.96500255048574,185.74969055020486L200.63197803532142,188.68450695791216z" style="fill:rgb(0,0,173);fill-opacity:1"/><path d="M199.84401150612192,199.38724706120902L199.744886135075,202.68815961103306L203.4647367062044,202.29316189523547z" style="fill:rgb(0,0,157);fill-opacity:1"/><path d="M285.9590535479132,223.45689009566263L282.17094086049394,223.6809177598949L285.83791634532963,226.6157341676022z" style="fill:rgb(0,0,173);fill-opacity:1"/><path d="M285.0499498161301,237.318474270899L284.9508244450832,240.6193868207231L288.6706750162126,240.2243891049255z" style="fill:rgb(0,0,157);fill-opacity:1"/><path d="M362.6443980269205,168.44589621208362L358.85628533950126,168.6699238763159L362.52326082433694,171.60474028402317z" style="fill:rgb(0,0,173);fill-opacity:1"/><path d="M361.7352942951374,182.30748038732003L361.6361689240905,185.60839293714406L365.35601949521987,185.21339522134647z" style="fill:rgb(0,0,157);fill-opacity:1"/><path d="M-364.48876677722825,144.87042666058088L-367.332831513914,147.80810433536567L-361.2513871354612,147.72248224716716z" style="fill:rgb(0,0,173);fill-opacity:1"/><path d="M-356.93317793943606,159.35885315790387L-363.04242103372303,159.4436619032373L-359.702842505444,162.23925939204577z" style="fill:rgb(0,0,157);fill-opacity:1"/><path d="M-313.3652037912234,184.3922360374786L-316.2092685279091,187.32991371226342L-310.12782414945633,187.2442916240649z" style="fill:rgb(0,0,173);fill-opacity:1"/><path d="M-305.80961495343115,198.88066253480162L-311.9188580477182,198.96547128013506L-308.57927951943907,201.7610687689435z" style="fill:rgb(0,0,157);fill-opacity:1"/><path d="M-228.15926548121536,117.6716585805421L-231.00333021790095,120.60933625532685L-224.92188583944824,120.52371416712833z" style="fill:rgb(0,0,173);fill-opacity:1"/><path d="M-220.60367664342309,132.16008507786506L-226.71291973771005,132.2448938231985L-223.37334120943098,135.040491312007z" style="fill:rgb(0,0,157);fill-opacity:1"/><path d="M-142.95332717120723,149.07448280205543L-145.79739190789283,152.01216047684022L-139.71594752944014,151.92653838864172z" style="fill:rgb(0,0,173);fill-opacity:1"/><path d="M-135.39773833341496,163.56290929937842L-141.50698142770196,163.64771804471187L-138.16740289942288,166.44331553352032z" style="fill:rgb(0,0,157);fill-opacity:1"/><path d="M-57.747388861199134,255.89662871119756L-60.5914535978848,258.8343063859822L-54.510009219432064,258.74868429778377z" style="fill:rgb(0,0,173);fill-opacity:1"/><path d="M-50.19180002340691,270.38505520852044L-56.301043117693894,270.4698639538539L-52.9614645894148,273.26546144266234z" style="fill:rgb(0,0,157);fill-opacity:1"/><path d="M18.937955617808136,202.62442692605038L16.093890881122473,205.56210460083517L22.175335259575213,205.47648251263666z" style="fill:rgb(0,0,173);fill-opacity:1"/><path d="M26.493544455600365,217.1128534233733L20.38430136131339,217.19766216870676L23.723879889592475,219.9932596575153z" style="fill:rgb(0,0,157);fill-opacity:1"/><path d="M112.66448775881702,224.79850945798785L109.82042302213137,227.73618713277256L115.90186740058412,227.65056504457402z" style="fill:rgb(0,0,173);fill-opacity:1"/><path d="M120.22007659660926,239.28693595531075L114.1108335023223,239.3717447006442L117.45041203060137,242.16734218945265z" style="fill:rgb(0,0,157);fill-opacity:1"/><path d="M197.87042606882503,185.35136687145862L195.0263613321394,188.28904454624342L201.10780571059212,188.2034224580449z" style="fill:rgb(0,0,173);fill-opacity:1"/><path d="M205.4260149066173,199.8397933687816L199.3167718123303,199.92460211411506L202.65635034060938,202.72019960292354z" style="fill:rgb(0,0,157);fill-opacity:1"/><path d="M283.07636437883326,223.28259408114866L280.23229964214755,226.22027175593345L286.3137440206003,226.13464966773495z" style="fill:rgb(0,0,173);fill-opacity:1"/><path d="M290.63195321662545,237.7710205784716L284.5227101223385,237.85582932380504L287.8622886506176,240.65142681261358z" style="fill:rgb(0,0,157);fill-opacity:1"/><path d="M359.7617088578406,168.27160019756965L356.91764412115486,171.20927787235442L362.99908849960764,171.12365578415591z" style="fill:rgb(0,0,173);fill-opacity:1"/><path d="M367.3172976956328,182.76002669489262L361.2080546013458,182.84483544022606L364.54763312962484,185.64043292903455z" style="fill:rgb(0,0,157);fill-opacity:1"/><path d="M-362.57590665962357,144.8277969015539L-362.6219605367694,147.98548256252187L-356.83234354405465,147.58773377903793z" style="fill:rgb(0,0,175);fill-opacity:1"/><path d="M-361.6170107627702,159.21933467952178L-367.4367554918941,159.53807633125274L-361.66744991009466,162.28436344241243z" style="fill:rgb(0,0,155);fill-opacity:1"/><path d="M-311.4523436736187,184.34960627845163L-311.49839755076454,187.50729193941962L-305.70878055804974,187.10954315593568z" style="fill:rgb(0,0,175);fill-opacity:1"/><path d="M-310.4934477767653,198.74114405641953L-316.31319250588916,199.0598857081505L-310.5438869240898,201.80617281931015z" style="fill:rgb(0,0,155);fill-opacity:1"/><path d="M-226.24640536361062,117.6290288215151L-226.2924592407564,120.78671448248303L-220.50284224804167,120.38896569899914z" style="fill:rgb(0,0,175);fill-opacity:1"/><path d="M-225.28750946675723,132.02056659948298L-231.10725419588104,132.33930825121394L-225.33794861408168,135.08559536237365z" style="fill:rgb(0,0,155);fill-opacity:1"/><path d="M-141.04046705360253,149.03185304302846L-141.0865209307483,152.18953870399642L-135.29690393803355,151.79178992051249z" style="fill:rgb(0,0,175);fill-opacity:1"/><path d="M-140.08157115674913,163.42339082099633L-145.90131588587292,163.7421324727273L-140.1320103040736,166.48841958388698z" style="fill:rgb(0,0,155);fill-opacity:1"/><path d="M-55.83452874359444,255.85399895217054L-55.88058262074023,259.0116846131384L-50.0909656280255,258.61393582965457z" style="fill:rgb(0,0,175);fill-opacity:1"/><path d="M-54.875632846741055,270.2455367301383L-60.69537757586486,270.5642783818693L-54.92607199406552,273.31056549302906z" style="fill:rgb(0,0,155);fill-opacity:1"/><path d="M20.850815735412834,202.5817971670234L20.804761858267046,205.73948282799137L26.59437885098179,205.34173404450743z" style="fill:rgb(0,0,175);fill-opacity:1"/><path d="M21.80971163226622,216.97333494499122L15.989966903142408,217.29207659672215L21.759272484941754,220.03836370788198z" style="fill:rgb(0,0,155);fill-opacity:1"/><path d="M114.57734787642174,224.75587969896085L114.53129399927595,227.91356535992875L120.32091099199067,227.51581657644482z" style="fill:rgb(0,0,175);fill-opacity:1"/><path d="M115.53624377327513,239.14741747692867L109.7164990441513,239.46615912865963L115.48580462595065,242.21244623981931z" style="fill:rgb(0,0,155);fill-opacity:1"/><path d="M199.78328618642973,185.30873711243166L199.73723230928397,188.46642277339961L205.5268493019987,188.06867398991568z" style="fill:rgb(0,0,175);fill-opacity:1"/><path d="M200.74218208328313,199.70027489039953L194.9224373541593,200.0190165421305L200.69174293595867,202.7653036532902z" style="fill:rgb(0,0,155);fill-opacity:1"/><path d="M284.98922449643794,223.2399643221217L284.9431706192921,226.39764998308965L290.73278761200686,225.99990119960572z" style="fill:rgb(0,0,175);fill-opacity:1"/><path d="M285.94812039329133,237.6315021000895L280.1283756641675,237.95024375182044L285.89768124596685,240.69653086298027z" style="fill:rgb(0,0,155);fill-opacity:1"/><path d="M361.67456897544525,168.2289704385427L361.62851509829943,171.38665609951062L367.41813209101423,170.98890731602668z" style="fill:rgb(0,0,175);fill-opacity:1"/><path d="M362.63346487229865,182.62050821651053L356.8137201431748,182.9392498682415L362.58302572497416,185.6855369794012z" style="fill:rgb(0,0,155);fill-opacity:1"/><path d="M-362.6252331881276,23.115101889981158L-362.2877428860892,41.97211960538332L-355.3172683372601,23.14654982519113z" style="fill:rgb(253,0,0);fill-opacity:1"/><path d="M-368.9373683989759,23.148114016547424L-361.95390370903425,41.97064707315718L-361.62991038571954,23.115010230850995z" style="fill:rgb(250,0,0);fill-opacity:1"/><path d="M-311.50167020212274,-137.47201380812695L-311.1641799000843,-118.6149960927248L-304.1937053512552,-137.44056587291698z" style="fill:rgb(253,0,0);fill-opacity:1"/><path d="M-317.813805412971,-137.43900168156068L-310.8303407230294,-118.61646862495094L-310.5063473997147,-137.47210546725714z" style="fill:rgb(250,0,0);fill-opacity:1"/><path d="M-226.2957318921146,-186.87608680348288L-225.95824159007617,-168.01906908808076L-218.9877670412471,-186.8446388682729z" style="fill:rgb(253,0,0);fill-opacity:1"/><path d="M-232.60786710296287,-186.84307467691661L-225.62440241302133,-168.02054162030686L-225.30040908970656,-186.87617846261307z" style="fill:rgb(250,0,0);fill-opacity:1"/><path d="M-141.0897935821065,-232.55271897571907L-140.75230328006808,-213.69570126031698L-133.78182873123902,-232.5212710405091z" style="fill:rgb(253,0,0);fill-opacity:1"/><path d="M-147.40192879295475,-232.5197068491528L-140.41846410301324,-213.69717379254308L-140.09447077969847,-232.55281063484927z" style="fill:rgb(250,0,0);fill-opacity:1"/><path d="M-55.88385527209842,-237.331516556279L-55.546364970060004,-218.47449884087686L-48.57589042123095,-237.30006862106904z" style="fill:rgb(253,0,0);fill-opacity:1"/><path d="M-62.1959904829467,-237.29850442971275L-55.21252579300515,-218.47597137310296L-54.88853246969039,-237.3316082154092z" style="fill:rgb(250,0,0);fill-opacity:1"/><path d="M20.801489206908855,-273.79315702497445L21.13897950894727,-254.9361393095723L28.109454057776333,-273.7617090897645z" style="fill:rgb(253,0,0);fill-opacity:1"/><path d="M14.489353996060583,-273.7601448984082L21.47281868600213,-254.9376118417984L21.796812009316884,-273.7932486841046z" style="fill:rgb(250,0,0);fill-opacity:1"/><path d="M114.52802134791776,49.78857368762051L114.86551164995618,68.64559140302266L121.83598619878522,49.82002162283048z" style="fill:rgb(253,0,0);fill-opacity:1"/><path d="M108.21588613706946,49.821585814186776L115.19935082701105,68.64411887079652L115.52334415032578,49.78848202849036z" style="fill:rgb(250,0,0);fill-opacity:1"/><path d="M199.73395965792577,119.88689182264469L200.07144995996418,138.74390953804684L207.04192450879324,119.91833975785467z" style="fill:rgb(253,0,0);fill-opacity:1"/><path d="M193.4218244470775,119.91990394921096L200.40528913701903,138.74243700582073L200.7292824603338,119.88680016351454z" style="fill:rgb(250,0,0);fill-opacity:1"/><path d="M284.9398979679339,96.19446652121955L285.27738826997233,115.05148423662173L292.24786281880154,96.22591445642954z" style="fill:rgb(253,0,0);fill-opacity:1"/><path d="M278.62776275708563,96.22747864778583L285.61122744702726,115.05001170439559L285.93522077034197,96.1943748620894z" style="fill:rgb(250,0,0);fill-opacity:1"/><path d="M361.62524244694123,134.831733081899L361.96273274897965,153.68875079730114L368.9332072978088,134.86318101710896z" style="fill:rgb(253,0,0);fill-opacity:1"/><path d="M355.313107236093,134.86474520846525L362.2965719260346,153.68727826507504L362.6205652493493,134.8316414227688z" style="fill:rgb(250,0,0);fill-opacity:1"/><path d="M-357.47536797355883,146.96819003695003L-363.0801006481396,147.22072398217423L-355.79706916901097,150.91563774767855z" style="fill:rgb(0,0,247);fill-opacity:1"/><path d="M-368.4630723308976,156.22272314377054L-366.75417828897764,160.2257289114637L-361.1816384946219,159.88978387426357z" style="fill:rgb(0,0,233);fill-opacity:1"/><path d="M-306.3518049875539,186.48999941384778L-311.95653766213474,186.74253335907198L-304.6735061830061,190.4374471245763z" style="fill:rgb(0,0,247);fill-opacity:1"/><path d="M-317.3395093448927,195.7445325206683L-315.6306153029727,199.74753828836145L-310.05807550861704,199.41159325116132z" style="fill:rgb(0,0,233);fill-opacity:1"/><path d="M-221.14586667754583,119.76942195691122L-226.7505993521266,120.02195590213542L-219.46756787299805,123.71686966763978z" style="fill:rgb(0,0,247);fill-opacity:1"/><path d="M-232.13357103488457,129.02395506373176L-230.4246769929647,133.0269608314249L-224.8521371986089,132.69101579422477z" style="fill:rgb(0,0,233);fill-opacity:1"/><path d="M-135.9399283675377,151.1722461784246L-141.54466104211852,151.4247801236488L-134.26162956298995,155.11969388915313z" style="fill:rgb(0,0,247);fill-opacity:1"/><path d="M-146.92763272487647,160.42677928524512L-145.21873868295657,164.42978505293826L-139.6461988886008,164.09384001573812z" style="fill:rgb(0,0,233);fill-opacity:1"/><path d="M-50.733990057529645,257.9943920875666L-56.338722732110455,258.2469260327908L-49.05569125298187,261.9418397982952z" style="fill:rgb(0,0,247);fill-opacity:1"/><path d="M-61.72169441486844,267.2489251943872L-60.0128003729485,271.2519309620803L-54.440260578592714,270.9159859248801z" style="fill:rgb(0,0,233);fill-opacity:1"/><path d="M25.951354421477635,204.72219030241953L20.346621746896822,204.97472424764373L27.629653226025408,208.66963801314807z" style="fill:rgb(0,0,247);fill-opacity:1"/><path d="M14.963650064138857,213.97672340924004L16.672544106058773,217.97972917693315L22.24508390041456,217.64378413973301z" style="fill:rgb(0,0,233);fill-opacity:1"/><path d="M119.67788656248652,226.89627283435692L114.07315388790573,227.14880677958112L121.3561853670343,230.8437205450855z" style="fill:rgb(0,0,247);fill-opacity:1"/><path d="M108.69018220514774,236.15080594117748L110.39907624706767,240.1538117088706L115.97161604142346,239.81786667167046z" style="fill:rgb(0,0,233);fill-opacity:1"/><path d="M204.88382487249456,187.44913024782778L199.27909219791374,187.70166419305198L206.56212367704234,191.3965779585563z" style="fill:rgb(0,0,247);fill-opacity:1"/><path d="M193.89612051515581,196.7036633546483L195.60501455707566,200.70666912234145L201.17755435143147,200.37072408514132z" style="fill:rgb(0,0,233);fill-opacity:1"/><path d="M290.0897631825027,225.38035745751782L284.4850305079219,225.63289140274202L291.76806198705054,229.32780516824639z" style="fill:rgb(0,0,247);fill-opacity:1"/><path d="M279.1020588251639,234.63489056433832L280.8109528670839,238.63789633203143L286.3834926614396,238.3019512948313z" style="fill:rgb(0,0,233);fill-opacity:1"/><path d="M366.77510766151005,170.36936357393878L361.17037498692923,170.62189751916299L368.45340646605786,174.31681128466732z" style="fill:rgb(0,0,247);fill-opacity:1"/><path d="M355.7874033041712,179.62389668075932L357.49629734609124,183.62690244845246L363.06883714044693,183.29095741125232z" style="fill:rgb(0,0,233);fill-opacity:1"/><path d="M-366.66708951183983,146.68998805663003L-368.5150411770065,150.73823057862108L-361.2167584256508,150.49589817358347z" style="fill:rgb(0,0,244);fill-opacity:1"/><path d="M-355.74016201719195,156.44474694239366L-363.0573978950239,156.64823094135338L-357.55497787849356,160.42569300371895z" style="fill:rgb(0,0,236);fill-opacity:1"/><path d="M-315.5435265258349,186.21179743352778L-317.39147819100157,190.26003995551883L-310.09319543964597,190.01770755048122z" style="fill:rgb(0,0,244);fill-opacity:1"/><path d="M-304.61659903118715,195.9665563192914L-311.933834909019,196.17004031825113L-306.4314148924886,199.9475023806167z" style="fill:rgb(0,0,236);fill-opacity:1"/><path d="M-230.33758821582686,119.49121997659122L-232.18553988099345,123.53946249858231L-224.88725712963785,123.29713009354471z" style="fill:rgb(0,0,244);fill-opacity:1"/><path d="M-219.41066072117903,129.2459788623549L-226.7278965990109,129.4494628613146L-221.22547658248055,133.22692492368014z" style="fill:rgb(0,0,236);fill-opacity:1"/><path d="M-145.13164990581873,150.89404419810458L-146.97960157098535,154.94228672009567L-139.68131881962975,154.69995431505805z" style="fill:rgb(0,0,244);fill-opacity:1"/><path d="M-134.20472241117093,160.64880308386824L-141.5219582890028,160.85228708282798L-136.01953827247243,164.62974914519347z" style="fill:rgb(0,0,236);fill-opacity:1"/><path d="M-59.92571159581066,257.71619010724663L-61.773663260977315,261.76443262923766L-54.47538050962167,261.5221002242001z" style="fill:rgb(0,0,244);fill-opacity:1"/><path d="M-48.99878410116286,267.47094899301027L-56.31601997899474,267.67443299197L-50.81359996246437,271.4518950543355z" style="fill:rgb(0,0,236);fill-opacity:1"/><path d="M16.759632883196605,204.44398832209953L14.911681218029978,208.4922308440906L22.209963969385605,208.249898439053z" style="fill:rgb(0,0,244);fill-opacity:1"/><path d="M27.68656037784442,214.19874720786316L20.369324500012535,214.4022312068229L25.87174451654291,218.17969326918836z" style="fill:rgb(0,0,236);fill-opacity:1"/><path d="M110.4861650242055,226.61807085403692L108.63821335903884,230.66631337602803L115.93649611039451,230.4239809709904z" style="fill:rgb(0,0,244);fill-opacity:1"/><path d="M121.41309251885333,236.3728297398006L114.09585664102144,236.57631373876035L119.59827665755178,240.3537758011258z" style="fill:rgb(0,0,236);fill-opacity:1"/><path d="M195.6921033342135,187.17092826750778L193.84415166904694,191.21917078949883L201.1424344204025,190.97683838446122z" style="fill:rgb(0,0,244);fill-opacity:1"/><path d="M206.61903082886136,196.92568715327144L199.30179495102945,197.12917115223118L204.80421496755983,200.90663321459667z" style="fill:rgb(0,0,236);fill-opacity:1"/><path d="M280.89804164422173,225.1021554771978L279.05008997905503,229.15039799918893L286.3483727304107,228.9080655941513z" style="fill:rgb(0,0,244);fill-opacity:1"/><path d="M291.82496913886956,234.85691436296145L284.50773326103763,235.0603983619212L290.01015327756795,238.83786042428665z" style="fill:rgb(0,0,236);fill-opacity:1"/><path d="M357.58338612322905,170.09116159361878L355.73543445806234,174.13940411560986L363.033717209418,173.89707171057225z" style="fill:rgb(0,0,244);fill-opacity:1"/><path d="M368.5103136178769,179.84592047938244L361.19307774004494,180.04940447834218L366.6954977565753,183.82686654070767z" style="fill:rgb(0,0,236);fill-opacity:1"/><path d="M-361.6141953915808,146.92845085829978L-367.40290060717956,147.17685790113237L-361.7041201659986,150.99924300737067z" style="fill:rgb(0,0,244);fill-opacity:1"/><path d="M-362.5399038688493,156.12032395026256L-362.6219605367694,160.27642064477473L-356.8683463348289,159.94149133446052z" style="fill:rgb(0,0,236);fill-opacity:1"/><path d="M-310.4906324055759,186.45026023519753L-316.27933762117465,186.69866727803011L-310.5805571799937,190.52105238426842z" style="fill:rgb(0,0,244);fill-opacity:1"/><path d="M-311.41634088284445,195.6421333271603L-311.49839755076454,199.79823002167248L-305.744783348824,199.46330071135827z" style="fill:rgb(0,0,236);fill-opacity:1"/><path d="M-225.28469409556777,119.72968277826095L-231.07339931116655,119.97808982109353L-225.37461886998562,123.80047492733193z" style="fill:rgb(0,0,244);fill-opacity:1"/><path d="M-226.21040257283633,128.92155587022378L-226.2924592407564,133.07765256473593L-220.53884503881596,132.74272325442172z" style="fill:rgb(0,0,236);fill-opacity:1"/><path d="M-140.07875578555968,151.13250699977434L-145.86746100115843,151.3809140426069L-140.16868055997753,155.20329914884528z" style="fill:rgb(0,0,244);fill-opacity:1"/><path d="M-141.00446426282824,160.32438009173714L-141.0865209307483,164.48047678624928L-135.33290672880784,164.14554747593507z" style="fill:rgb(0,0,236);fill-opacity:1"/><path d="M-54.872817475551614,257.95465290891633L-60.661522691150374,258.2030599517489L-54.96274224996945,262.0254450579873z" style="fill:rgb(0,0,244);fill-opacity:1"/><path d="M-55.79852595282018,267.14652600087913L-55.88058262074023,271.3026226953913L-50.12696841879976,270.96769338507715z" style="fill:rgb(0,0,236);fill-opacity:1"/><path d="M21.812527003455664,204.68245112376928L16.023821787856892,204.93085816660184L21.72260222903783,208.75324327284022z" style="fill:rgb(0,0,244);fill-opacity:1"/><path d="M20.8868185261871,213.87432421573206L20.804761858267046,218.03042091024417L26.558376060207525,217.69549159992997z" style="fill:rgb(0,0,236);fill-opacity:1"/><path d="M115.53905914446457,226.85653365570667L109.75035392886579,227.10494069853922L115.44913437004672,230.92732580477764z" style="fill:rgb(0,0,244);fill-opacity:1"/><path d="M114.613350667196,236.0484067476695L114.53129399927595,240.20450344218162L120.28490820121641,239.8695741318674z" style="fill:rgb(0,0,236);fill-opacity:1"/><path d="M200.74499745447258,187.40939106917753L194.9562922388738,187.6577981120101L200.65507268005473,191.4801832182484z" style="fill:rgb(0,0,244);fill-opacity:1"/><path d="M199.81928897720402,196.60126416114034L199.73723230928397,200.75736085565248L205.49084651122442,200.42243154533827z" style="fill:rgb(0,0,236);fill-opacity:1"/><path d="M285.95093576448073,225.34061827886757L280.162230548882,225.58902532170012L285.86101099006294,229.41141042793853z" style="fill:rgb(0,0,244);fill-opacity:1"/><path d="M285.0252272872122,234.53249137083034L284.9431706192921,238.68858806534246L290.6967848212326,238.35365875502825z" style="fill:rgb(0,0,236);fill-opacity:1"/><path d="M362.63628024348805,170.32962439528853L356.8475750278893,170.5780314381211L362.54635546907025,174.40041654435947z" style="fill:rgb(0,0,244);fill-opacity:1"/><path d="M361.7105717662195,179.52149748725134L361.62851509829943,183.67759418176348L367.38212930023997,183.34266487144927z" style="fill:rgb(0,0,236);fill-opacity:1"/><path d="M-362.5669485523879,146.69403928681552L-362.6233101943515,150.79175631971603L-355.5077817561256,150.43832120230303z" style="fill:rgb(0,0,247);fill-opacity:1"/><path d="M-356.0056149277001,149.7512751925428L-363.0723660794614,150.024116566744L-355.47459045457714,154.2941940906742z" style="fill:rgb(0,0,281);fill-opacity:1"/><path d="M-368.77611040402707,152.83349664347972L-368.2313326814824,157.438801719986L-361.1914123579584,157.10090348287383z" style="fill:rgb(0,0,274);fill-opacity:1"/><path d="M-361.6177833050577,156.39975752132267L-368.7577735978778,156.69209702239527L-361.67782949940596,160.42681634374804z" style="fill:rgb(0,0,233);fill-opacity:1"/><path d="M-311.44338556638303,186.21584866371327L-311.49974720834666,190.31356569661378L-304.38421877012075,189.96013057920078z" style="fill:rgb(0,0,247);fill-opacity:1"/><path d="M-304.88205194169524,189.27308456944056L-311.94880309345655,189.54592594364175L-304.3510274685722,193.8160034675719z" style="fill:rgb(0,0,281);fill-opacity:1"/><path d="M-317.6525474180222,192.3553060203774L-317.1077696954775,196.96061109688375L-310.06784937195357,196.62271285977158z" style="fill:rgb(0,0,274);fill-opacity:1"/><path d="M-310.49422031905283,195.92156689822042L-317.6342106118729,196.21390639929302L-310.5542665134011,199.9486257206458z" style="fill:rgb(0,0,233);fill-opacity:1"/><path d="M-226.2374472563749,119.4952712067767L-226.2938088983385,123.59298823967728L-219.1782804601127,123.23955312226425z" style="fill:rgb(0,0,247);fill-opacity:1"/><path d="M-219.67611363168714,122.55250711250405L-226.74286478344843,122.82534848670524L-219.1450891585641,127.09542601063539z" style="fill:rgb(0,0,281);fill-opacity:1"/><path d="M-232.4466091080141,125.63472856344089L-231.90183138546942,130.24003363994723L-224.86191106194545,129.90213540283506z" style="fill:rgb(0,0,274);fill-opacity:1"/><path d="M-225.2882820090447,129.2009894412839L-232.4282723018648,129.4933289423565L-225.34832820339298,133.22804826370924z" style="fill:rgb(0,0,233);fill-opacity:1"/><path d="M-141.0315089463668,150.89809542829008L-141.08787058833042,154.9958124611906L-133.9723421501046,154.6423773437776z" style="fill:rgb(0,0,247);fill-opacity:1"/><path d="M-134.47017532167905,153.9553313340174L-141.53692647344033,154.22817270821858L-133.939150848556,158.49825023214876z" style="fill:rgb(0,0,281);fill-opacity:1"/><path d="M-147.24067079800594,157.03755278495427L-146.69589307546136,161.64285786146058L-139.65597275193736,161.3049596243484z" style="fill:rgb(0,0,274);fill-opacity:1"/><path d="M-140.0823436990366,160.60381366279725L-147.22233399185671,160.89615316386985L-140.1423898933849,164.6308724852226z" style="fill:rgb(0,0,233);fill-opacity:1"/><path d="M-55.82557063635875,257.7202413374321L-55.88193227832236,261.81795837033263L-48.7664038400965,261.4645232529196z" style="fill:rgb(0,0,247);fill-opacity:1"/><path d="M-49.264237011670964,260.7774772431594L-56.33098816343225,261.0503186173606L-48.73321253854797,265.3203961412908z" style="fill:rgb(0,0,281);fill-opacity:1"/><path d="M-62.03473248799787,263.85969869409627L-61.48995476545328,268.4650037706026L-54.4500344419293,268.12710553349046z" style="fill:rgb(0,0,274);fill-opacity:1"/><path d="M-54.876405389028534,267.42595957193925L-62.016395681848664,267.71829907301185L-54.936451583376815,271.4530183943647z" style="fill:rgb(0,0,233);fill-opacity:1"/><path d="M20.859773842648526,204.44803955228502L20.803412200684917,208.54575658518556L27.91894063891078,208.19232146777256z" style="fill:rgb(0,0,247);fill-opacity:1"/><path d="M27.42110746733631,207.50527545801233L20.354356315575025,207.77811683221353L27.952131940459317,212.0481943561437z" style="fill:rgb(0,0,281);fill-opacity:1"/><path d="M14.6506119910094,210.58749690894922L15.195389713554016,215.1928019854555L22.235310037077983,214.85490374834333z" style="fill:rgb(0,0,274);fill-opacity:1"/><path d="M21.808939089978743,214.15375778679217L14.668948797158626,214.44609728786477L21.748892895630462,218.1808166092175z" style="fill:rgb(0,0,233);fill-opacity:1"/><path d="M114.58630598365743,226.6221220842224L114.52994434169382,230.71983911712297L121.64547277991969,230.36640399970997z" style="fill:rgb(0,0,247);fill-opacity:1"/><path d="M121.14763960834522,229.67935798994975L114.08088845658392,229.95219936415094L121.67866408146821,234.2222768880811z" style="fill:rgb(0,0,281);fill-opacity:1"/><path d="M108.37714413201829,232.7615794408866L108.9219218545629,237.36688451739295L115.96184217808688,237.02898628028078z" style="fill:rgb(0,0,274);fill-opacity:1"/><path d="M115.53547123098765,236.3278403187296L108.39548093816751,236.62017981980222L115.47542503663935,240.35489914115493z" style="fill:rgb(0,0,233);fill-opacity:1"/><path d="M199.79224429366545,187.17497949769327L199.73588265170184,191.27269653059378L206.8514110899277,190.91926141318078z" style="fill:rgb(0,0,247);fill-opacity:1"/><path d="M206.35357791835327,190.23221540342055L199.28682676659193,190.50505677762175L206.88460239147622,194.77513430155196z" style="fill:rgb(0,0,281);fill-opacity:1"/><path d="M193.5830824420263,193.31443685435747L194.12786016457096,197.91974193086378L201.1677804880949,197.5818436937516z" style="fill:rgb(0,0,274);fill-opacity:1"/><path d="M200.74140954099565,196.88069773220045L193.60141924817557,197.17303723327305L200.68136334664737,200.9077565546258z" style="fill:rgb(0,0,233);fill-opacity:1"/><path d="M284.9981826036736,225.1062067073833L284.94182096171,229.20392374028387L292.0573493999359,228.85048862287087z" style="fill:rgb(0,0,247);fill-opacity:1"/><path d="M291.5595162283614,228.16344261311065L284.4927650766001,228.43628398731184L292.0905407014845,232.706361511242z" style="fill:rgb(0,0,281);fill-opacity:1"/><path d="M278.78902075203445,231.2456640640475L279.3337984745791,235.8509691405538L286.3737187981031,235.51307090344162z" style="fill:rgb(0,0,274);fill-opacity:1"/><path d="M285.9473478510038,234.81192494189045L278.8073575581837,235.10426444296306L285.88730165665555,238.83898376431577z" style="fill:rgb(0,0,233);fill-opacity:1"/><path d="M361.68352708268094,170.09521282380427L361.6271654407173,174.1929298567048L368.7426938789432,173.8394947392918z" style="fill:rgb(0,0,247);fill-opacity:1"/><path d="M368.24486070736873,173.15244872953159L361.1781095556074,173.42529010373278L368.77588518049174,177.69536762766296z" style="fill:rgb(0,0,281);fill-opacity:1"/><path d="M355.4743652310419,176.23467018046844L356.01914295358637,180.83997525697478L363.0590632771104,180.50207701986264z" style="fill:rgb(0,0,274);fill-opacity:1"/><path d="M362.63269233001114,179.80093105831145L355.492702037191,180.09327055938405L362.57264613566286,183.8279898807368z" style="fill:rgb(0,0,233);fill-opacity:1"/><path d="M-368.1583671907766,149.48953292492303L-368.8387684218776,154.1086310502935L-361.2017198308137,153.79732587383916z" style="fill:rgb(0,0,278);fill-opacity:1"/><path d="M-355.4065346577852,153.07919026255524L-363.06548929016844,153.33677761092366L-356.080547513785,157.63132997376604z" style="fill:rgb(0,0,277);fill-opacity:1"/><path d="M-317.03480420477166,189.01134230182078L-317.71520543587275,193.6304404271912L-310.07815684480886,193.31913525073685z" style="fill:rgb(0,0,278);fill-opacity:1"/><path d="M-304.2829716717803,192.60099963945294L-311.9419263041636,192.85858698782135L-304.95698452778015,197.1531393506638z" style="fill:rgb(0,0,277);fill-opacity:1"/><path d="M-231.82886589476357,122.29076484488427L-232.50926712586465,126.90986297025468L-224.87221853480074,126.59855779380034z" style="fill:rgb(0,0,278);fill-opacity:1"/><path d="M-219.07703336177215,125.88042218251644L-226.73598799415544,126.13800953088486L-219.75104621777209,130.43256189372727z" style="fill:rgb(0,0,277);fill-opacity:1"/><path d="M-146.6229275847555,153.6935890663976L-147.3033288158565,158.31268719176805L-139.66628022479264,158.0013820153137z" style="fill:rgb(0,0,278);fill-opacity:1"/><path d="M-133.87109505176406,157.2832464040298L-141.53004968414734,157.5408337523982L-134.545107907764,161.83538611524062z" style="fill:rgb(0,0,277);fill-opacity:1"/><path d="M-61.416989274747436,260.5157349755396L-62.09739050584844,265.1348331009101L-54.46034191478457,264.82352792445573z" style="fill:rgb(0,0,278);fill-opacity:1"/><path d="M-48.665156741756,264.1053923131718L-56.32411137413928,264.36297966154024L-49.339169597755905,268.65753202438265z" style="fill:rgb(0,0,277);fill-opacity:1"/><path d="M15.268355204259855,207.24353319039255L14.587953973158838,211.862631315763L22.22500256422271,211.55132613930866z" style="fill:rgb(0,0,278);fill-opacity:1"/><path d="M28.020187737251284,210.83319052802474L20.361233104868,211.09077787639316L27.34617488125137,215.38533023923554z" style="fill:rgb(0,0,277);fill-opacity:1"/><path d="M108.99488734526874,229.41761572232997L108.31448611416772,234.03671384770038L115.95153470523161,233.72540867124604z" style="fill:rgb(0,0,278);fill-opacity:1"/><path d="M121.74671987826018,233.00727305996213L114.08776524587691,233.26486040833055L121.07270702226026,237.559412771173z" style="fill:rgb(0,0,277);fill-opacity:1"/><path d="M194.20082565527682,189.97047313580077L193.52042442417573,194.58957126117124L201.15747301523962,194.2782660847169z" style="fill:rgb(0,0,278);fill-opacity:1"/><path d="M206.9526581882682,193.560130473433L199.29370355588492,193.8177178218014L206.2786453322683,198.11227018464382z" style="fill:rgb(0,0,277);fill-opacity:1"/><path d="M279.40676396528494,227.90170034549087L278.7263627341839,232.52079847086128L286.3634113252478,232.20949329440694z" style="fill:rgb(0,0,278);fill-opacity:1"/><path d="M292.15859649827644,231.49135768312303L284.49964186589307,231.74894503149144L291.4845836422765,236.04349739433383z" style="fill:rgb(0,0,277);fill-opacity:1"/><path d="M356.0921084442922,172.8907064619118L355.41170721319133,177.50980458728225L363.0487558042551,177.1984994108279z" style="fill:rgb(0,0,278);fill-opacity:1"/><path d="M368.8439409772837,176.480363799544L361.1849863449004,176.7379511479124L368.1699281212838,181.03250351075482z" style="fill:rgb(0,0,277);fill-opacity:1"/><path d="M-361.6168542367544,149.74796423965608L-368.74316223990667,150.010873611829L-361.6933699256804,154.31074799847593zM-310.49329125074956,189.26977361655383L-317.61959925390175,189.53268298872675L-310.5698069396755,193.83255737537363zM-225.28735294074147,122.54919615961731L-232.41366094389363,122.81210553179025L-225.3638686296674,127.11197991843711zM-140.08141463073338,153.95202038113067L-147.20772263388554,154.21492975330358L-140.1579303196593,158.51480413995048zM-54.8754763207253,260.77416629027266L-62.00178432387749,261.0370756624456L-54.95199200965123,265.33695004909254zM21.80986815828198,207.5019645051256L14.683560155129804,207.76487387729853L21.73335246935605,212.06474826394543zM115.53640029929089,229.67604703706303L108.41009229613869,229.93895640923594L115.45988461036494,234.23883079588282zM200.74233860929888,190.22890445053383L193.61603060614675,190.49181382270675L200.66582292037296,194.79168820935368zM285.9482769193071,228.16013166022393L278.82196891615484,228.42304103239684L285.87176123038114,232.72291541904372zM362.6336213983144,173.14913777664486L355.50731339516216,173.41204714881778L362.55710570938845,177.71192153546468z" style="fill:rgb(0,0,278);fill-opacity:1"/><path d="M-362.5516335485378,152.81267215482825L-362.6233101943515,157.4435643179053L-355.5230967599757,157.116965373606zM-311.4280705625329,192.33448153172594L-311.49974720834666,196.96537369480305L-304.39953377397086,196.63877475050376zM-226.22213225252483,125.61390407478943L-226.2938088983385,130.24479623786652L-219.19359546396277,129.91819729356723zM-141.01619394251674,157.0167282963028L-141.08787058833042,161.64762045937988L-133.98765715395467,161.3210215150806zM-55.810255632508664,263.8388742054448L-55.88193227832236,268.4697663685219L-48.781718843946585,268.1431674242226zM20.875088846498617,210.56667242029775L20.803412200684917,215.1975645833748L27.90362563506069,214.8709656390755zM114.60162098750752,232.74075495223514L114.52994434169382,237.37164711531224L121.6301577760696,237.04504817101295zM199.80755929751552,193.293612365706L199.73588265170184,197.92450452878307L206.83609608607762,197.59790558448378zM285.01349760752373,231.22483957539603L284.94182096171,235.85573173847308L292.0420343960858,235.5291327941738zM361.69884208653104,176.213845691817L361.6271654407173,180.84473785489408L368.7273788750931,180.51813891059479z" style="fill:rgb(0,0,277);fill-opacity:1"/><path d="M-362.5596720503583,149.50037244142393L-362.62359109538005,154.11434434824338L-355.0469812657385,153.78077305938837z" style="fill:rgb(0,0,281);fill-opacity:1"/><path d="M-361.61779125143016,153.07385340380537L-369.21783512058784,153.35002056583866L-361.68555612171167,157.6234238776009z" style="fill:rgb(0,0,274);fill-opacity:1"/><path d="M-311.43610906435345,189.02218181832168L-311.5000281093752,193.63615372514107L-303.9234182797336,193.30258243628606z" style="fill:rgb(0,0,281);fill-opacity:1"/><path d="M-310.4942282654253,192.59566278070307L-318.094272134583,192.87182994273635L-310.5619931357068,197.14523325449866z" style="fill:rgb(0,0,274);fill-opacity:1"/><path d="M-226.2301707543453,122.30160436138517L-226.29408979936707,126.91557626820455L-218.7174799697255,126.58200497934956z" style="fill:rgb(0,0,281);fill-opacity:1"/><path d="M-225.28828995541718,125.87508532376657L-232.8883338245749,126.15125248579983L-225.3560548256987,130.42465579756214z" style="fill:rgb(0,0,274);fill-opacity:1"/><path d="M-141.0242324443372,153.70442858289852L-141.08815148935898,158.31840048971793L-133.5115416597174,157.98482920086292z" style="fill:rgb(0,0,281);fill-opacity:1"/><path d="M-140.0823516454091,157.27790954527993L-147.68239551456676,157.55407670731321L-140.1501165156906,161.8274800190755z" style="fill:rgb(0,0,274);fill-opacity:1"/><path d="M-55.818294134329136,260.52657449204054L-55.882213179350906,265.14054639885995L-48.30560334970934,264.80697511000494z" style="fill:rgb(0,0,281);fill-opacity:1"/><path d="M-54.87641333540102,264.100055454422L-62.476457204558685,264.3762226164552L-54.94417820568253,268.6496259282175z" style="fill:rgb(0,0,274);fill-opacity:1"/><path d="M20.867050344678137,207.25437270689346L20.80313129965637,211.86834461371288L28.379741129297948,211.53477332485787z" style="fill:rgb(0,0,281);fill-opacity:1"/><path d="M21.808931143606255,210.82785366927487L14.208887274448594,211.10402083130816L21.74116627332475,215.3774241430704z" style="fill:rgb(0,0,274);fill-opacity:1"/><path d="M114.59358248568704,229.42845523883088L114.52966344066527,234.04242714565027L122.10627327030684,233.70885585679525z" style="fill:rgb(0,0,281);fill-opacity:1"/><path d="M115.53546328461516,233.00193620121226L107.93541941545747,233.27810336324555L115.46769841433365,237.55150667500786z" style="fill:rgb(0,0,274);fill-opacity:1"/><path d="M199.79952079569506,189.98131265230168L199.73560175067328,194.59528455912113L207.31221158031485,194.2617132702661z" style="fill:rgb(0,0,281);fill-opacity:1"/><path d="M200.74140159462317,193.55479361468312L193.1413577254655,193.8309607767164L200.67363672434166,198.1043640884787z" style="fill:rgb(0,0,274);fill-opacity:1"/><path d="M285.0054591057032,227.91253986199177L284.94154006068146,232.52651176881116L292.5181498903231,232.19294047995615z" style="fill:rgb(0,0,281);fill-opacity:1"/><path d="M285.94733990463135,231.48602082437316L278.3472960354737,231.76218798640645L285.87957503434984,236.0355912981687z" style="fill:rgb(0,0,274);fill-opacity:1"/><path d="M361.6908035847105,172.9015459784127L361.6268845396888,177.51551788523213L369.2034943693304,177.18194659637712z" style="fill:rgb(0,0,281);fill-opacity:1"/><path d="M362.63268438363866,176.47502694079412L355.03264051448105,176.7511941028274L362.56491951335715,181.0245974145897z" style="fill:rgb(0,0,274);fill-opacity:1"/></svg>