<svg xmlns="http://www.w3.org/2000/svg" viewBox="-615 -378 1230 756" width="1230" height="756" style="background-color: rgb(255, 255, 255);"><rect id="background" height="756" width="1230" y="-378" x="-615" stroke-width="0" stroke="#000000" fill="#ffffff"/><text x="494.9366705123777" y="276.4509266627087" z="-0.9900995049752487" font-family="Verdana" font-size="15" fill="rgb(0,0,0)">Treatment</text><text x="-456.40145050050364" y="-289.79307333729133" z="-0.9900995049752487" font-family="Verdana" font-size="15" fill="rgb(0,0,0)">Axis 1 (81.16 %)</text><path d="M494.9366705123777,276.4509266627087L-456.40145050050364,276.4509266627087M-456.40145050050364,-289.79307333729133L-456.40145050050364,276.4509266627087" style="fill:none;stroke:rgb(0,0,0);stroke-opacity:1;stroke-width:3;stroke-linecap:round"/><path d="M-443.58201747704214,253.68692980184449L-449.6230129110192,254.86935307710442L-447.41654028514074,254.86036950319888z" style="fill:rgb(0,0,27);fill-opacity:1"/><path d="M-445.5248504214318,253.7120644823326L-441.6733953043528,254.97141698794647L-439.4833266277835,254.7331709118687z" style="fill:rgb(0,0,36);fill-opacity:1"/><path d="M-440.3701665989482,254.4463951804708L-442.61967905421733,254.53833505804968L-436.14745416275076,257.5568624100339z" style="fill:rgb(0,0,87);fill-opacity:1"/><path d="M-452.9686895763627,271.66626035159146L-448.68874981471566,274.90257517616493L-446.5084038197755,274.4895718236894z" style="fill:rgb(0,0,49);fill-opacity:1"/><path d="M-447.41485189856337,274.30799336409234L-449.6257840245293,274.36982128397307L-443.5809347501094,275.50553296978694z" style="fill:rgb(0,0,12);fill-opacity:1"/><path d="M-439.47660466750716,274.3625659204159L-441.69010199576473,274.2960196681745L-445.51486569029623,275.524762029262z" style="fill:rgb(0,0,21);fill-opacity:1"/><path d="M-380.82194352347096,231.1870554315234L-386.8629389574481,232.36947870678327L-384.6564663315697,232.3604951328777z" style="fill:rgb(0,0,27);fill-opacity:1"/><path d="M-382.7647764678606,231.21219011201148L-378.9133213507818,232.47154261762532L-376.7232526742124,232.23329654154756z" style="fill:rgb(0,0,36);fill-opacity:1"/><path d="M-377.61009264537705,231.94652081014962L-379.8596051006463,232.03846068772853L-373.3873802091797,235.05698803971273z" style="fill:rgb(0,0,87);fill-opacity:1"/><path d="M-390.2086156227915,249.1663859812703L-385.92867586114454,252.4027008058437L-383.7483298662044,251.98969745336828z" style="fill:rgb(0,0,49);fill-opacity:1"/><path d="M-384.6547779449923,251.80811899377113L-386.8657100709582,251.86994691365186L-380.8208607965382,253.00565859946585z" style="fill:rgb(0,0,12);fill-opacity:1"/><path d="M-376.71653071393604,251.86269155009467L-378.9300280421937,251.7961452978533L-382.75479173672505,253.02488765894088z" style="fill:rgb(0,0,21);fill-opacity:1"/><path d="M-276.22182026751926,132.67023114735125L-282.2628157014964,133.8526544226112L-280.0563430756179,133.84367084870567z" style="fill:rgb(0,0,27);fill-opacity:1"/><path d="M-278.1646532119089,132.69536582783937L-274.31319809483,133.95471833345326L-272.1231294182607,133.7164722573755z" style="fill:rgb(0,0,36);fill-opacity:1"/><path d="M-273.00996938942535,133.4296965259776L-275.2594818446945,133.52163640355647L-268.787256953228,136.54016375554062z" style="fill:rgb(0,0,87);fill-opacity:1"/><path d="M-285.6084923668398,150.64956169709825L-281.32855260519284,153.88587652167163L-279.14820661025266,153.47287316919622z" style="fill:rgb(0,0,49);fill-opacity:1"/><path d="M-280.05465468904055,153.29129470959907L-282.2655868150065,153.3531226294798L-276.2207375405865,154.48883431529376z" style="fill:rgb(0,0,12);fill-opacity:1"/><path d="M-272.11640745798434,153.3458672659226L-274.3299047862419,153.27932101368123L-278.15466848077335,154.5080633747688z" style="fill:rgb(0,0,21);fill-opacity:1"/><path d="M-171.62169701156745,151.11923500072385L-177.6626924455445,152.30165827598378L-175.45621981966613,152.29267470207824z" style="fill:rgb(0,0,27);fill-opacity:1"/><path d="M-173.5645299559571,151.14436968121197L-169.7130748388782,152.40372218682583L-167.52300616230886,152.16547611074807z" style="fill:rgb(0,0,36);fill-opacity:1"/><path d="M-168.4098461334735,151.87870037935016L-170.65935858874275,151.97064025692904L-164.18713369727615,154.9891676089132z" style="fill:rgb(0,0,87);fill-opacity:1"/><path d="M-181.00836911088803,169.09856555047085L-176.72842934924103,172.33488037504424L-174.5480833543008,171.92187702256882z" style="fill:rgb(0,0,49);fill-opacity:1"/><path d="M-175.45453143308876,171.74029856297167L-177.66546355905467,171.8021264828524L-171.62061428463466,172.93783816866633z" style="fill:rgb(0,0,12);fill-opacity:1"/><path d="M-167.51628420203252,171.7948711192952L-169.7297815302901,171.72832486705383L-173.55454522482157,172.95706722814137z" style="fill:rgb(0,0,21);fill-opacity:1"/><path d="M-67.0215737556157,240.57553975148733L-73.06256918959285,241.7579630267472L-70.85609656371443,241.74897945284164z" style="fill:rgb(0,0,27);fill-opacity:1"/><path d="M-68.96440670000538,240.60067443197542L-65.11295158292648,241.86002693758925L-62.92288290635715,241.6217808615115z" style="fill:rgb(0,0,36);fill-opacity:1"/><path d="M-63.80972287752179,241.3350051301136L-66.05923533279105,241.42694500769247L-59.587010441324445,244.44547235967661z" style="fill:rgb(0,0,87);fill-opacity:1"/><path d="M-76.4082458549363,258.55487030123425L-72.12830609328932,261.7911851258077L-69.94796009834913,261.3781817733322z" style="fill:rgb(0,0,49);fill-opacity:1"/><path d="M-70.85440817713706,261.1966033137351L-73.06534030310297,261.25843123361585L-67.02049102868295,262.3941429194297z" style="fill:rgb(0,0,12);fill-opacity:1"/><path d="M-62.91616094608081,261.25117587005866L-65.1296582743384,261.1846296178172L-68.95442196886982,262.4133719789048z" style="fill:rgb(0,0,21);fill-opacity:1"/><path d="M27.118537174740954,223.30909805810765L21.077541740763834,224.49152133336761L23.28401436664224,224.48253775946208z" style="fill:rgb(0,0,27);fill-opacity:1"/><path d="M25.175704230351286,223.33423273859577L29.027159347430178,224.59358524420966L31.217228023999496,224.3553391681319z" style="fill:rgb(0,0,36);fill-opacity:1"/><path d="M30.330388052834852,224.068563436734L28.08087559756563,224.16050331431288L34.5531004890322,227.179030666297z" style="fill:rgb(0,0,87);fill-opacity:1"/><path d="M17.73186507542034,241.28842860785466L22.01180483706734,244.52474343242804L24.192150832007552,244.11174007995263z" style="fill:rgb(0,0,49);fill-opacity:1"/><path d="M23.28570275321961,243.93016162035548L21.074770627253702,243.9919895402362L27.119619901673715,245.12770122605014z" style="fill:rgb(0,0,12);fill-opacity:1"/><path d="M31.223949984275837,243.984734176679L29.010452656018277,243.91818792443763L25.185688961486846,245.14693028552517z" style="fill:rgb(0,0,21);fill-opacity:1"/><path d="M142.1786727562878,217.34667076320682L136.1376773223107,218.5290940384667L138.34414994818914,218.52011046456113z" style="fill:rgb(0,0,27);fill-opacity:1"/><path d="M140.2358398118981,217.3718054436949L144.0872949289771,218.63115794930877L146.27736360554638,218.39291187323096z" style="fill:rgb(0,0,36);fill-opacity:1"/><path d="M145.3905236343817,218.10613614183308L143.14101117911252,218.19807601941196L149.61323607057918,221.2166033713961z" style="fill:rgb(0,0,87);fill-opacity:1"/><path d="M132.79200065696722,235.32600131295374L137.0719404186142,238.56231613752712L139.2522864135545,238.1493127850517z" style="fill:rgb(0,0,49);fill-opacity:1"/><path d="M138.34583833476654,237.96773432545456L136.13490620880057,238.02956224533528L142.17975548322053,239.16527393114927z" style="fill:rgb(0,0,12);fill-opacity:1"/><path d="M146.28408556582272,238.0223068817781L144.07058823756518,237.9557606295367L140.24582454303368,239.1845029906243z" style="fill:rgb(0,0,21);fill-opacity:1"/><path d="M246.7787960122395,178.24096822536896L240.73780057826247,179.4233915006289L242.94427320414084,179.41440792672336z" style="fill:rgb(0,0,27);fill-opacity:1"/><path d="M244.83596306784983,178.26610290585708L248.68741818492873,179.52545541147094L250.87748686149808,179.2872093353932z" style="fill:rgb(0,0,36);fill-opacity:1"/><path d="M249.9906468903334,179.00043360399528L247.7411344350642,179.09237348157416L254.21335932653088,182.1109008335583z" style="fill:rgb(0,0,87);fill-opacity:1"/><path d="M237.39212391291892,196.2202987751159L241.67206367456595,199.45661359968932L243.8524096695062,199.0436102472139z" style="fill:rgb(0,0,49);fill-opacity:1"/><path d="M242.94596159071824,198.86203178761676L240.73502946475233,198.92385970749748L246.77987873917223,200.05957139331147z" style="fill:rgb(0,0,12);fill-opacity:1"/><path d="M250.88420882177442,198.9166043439403L248.67071149351685,198.8500580916989L244.84594779898538,200.0788004527865z" style="fill:rgb(0,0,21);fill-opacity:1"/><path d="M351.37891926819134,194.29028357043944L345.3379238342142,195.47270684569938L347.54439646009274,195.46372327179384z" style="fill:rgb(0,0,27);fill-opacity:1"/><path d="M349.4360863238017,194.31541825092756L353.28754144088066,195.57477075654145L355.4776101174499,195.33652468046364z" style="fill:rgb(0,0,36);fill-opacity:1"/><path d="M354.59077014628525,195.04974894906576L352.34125769101615,195.14168882664464L358.8134825824826,198.16021617862876z" style="fill:rgb(0,0,87);fill-opacity:1"/><path d="M341.9922471688708,212.26961412018642L346.27218693051776,215.50592894475977L348.452532925458,215.09292559228442z" style="fill:rgb(0,0,49);fill-opacity:1"/><path d="M347.5460848466701,214.91134713268724L345.3351527207041,214.97317505256797L351.3800019951241,216.1088867383819z" style="fill:rgb(0,0,12);fill-opacity:1"/><path d="M355.48433207772626,214.96591968901078L353.2708347494688,214.8993734367694L349.4460710549372,216.12811579785694z" style="fill:rgb(0,0,21);fill-opacity:1"/><path d="M445.519030198548,139.9058235985484L439.47803476457085,141.08824687380834L441.68450739044937,141.0792632999028z" style="fill:rgb(0,0,27);fill-opacity:1"/><path d="M443.5761972541584,139.93095827903653L447.4276523712372,141.1903107846504L449.6177210478066,140.95206470857264z" style="fill:rgb(0,0,36);fill-opacity:1"/><path d="M448.73088107664194,140.66528897717473L446.48136862137267,140.7572288547536L452.9535935128393,143.77575620673775z" style="fill:rgb(0,0,87);fill-opacity:1"/><path d="M436.1323580992274,157.88515414829538L440.4122978608744,161.12146897286874L442.59264385581463,160.70846562039338z" style="fill:rgb(0,0,49);fill-opacity:1"/><path d="M441.68619577702674,160.5268871607962L439.47526365106074,160.58871508067693L445.52011292548076,161.7244267664909z" style="fill:rgb(0,0,12);fill-opacity:1"/><path d="M449.62444300808295,160.58145971711974L447.41094567982526,160.51491346487836L443.58618198529393,161.74365582596593z" style="fill:rgb(0,0,21);fill-opacity:1"/><path d="M-436.76159338768554,256.6258432705832L-440.12761669417097,256.7719956864952L-434.02641508495066,261.2306850548812z" style="fill:rgb(0,0,121);fill-opacity:1"/><path d="M-436.09229796878066,271.86383958763724L-439.5613712091198,271.6687565402033L-441.03609248306674,275.21301635436004z" style="fill:rgb(0,0,74);fill-opacity:1"/><path d="M-374.00151943411447,234.125968900262L-377.36754274059984,234.27212131617406L-371.2663411313796,238.73081068456008z" style="fill:rgb(0,0,121);fill-opacity:1"/><path d="M-373.3322240152096,249.3639652173161L-376.80129725554866,249.16888216988212L-378.2760185294956,252.71314198403886z" style="fill:rgb(0,0,74);fill-opacity:1"/><path d="M-269.40139617816277,135.60914461608994L-272.7674194846481,135.75529703200198L-266.66621787542783,140.21398640038797z" style="fill:rgb(0,0,121);fill-opacity:1"/><path d="M-268.7321007592579,150.84714093314403L-272.2011739995969,150.65205788571006L-273.6758952735439,154.1963176998668z" style="fill:rgb(0,0,74);fill-opacity:1"/><path d="M-164.8012729222109,154.05814846946248L-168.16729622869627,154.20430088537455L-162.06609461947605,158.6629902537606z" style="fill:rgb(0,0,121);fill-opacity:1"/><path d="M-164.13197750330608,169.29614478651663L-167.60105074364512,169.10106173908267L-169.07577201759207,172.6453215532394z" style="fill:rgb(0,0,74);fill-opacity:1"/><path d="M-60.2011496662592,243.5144532202259L-63.567172972744586,243.66060563613797L-57.465971363524346,248.11929500452402z" style="fill:rgb(0,0,121);fill-opacity:1"/><path d="M-59.531854247354374,258.75244953728003L-63.000927487693424,258.55736648984606L-64.47564876164034,262.1016263040028z" style="fill:rgb(0,0,74);fill-opacity:1"/><path d="M33.938961264097436,226.2480115268463L30.572937957612087,226.39416394275835L36.67413956683234,230.85285331114434z" style="fill:rgb(0,0,121);fill-opacity:1"/><path d="M34.60825668300227,241.48600784390044L31.139183442663256,241.29092479646647L29.664462168716295,244.8351846106232z" style="fill:rgb(0,0,74);fill-opacity:1"/><path d="M148.9990968456444,220.2855842319454L145.63307353915897,220.43173664785746L151.7342751483792,224.8904260162435z" style="fill:rgb(0,0,121);fill-opacity:1"/><path d="M149.66839226454923,235.52358054899952L146.19931902421013,235.32849750156555L144.72459775026317,238.87275731572228z" style="fill:rgb(0,0,74);fill-opacity:1"/><path d="M253.5992201015961,181.1798816941076L250.23319679511067,181.32603411001966L256.33439840433095,185.78472347840568z" style="fill:rgb(0,0,121);fill-opacity:1"/><path d="M254.26851552050093,196.4178780111617L250.79944228016183,196.22279496372772L249.32472100621487,199.76705477788448z" style="fill:rgb(0,0,74);fill-opacity:1"/><path d="M358.19934335754783,197.22919703917808L354.8333200510625,197.37534945509012L360.9345216602828,201.83403882347616z" style="fill:rgb(0,0,121);fill-opacity:1"/><path d="M358.8686387764527,212.4671933562322L355.3995655361137,212.27211030879823L353.9248442621667,215.81637012295496z" style="fill:rgb(0,0,74);fill-opacity:1"/><path d="M452.3394542879045,142.84473706728707L448.97343098141914,142.9908894831991L455.07463259063945,147.44957885158513z" style="fill:rgb(0,0,121);fill-opacity:1"/><path d="M453.0087497068094,158.08273338434117L449.5396764664703,157.8876503369072L448.06495519252337,161.43191015106393z" style="fill:rgb(0,0,74);fill-opacity:1"/><path d="M-448.0083656861494,254.01108711481282L-453.00775567789873,257.3861223178047L-449.5972600017549,257.45717808518214z" style="fill:rgb(0,0,62);fill-opacity:1"/><path d="M-455.0924618318094,267.9768834621065L-452.3058210012546,272.66519766907584L-448.98923502689894,272.3293948568582z" style="fill:rgb(0,0,76);fill-opacity:1"/><path d="M-385.24829173257825,231.51121274449167L-390.24768172432755,234.8862479474835L-386.8371860481838,234.95730371486096z" style="fill:rgb(0,0,62);fill-opacity:1"/><path d="M-392.3323878782384,245.4770090917854L-389.5457470476834,250.1653232987547L-386.2291610733279,249.829520486537z" style="fill:rgb(0,0,76);fill-opacity:1"/><path d="M-280.64816847662655,132.9943884603196L-285.64755846837585,136.3694236633114L-282.23706279223205,136.44047943068887z" style="fill:rgb(0,0,62);fill-opacity:1"/><path d="M-287.73226462228666,146.96018480761327L-284.9456237917317,151.64849901458265L-281.6290378173761,151.31269620236495z" style="fill:rgb(0,0,76);fill-opacity:1"/><path d="M-176.0480452206747,151.4433923136922L-181.04743521242406,154.81842751668398L-177.6369395362802,154.88948328406144z" style="fill:rgb(0,0,62);fill-opacity:1"/><path d="M-183.13214136633482,165.40918866098588L-180.34550053577988,170.09750286795526L-177.0289145614243,169.76170005573755z" style="fill:rgb(0,0,76);fill-opacity:1"/><path d="M-71.44792196472302,240.8996970644556L-76.44731195647233,244.2747322674474L-73.03681628032854,244.34578803482486z" style="fill:rgb(0,0,62);fill-opacity:1"/><path d="M-78.53201811038312,254.8654934117493L-75.74537727982818,259.5538076187186L-72.4287913054726,259.21800480650097z" style="fill:rgb(0,0,76);fill-opacity:1"/><path d="M22.692188965633655,223.63325537107602L17.692798973884305,227.0082905740678L21.10329465002814,227.07934634144524z" style="fill:rgb(0,0,62);fill-opacity:1"/><path d="M15.608092819973557,237.59905171836968L18.39473365052847,242.28736592533906L21.711319624884066,241.95156311312135z" style="fill:rgb(0,0,76);fill-opacity:1"/><path d="M137.7523245471805,217.6708280761751L132.75293455543118,221.0458632791669L136.16343023157506,221.11691904654435z" style="fill:rgb(0,0,62);fill-opacity:1"/><path d="M130.66822840152042,231.63662442346876L133.45486923207537,236.32493863043814L136.77145520643097,235.98913581822043z" style="fill:rgb(0,0,76);fill-opacity:1"/><path d="M242.35244780313226,178.5651255383373L237.35305781138288,181.9401607413291L240.76355348752676,182.01121650870655z" style="fill:rgb(0,0,62);fill-opacity:1"/><path d="M235.26835165747212,192.53092188563096L238.05499248802707,197.2192360926003L241.37157846238267,196.8834332803826z" style="fill:rgb(0,0,76);fill-opacity:1"/><path d="M346.95257105908405,194.61444088340775L341.95318106733475,197.98947608639955L345.36367674347866,198.06053185377704z" style="fill:rgb(0,0,62);fill-opacity:1"/><path d="M339.8684749134241,208.58023723070144L342.65511574397885,213.26855143767082L345.9717017183346,212.93274862545312z" style="fill:rgb(0,0,76);fill-opacity:1"/><path d="M441.0926819894407,140.22998091151675L436.0932919976914,143.60501611450854L439.5037876738352,143.676071881886z" style="fill:rgb(0,0,62);fill-opacity:1"/><path d="M434.00858584378057,154.1957772588104L436.79522667433554,158.8840914657798L440.1118126486911,158.54828865356208z" style="fill:rgb(0,0,76);fill-opacity:1"/><path d="M-445.0205174749486,253.26018244502535L-445.0431900518767,255.3282555179386L-440.7007957394799,254.82821441918384z" style="fill:rgb(0,0,69);fill-opacity:1"/><path d="M-451.91875103953566,256.1504530836926L-455.1811175713188,260.9979243809463L-450.9230420068963,260.9414881722354z" style="fill:rgb(0,0,85);fill-opacity:1"/><path d="M-434.26827079930536,260.02269796120504L-438.4390066874785,260.1685139999892L-433.44801465582884,265.4429262133317z" style="fill:rgb(0,0,137);fill-opacity:1"/><path d="M-455.6627892547438,263.74818710978593L-454.8024944474632,269.2598950012905L-450.6825671819503,268.95777971439753z" style="fill:rgb(0,0,92);fill-opacity:1"/><path d="M-433.91329765686675,268.26879197308836L-438.2287323276203,268.2054013402627L-437.13820242453215,273.0359410497747z" style="fill:rgb(0,0,113);fill-opacity:1"/><path d="M-444.04310490039825,273.9571224505589L-448.4238101891301,274.34048286635L-444.0717246709368,275.88574230094343z" style="fill:rgb(0,0,49);fill-opacity:1"/><path d="M-440.69860165106377,274.27291851390345L-445.312655524833,274.03128932074105L-444.75324609040837,275.87913978320785z" style="fill:rgb(0,0,53);fill-opacity:1"/><path d="M-382.2604435213774,230.7603080747042L-382.2831160983055,232.82838114761748L-377.94072178590886,232.32834004886269z" style="fill:rgb(0,0,69);fill-opacity:1"/><path d="M-389.1586770859644,233.6505787133714L-392.4210436177478,238.4980500106252L-388.1629680533253,238.44161380191431z" style="fill:rgb(0,0,85);fill-opacity:1"/><path d="M-371.5081968457343,237.52282359088395L-375.6789327339076,237.6686396296681L-370.6879407022578,242.94305184301066z" style="fill:rgb(0,0,137);fill-opacity:1"/><path d="M-392.90271530117275,241.24831273946486L-392.04242049389217,246.76002063096934L-387.9224932283792,246.45790534407644z" style="fill:rgb(0,0,92);fill-opacity:1"/><path d="M-371.1532237032957,245.76891760276723L-375.4686583740494,245.7055269699416L-374.37812847096103,250.53606667945354z" style="fill:rgb(0,0,113);fill-opacity:1"/><path d="M-381.28303094682707,251.45724808023775L-385.66373623555904,251.84060849602878L-381.31165071736564,253.3858679306223z" style="fill:rgb(0,0,49);fill-opacity:1"/><path d="M-377.93852769749276,251.77304414358227L-382.55258157126184,251.53141495041984L-381.9931721368372,253.37926541288672z" style="fill:rgb(0,0,53);fill-opacity:1"/><path d="M-277.6603202654257,132.24348379053208L-277.6829928423538,134.31155686344542L-273.34059852995705,133.81151576469063z" style="fill:rgb(0,0,69);fill-opacity:1"/><path d="M-284.5585538300127,135.1337544291993L-287.820920361796,139.98122572645312L-283.56284479737354,139.92478951774223z" style="fill:rgb(0,0,85);fill-opacity:1"/><path d="M-266.90807358978253,139.00599930671186L-271.0788094779558,139.151815345496L-266.087817446306,144.42622755883858z" style="fill:rgb(0,0,137);fill-opacity:1"/><path d="M-288.30259204522093,142.73148845529278L-287.4422972379404,148.24319634679722L-283.32236997242745,147.94108105990432z" style="fill:rgb(0,0,92);fill-opacity:1"/><path d="M-266.5531004473439,147.25209331859512L-270.8685351180976,147.18870268576947L-269.7780052150094,152.01924239528148z" style="fill:rgb(0,0,113);fill-opacity:1"/><path d="M-276.68290769087537,152.9404237960657L-281.0636129796073,153.32378421185672L-276.71152746141394,154.86904364645022z" style="fill:rgb(0,0,49);fill-opacity:1"/><path d="M-273.33840444154094,153.25621985941024L-277.95245831531014,153.01459066624778L-277.3930488808855,154.8624411287146z" style="fill:rgb(0,0,53);fill-opacity:1"/><path d="M-173.06019700947388,150.69248764390468L-173.08286958640198,152.760560716818L-168.7404752740053,152.2605196180632z" style="fill:rgb(0,0,69);fill-opacity:1"/><path d="M-179.95843057406097,153.5827582825719L-183.22079710584416,158.43022957982572L-178.9627215414217,158.37379337111483z" style="fill:rgb(0,0,85);fill-opacity:1"/><path d="M-162.30795033383072,157.45500316008446L-166.47868622200394,157.6008191988686L-161.48769419035418,162.87523141221115z" style="fill:rgb(0,0,137);fill-opacity:1"/><path d="M-183.7024687892691,161.18049230866535L-182.84217398198854,166.69220020016982L-178.7222467164757,166.39008491327692z" style="fill:rgb(0,0,92);fill-opacity:1"/><path d="M-161.9529771913921,165.70109717196772L-166.26841186214577,165.63770653914207L-165.1778819590575,170.46824624865408z" style="fill:rgb(0,0,113);fill-opacity:1"/><path d="M-172.08278443492352,171.3894276494383L-176.46348972365547,171.77278806522935L-172.11140420546215,173.31804749982277z" style="fill:rgb(0,0,49);fill-opacity:1"/><path d="M-168.73828118558916,171.70522371278284L-173.35233505935832,171.4635945196204L-172.79292562493367,173.31144498208718z" style="fill:rgb(0,0,53);fill-opacity:1"/><path d="M-68.46007375352214,240.14879239466816L-68.48274633045027,242.2168654675814L-64.14035201805359,241.7168243688266z" style="fill:rgb(0,0,69);fill-opacity:1"/><path d="M-75.35830731810925,243.0390630333353L-78.62067384989246,247.88653433058914L-74.36259828547,247.83009812187825z" style="fill:rgb(0,0,85);fill-opacity:1"/><path d="M-57.70782707787901,246.91130791084788L-61.87856296605225,247.05712394963203L-56.887570934402504,252.3315361629746z" style="fill:rgb(0,0,137);fill-opacity:1"/><path d="M-79.10234553331742,250.6367970594288L-78.24205072603684,256.1485049509333L-74.12212346052398,255.84638966404034z" style="fill:rgb(0,0,92);fill-opacity:1"/><path d="M-57.3528539354404,255.15740192273114L-61.66828860619408,255.0940112899055L-60.57775870310581,259.9245509994175z" style="fill:rgb(0,0,113);fill-opacity:1"/><path d="M-67.48266117897181,260.8457324002017L-71.8633664677038,261.2290928159928L-67.5112809495104,262.7743522505862z" style="fill:rgb(0,0,49);fill-opacity:1"/><path d="M-64.13815792963747,261.16152846354623L-68.7522118034066,260.91989927038384L-68.19280236898193,262.76774973285063z" style="fill:rgb(0,0,53);fill-opacity:1"/><path d="M25.68003717683453,222.8823507012885L25.657364599906405,224.95042377420182L29.99975891230308,224.45038267544703z" style="fill:rgb(0,0,69);fill-opacity:1"/><path d="M18.781803612247398,225.7726213399557L15.519437080464217,230.6200926372095L19.777512644886638,230.5636564284986z" style="fill:rgb(0,0,85);fill-opacity:1"/><path d="M36.43228385247767,229.64486621746823L32.26154796430443,229.79068225625238L37.25253999595417,235.06509446959492z" style="fill:rgb(0,0,137);fill-opacity:1"/><path d="M15.037765397039232,233.37035536604913L15.898060204319822,238.88206325755363L20.01798746983267,238.57994797066073z" style="fill:rgb(0,0,92);fill-opacity:1"/><path d="M36.78725699491628,237.89096022935152L32.4718223241626,237.82756959652588L33.56235222725083,242.6581093060379z" style="fill:rgb(0,0,113);fill-opacity:1"/><path d="M26.657449751384856,243.5792907068221L22.276744462652875,243.96265112261315L26.628829980846277,245.50791055720657z" style="fill:rgb(0,0,49);fill-opacity:1"/><path d="M30.001953000719208,243.89508677016664L25.38789912695007,243.6534575770042L25.947308561374737,245.50130803947098z" style="fill:rgb(0,0,53);fill-opacity:1"/><path d="M140.74017275838136,216.91992340638765L140.71750018145326,218.9879964793009L145.05989449384998,218.48795538054608z" style="fill:rgb(0,0,69);fill-opacity:1"/><path d="M133.84193919379427,219.8101940450548L130.5795726620111,224.65766534230863L134.83764822643357,224.60122913359774z" style="fill:rgb(0,0,85);fill-opacity:1"/><path d="M151.49241943402453,223.68243892256737L147.3216835458513,223.82825496135152L152.3126755775011,229.1026671746941z" style="fill:rgb(0,0,137);fill-opacity:1"/><path d="M130.09790097858615,227.4079280711483L130.9581957858667,232.9196359626527L135.07812305137958,232.6175206757598z" style="fill:rgb(0,0,92);fill-opacity:1"/><path d="M151.84739257646314,231.9285329344506L147.53195790570948,231.86514230162496L148.6224878087978,236.69568201113697z" style="fill:rgb(0,0,113);fill-opacity:1"/><path d="M141.71758533293172,237.61686341192117L137.3368800441998,238.0002238277122L141.6889655623931,239.54548326230574z" style="fill:rgb(0,0,49);fill-opacity:1"/><path d="M145.0620885822661,237.93265947526572L140.44803470849692,237.69103028210327L141.00744414292157,239.53888074457012z" style="fill:rgb(0,0,53);fill-opacity:1"/><path d="M245.34029601433306,177.8142208685498L245.31762343740496,179.8822939414631L249.66001774980165,179.3822528427083z" style="fill:rgb(0,0,69);fill-opacity:1"/><path d="M238.44206244974598,180.704491507217L235.1796959179628,185.5519628044708L239.43777148238527,185.4955265957599z" style="fill:rgb(0,0,85);fill-opacity:1"/><path d="M256.09254268997626,184.57673638472954L251.921806801803,184.7225524235137L256.91279883345277,189.99696463685626z" style="fill:rgb(0,0,137);fill-opacity:1"/><path d="M234.69802423453785,188.30222553331046L235.5583190418184,193.8139334248149L239.67824630733128,193.511818137922z" style="fill:rgb(0,0,92);fill-opacity:1"/><path d="M256.44751583241487,192.8228303966128L252.13208116166118,192.75943976378716L253.22261106474951,197.58997947329914z" style="fill:rgb(0,0,113);fill-opacity:1"/><path d="M246.31770858888342,198.51116087408337L241.9370033001515,198.8945212898744L246.2890888183448,200.43978072446794z" style="fill:rgb(0,0,49);fill-opacity:1"/><path d="M249.6622118382178,198.82695693742792L245.04815796444862,198.58532774426547L245.60756739887327,200.43317820673232z" style="fill:rgb(0,0,53);fill-opacity:1"/><path d="M349.9404192702849,193.8635362136203L349.9177466933568,195.93160928653356L354.2601410057536,195.4315681877788z" style="fill:rgb(0,0,69);fill-opacity:1"/><path d="M343.04218570569776,196.75380685228745L339.77981917391475,201.60127814954132L344.0378947383372,201.54484194083042z" style="fill:rgb(0,0,85);fill-opacity:1"/><path d="M360.6926659459281,200.62605172980005L356.5219300577549,200.7718677685842L361.51292208940464,206.0462799819267z" style="fill:rgb(0,0,137);fill-opacity:1"/><path d="M339.2981474904896,204.3515408783809L340.1584422977703,209.8632487698854L344.2783695632832,209.5611334829925z" style="fill:rgb(0,0,92);fill-opacity:1"/><path d="M361.04763908836674,208.87214574168328L356.7322044176131,208.8087551088576L357.8227343207012,213.63929481836968z" style="fill:rgb(0,0,113);fill-opacity:1"/><path d="M350.91783184483523,214.56047621915386L346.5371265561034,214.9438366349449L350.88921207429667,216.48909606953836z" style="fill:rgb(0,0,49);fill-opacity:1"/><path d="M354.2623350941697,214.8762722824984L349.64828122040046,214.63464308933595L350.2076906548251,216.48249355180275z" style="fill:rgb(0,0,53);fill-opacity:1"/><path d="M444.0805302006416,139.47907624172925L444.05785762371346,141.54714931464255L448.4002519361101,141.04710821588776z" style="fill:rgb(0,0,69);fill-opacity:1"/><path d="M437.1822966360545,142.36934688039645L433.9199301042712,147.21681817765028L438.17800566869374,147.1603819689394z" style="fill:rgb(0,0,85);fill-opacity:1"/><path d="M454.83277687628475,146.24159175790902L450.6620409881114,146.38740779669317L455.65303301976127,151.6618200100357z" style="fill:rgb(0,0,137);fill-opacity:1"/><path d="M433.43825842084624,149.9670809064899L434.2985532281268,155.47878879799435L438.41848049363983,155.17667351110146z" style="fill:rgb(0,0,92);fill-opacity:1"/><path d="M455.18775001872336,154.48768576979225L450.87231534796956,154.4242951369666L451.96284525105796,159.25483484647862z" style="fill:rgb(0,0,113);fill-opacity:1"/><path d="M445.0579427751919,160.17601624726282L440.67723748646,160.55937666305385L445.02932300465335,162.10463609764736z" style="fill:rgb(0,0,49);fill-opacity:1"/><path d="M448.4024460245262,160.49181231060737L443.78839215075715,160.25018311744492L444.3478015851818,162.09803357991174z" style="fill:rgb(0,0,53);fill-opacity:1"/><path d="M-444.0790570440671,253.2954871501271L-448.41850726343944,254.89841170277217L-444.04107545295864,255.22275352924854zM-381.3189830904959,230.79561277980596L-385.65843330986837,232.398537332451L-381.28100149938746,232.72287915892738zM-276.7188598345442,132.27878849563385L-281.0583100539166,133.88171304827895L-276.68087824343576,134.20605487475532zM-172.1187365785924,150.72779234900645L-176.45818679796477,152.33071690165153L-172.08075498748397,152.6550587281279zM-67.51861332264066,240.1840970997699L-71.8580635420131,241.78702165241495L-67.48063173153224,242.11136347889132zM26.621497607716,222.91765540639025L22.282047388343564,224.52057995903536L26.659479198824442,224.84492178551173zM141.68163318926284,216.9552281114894L137.3421829698905,218.55815266413444L141.71961478037127,218.8824944906108zM246.28175644521454,177.84952557365156L241.9423062258422,179.45245012629664L246.31973803632297,179.776791952773zM350.8818797011664,193.89884091872204L346.54242948179404,195.50176547136712L350.91986129227485,195.8261072978435zM445.02199063152307,139.514380946831L440.6825404121507,141.1173054994761L445.05997222263153,141.44164732595246z" style="fill:rgb(0,0,65);fill-opacity:1"/><path d="M-454.5680426102124,259.5983800581169L-455.81159088589266,265.1656158026604L-451.3424907658871,264.9530732264856z" style="fill:rgb(0,0,95);fill-opacity:1"/><path d="M-433.26978218469543,264.11259737810354L-437.7899113816271,264.18825134101905L-434.52132519845543,269.5820821936143z" style="fill:rgb(0,0,134);fill-opacity:1"/><path d="M-437.3395708452649,127.99300160331606L-444.93966268016163,150.72572907779204L-433.1588526462485,128.02405444628053z" style="fill:rgb(122,0,0);fill-opacity:1"/><path d="M-455.9433295075117,128.02463878997588L-444.158992469867,150.72471693823337L-451.7627348777166,127.99342939917938z" style="fill:rgb(83,0,0);fill-opacity:1"/><path d="M-391.8079686566414,237.09850568779584L-393.0515169323216,242.6657414323393L-388.5824168123159,242.45319885616456z" style="fill:rgb(0,0,95);fill-opacity:1"/><path d="M-370.50970823112436,241.61272300778245L-375.02983742805606,241.68837697069802L-371.76125124488436,247.0822078232932z" style="fill:rgb(0,0,134);fill-opacity:1"/><path d="M-374.57949689169385,-161.66565235807766L-382.17958872659045,-138.9329248836017L-370.3987786926774,-161.6345995151132z" style="fill:rgb(122,0,0);fill-opacity:1"/><path d="M-393.1832555539406,-161.63401517141784L-381.3989185162958,-138.93393702316035L-389.0026609241454,-161.66522456221435z" style="fill:rgb(83,0,0);fill-opacity:1"/><path d="M-287.2078454006896,138.58168140362375L-288.4513936763698,144.14891714816721L-283.9822935563642,143.93637457199247z" style="fill:rgb(0,0,95);fill-opacity:1"/><path d="M-265.9095849751726,143.09589872361036L-270.42971417210435,143.17155268652593L-267.1611279889326,148.5653835391211z" style="fill:rgb(0,0,134);fill-opacity:1"/><path d="M-269.97937363574215,-160.77368709131417L-277.57946547063875,-138.04095961683817L-265.79865543672565,-160.7426342483497z" style="fill:rgb(122,0,0);fill-opacity:1"/><path d="M-288.5831322979888,-160.74204990465435L-276.7987952603441,-138.04197175639683L-284.4025376681937,-160.77325929545086z" style="fill:rgb(83,0,0);fill-opacity:1"/><path d="M-182.60772214473778,157.03068525699635L-183.851270420418,162.5979210015398L-179.38217030041235,162.38537842536505z" style="fill:rgb(0,0,95);fill-opacity:1"/><path d="M-161.3094617192208,161.54490257698293L-165.82959091615248,161.6205565398985L-162.5610047329808,167.0143873924937z" style="fill:rgb(0,0,134);fill-opacity:1"/><path d="M-165.3792503797903,-196.0257766026006L-172.97934221468694,-173.2930491281246L-161.19853218077384,-195.99472375963612z" style="fill:rgb(122,0,0);fill-opacity:1"/><path d="M-183.98300904203697,-195.99413941594077L-172.19867200439228,-173.29406126768328L-179.80241441224192,-196.02534880673727z" style="fill:rgb(83,0,0);fill-opacity:1"/><path d="M-78.0075988887861,246.48699000775977L-79.25114716446629,252.05422575230324L-74.78204704446063,251.8416831761285z" style="fill:rgb(0,0,95);fill-opacity:1"/><path d="M-56.70933846326908,251.00120732774639L-61.2294676602008,251.07686129066195L-57.9608814770291,256.4706921432571z" style="fill:rgb(0,0,134);fill-opacity:1"/><path d="M-60.7791271238386,-202.8941256252676L-68.3792189587352,-180.16139815079157L-56.59840892482216,-202.86307278230313z" style="fill:rgb(122,0,0);fill-opacity:1"/><path d="M-79.38288578608528,-202.86248843860778L-67.59854874844054,-180.16241029035024L-75.20229115629022,-202.8936978294043z" style="fill:rgb(83,0,0);fill-opacity:1"/><path d="M16.13251204157058,229.22054831438012L14.888963765890344,234.78778405892356L19.35806388589601,234.57524148274882z" style="fill:rgb(0,0,95);fill-opacity:1"/><path d="M37.4307724670876,233.7347656343667L32.910643270155845,233.81041959728228L36.17922945332758,239.2042504498775z" style="fill:rgb(0,0,134);fill-opacity:1"/><path d="M33.36098380651804,-275.7443310404996L25.760891971621472,-253.01160356602364L37.54170200553452,-275.71327819753515z" style="fill:rgb(122,0,0);fill-opacity:1"/><path d="M14.757225144271354,-275.71269385383977L26.54156218191613,-253.0126157055823L18.937819774066433,-275.74390324463633z" style="fill:rgb(83,0,0);fill-opacity:1"/><path d="M131.19264762311747,223.25812101947926L129.94909934743725,228.82535676402273L134.4181994674429,228.612814187848z" style="fill:rgb(0,0,95);fill-opacity:1"/><path d="M152.4909080486345,227.77233833946588L147.97077885170282,227.84799230238144L151.23936503487442,233.24182315497657z" style="fill:rgb(0,0,134);fill-opacity:1"/><path d="M148.421119388065,136.28240780848364L140.8210275531683,159.0151352829596L152.60183758708143,136.3134606514481z" style="fill:rgb(122,0,0);fill-opacity:1"/><path d="M129.81736072581828,136.31404499514346L141.60169776346297,159.01412314340092L133.99795535561333,136.28283560434696z" style="fill:rgb(83,0,0);fill-opacity:1"/><path d="M235.79277087906917,184.15241848164143L234.54922260338896,189.7196542261849L239.0183227233946,189.50711165001016z" style="fill:rgb(0,0,95);fill-opacity:1"/><path d="M257.0910313045862,188.66663580162805L252.57090210765452,188.7422897645436L255.83948829082613,194.13612061713877z" style="fill:rgb(0,0,134);fill-opacity:1"/><path d="M253.0212426440167,173.26281904041036L245.42115080912,195.99554651488634L257.20196084303313,173.29387188337483z" style="fill:rgb(122,0,0);fill-opacity:1"/><path d="M234.41748398176998,173.29445622707019L246.20182101941467,195.99453437532767L238.59807861156503,173.26324683627368z" style="fill:rgb(83,0,0);fill-opacity:1"/><path d="M340.3928941350211,200.20173382671194L339.14934585934077,205.76896957125533L343.6184459793464,205.55642699508059z" style="fill:rgb(0,0,95);fill-opacity:1"/><path d="M361.69115456053805,204.71595114669847L357.17102536360625,204.79160510961404L360.43961154677805,210.18543596220925z" style="fill:rgb(0,0,134);fill-opacity:1"/><path d="M357.62136589996845,121.1251080600776L350.02127406507185,143.85783553455357L361.802084098985,121.15616090304209z" style="fill:rgb(122,0,0);fill-opacity:1"/><path d="M339.01760723772173,121.15674524673742L350.8019442753665,143.8568233949949L343.1982018675169,121.12553585594092z" style="fill:rgb(83,0,0);fill-opacity:1"/><path d="M434.5330050653776,145.8172738548209L433.2894567896974,151.38450959936435L437.75855690970303,151.1719670231896z" style="fill:rgb(0,0,95);fill-opacity:1"/><path d="M455.8312654908947,150.3314911748075L451.31113629396293,150.40714513772306L454.5797224771347,155.80097599031822z" style="fill:rgb(0,0,134);fill-opacity:1"/><path d="M451.76147683032514,161.5553419821233L444.16138499542853,184.28806945659932L455.94219502934163,161.58639482508778z" style="fill:rgb(122,0,0);fill-opacity:1"/><path d="M433.15771816807836,161.58697916878313L444.9420552057232,184.28705731704065L437.3383127978735,161.55576977798663z" style="fill:rgb(83,0,0);fill-opacity:1"/><path d="M-446.5657325871668,254.4086864054446L-448.9789085238859,254.26741659565454L-450.4115359641785,257.8654896474552z" style="fill:rgb(0,0,62);fill-opacity:1"/><path d="M-442.48020122777046,254.18859385428152L-439.34407098013594,257.49056915991474L-436.0613521187177,257.1752245036033z" style="fill:rgb(0,0,87);fill-opacity:1"/><path d="M-449.730427949084,271.78265189114506L-453.0510198389492,271.93967500259845L-446.6360709121128,275.02328558845704z" style="fill:rgb(0,0,49);fill-opacity:1"/><path d="M-438.65032420545214,271.3435632936565L-442.5151689985718,274.9080163487997L-440.181472747515,274.8068277089896z" style="fill:rgb(0,0,74);fill-opacity:1"/><path d="M-383.8056586335957,231.90881203512345L-386.21883457031475,231.7675422253334L-387.6514620106074,235.36561527713405z" style="fill:rgb(0,0,62);fill-opacity:1"/><path d="M-379.72012727419946,231.6887194839604L-376.5839970265648,234.99069478959353L-373.30127816514664,234.6753501332822z" style="fill:rgb(0,0,87);fill-opacity:1"/><path d="M-386.97035399551294,249.28277752082394L-390.290945885378,249.43980063227727L-383.87599695854175,252.52341121813586z" style="fill:rgb(0,0,49);fill-opacity:1"/><path d="M-375.89025025188096,248.84368892333532L-379.7550950450008,252.4081419784785L-377.4213987939439,252.30695333866845z" style="fill:rgb(0,0,74);fill-opacity:1"/><path d="M-279.20553537764397,133.3919877509514L-281.61871131436305,133.25071794116133L-283.05133875465566,136.84879099296197z" style="fill:rgb(0,0,62);fill-opacity:1"/><path d="M-275.12000401824764,133.17189519978834L-271.98387377061306,136.47387050542144L-268.70115490919494,136.1585258491101z" style="fill:rgb(0,0,87);fill-opacity:1"/><path d="M-282.3702307395612,150.76595323665188L-285.6908226294263,150.9229763481052L-279.27587370259,154.0065869339638z" style="fill:rgb(0,0,49);fill-opacity:1"/><path d="M-271.2901269959292,150.3268646391633L-275.154971789049,153.89131769430645L-272.8212755379922,153.79012905449636z" style="fill:rgb(0,0,74);fill-opacity:1"/><path d="M-174.60541212169218,151.84099160432396L-177.0185880584112,151.6997217945339L-178.45121549870382,155.29779484633454z" style="fill:rgb(0,0,62);fill-opacity:1"/><path d="M-170.5198807622958,151.6208990531609L-167.38375051466133,154.92287435879402L-164.1010316532431,154.60752970248268z" style="fill:rgb(0,0,87);fill-opacity:1"/><path d="M-177.77010748360934,169.21495709002448L-181.0906993734745,169.3719802014778L-174.67575044663818,172.4555907873364z" style="fill:rgb(0,0,49);fill-opacity:1"/><path d="M-166.69000373997747,168.77586849253586L-170.55484853309719,172.34032154767905L-168.22115228204038,172.239132907869z" style="fill:rgb(0,0,74);fill-opacity:1"/><path d="M-70.00528886574048,241.29729635508738L-72.41846480245952,241.15602654529732L-73.85109224275215,244.75409959709796z" style="fill:rgb(0,0,62);fill-opacity:1"/><path d="M-65.91975750634411,241.07720380392433L-62.78362725870962,244.37917910955744L-59.500908397291404,244.0638344532461z" style="fill:rgb(0,0,87);fill-opacity:1"/><path d="M-73.16998422765765,258.67126184078785L-76.49057611752279,258.8282849522412L-70.07562719068649,261.9118955380999z" style="fill:rgb(0,0,49);fill-opacity:1"/><path d="M-62.08988048402578,258.23217324329926L-65.95472527714547,261.7966262984425L-63.62102902608865,261.6954376586324z" style="fill:rgb(0,0,74);fill-opacity:1"/><path d="M24.134822064616188,224.0308546617078L21.721646127897156,223.88958485191773L20.289018687604525,227.48765790371834z" style="fill:rgb(0,0,62);fill-opacity:1"/><path d="M28.22035342401256,223.81076211054474L31.35648367164706,227.11273741617782L34.639202533065244,226.79739275986648z" style="fill:rgb(0,0,87);fill-opacity:1"/><path d="M20.97012670269902,241.4048201474083L17.649534812833853,241.56184325886161L24.064483739670184,244.6454538447202z" style="fill:rgb(0,0,49);fill-opacity:1"/><path d="M32.050230446330914,240.96573154991967L28.18538565321119,244.53018460506286L30.519081904267985,244.4289959652528z" style="fill:rgb(0,0,74);fill-opacity:1"/><path d="M139.1949576461631,218.06842736680687L136.781781709444,217.9271575570168L135.34915426915146,221.52523060881745z" style="fill:rgb(0,0,62);fill-opacity:1"/><path d="M143.28048900555947,217.84833481564382L146.41661925319391,221.15031012127693L149.6993381146122,220.8349654649656z" style="fill:rgb(0,0,87);fill-opacity:1"/><path d="M136.03026228424594,235.44239285250737L132.70967039438074,235.5994159639607L139.1246193212171,238.6830265498193z" style="fill:rgb(0,0,49);fill-opacity:1"/><path d="M147.11036602787777,235.00330425501875L143.2455212347581,238.56775731016194L145.57921748581487,238.46656867035188z" style="fill:rgb(0,0,74);fill-opacity:1"/><path d="M243.7950809021148,178.96272482896907L241.38190496539576,178.821455019179L239.94927752510316,182.41952807097965z" style="fill:rgb(0,0,62);fill-opacity:1"/><path d="M247.88061226151115,178.74263227780602L251.01674250914562,182.04460758343913L254.2994613705639,181.7292629271278z" style="fill:rgb(0,0,87);fill-opacity:1"/><path d="M240.63038554019764,196.33669031466954L237.30979365033244,196.49371342612287L243.7247425771688,199.5773240119815z" style="fill:rgb(0,0,49);fill-opacity:1"/><path d="M251.71048928382947,195.89760171718092L247.84564449070976,199.46205477232414L250.17934074176657,199.36086613251408z" style="fill:rgb(0,0,74);fill-opacity:1"/><path d="M348.3952041580667,195.01204017403953L345.98202822134755,194.87077036424947L344.54940078105506,198.46884341605016z" style="fill:rgb(0,0,62);fill-opacity:1"/><path d="M352.480735517463,194.7919476228765L355.61686576509754,198.09392292850958L358.89958462651566,197.77857827219825z" style="fill:rgb(0,0,87);fill-opacity:1"/><path d="M345.23050879614954,212.38600565974005L341.9099169062843,212.54302877119338L348.32486583312067,215.62663935705197z" style="fill:rgb(0,0,49);fill-opacity:1"/><path d="M356.3106125397814,211.94691706225146L352.44576774666166,215.51137011739462L354.7794639977184,215.41018147758453z" style="fill:rgb(0,0,74);fill-opacity:1"/><path d="M442.5353150884233,140.62758020214852L440.1221391517042,140.48631039235846L438.68951171141157,144.0843834441591z" style="fill:rgb(0,0,62);fill-opacity:1"/><path d="M446.62084644781953,140.40748765098547L449.75697669545417,143.70946295661858L453.03969555687235,143.39411830030724z" style="fill:rgb(0,0,87);fill-opacity:1"/><path d="M439.37061972650605,158.00154568784902L436.05002783664094,158.15856879930234L442.4649767634773,161.24217938516094z" style="fill:rgb(0,0,49);fill-opacity:1"/><path d="M450.45072347013803,157.5624570903604L446.5858786770182,161.1269101455036L448.91957492807506,161.02572150569353z" style="fill:rgb(0,0,74);fill-opacity:1"/><path d="M-441.5108581880641,254.38333360067526L-445.51533812790694,254.55868364274562L-438.4037005483049,257.59957540513346z" style="fill:rgb(0,0,176);fill-opacity:1"/><path d="M-449.15991559862385,256.60932140796615L-452.74300402508925,256.578197889874L-451.59752998916986,261.4410047141194z" style="fill:rgb(0,0,85);fill-opacity:1"/><path d="M-439.8328846825932,256.3081953297707L-437.8599297423086,261.0525153203518L-433.7970841197401,260.7291549867518z" style="fill:rgb(0,0,121);fill-opacity:1"/><path d="M-451.21142561907055,268.2208095118906L-455.319290503097,268.3991991368839L-449.2825283599605,272.89012571435126z" style="fill:rgb(0,0,76);fill-opacity:1"/><path d="M-437.47574969117755,267.7428361798399L-439.92103323183176,272.6880501910095L-436.4059104908778,272.54058961719113z" style="fill:rgb(0,0,113);fill-opacity:1"/><path d="M-450.70986741169565,271.60803744260437L-447.56961091517377,274.86789242665L-443.5937678356248,274.58247748219145z" style="fill:rgb(0,0,153);fill-opacity:1"/><path d="M-378.75078423449315,231.8834592303541L-382.75526417433576,232.05880927242447L-375.64362659473375,235.0997010348123z" style="fill:rgb(0,0,176);fill-opacity:1"/><path d="M-386.3998416450528,234.109447037645L-389.982930071518,234.07832351955284L-388.83745603559885,238.9411303437983z" style="fill:rgb(0,0,85);fill-opacity:1"/><path d="M-377.072810729022,233.80832095944953L-375.09985578873767,238.55264095003068L-371.03701016616907,238.2292806164307z" style="fill:rgb(0,0,121);fill-opacity:1"/><path d="M-388.4513516654995,245.72093514156947L-392.559216549526,245.8993247665628L-386.52245440638944,250.39025134403008z" style="fill:rgb(0,0,76);fill-opacity:1"/><path d="M-374.7156757376066,245.2429618095188L-377.16095927826063,250.18817582068831L-373.6458365373067,250.04071524687z" style="fill:rgb(0,0,113);fill-opacity:1"/><path d="M-387.9497934581246,249.10816307228322L-384.8095369616027,252.36801805632874L-380.83369388205364,252.08260311187033z" style="fill:rgb(0,0,153);fill-opacity:1"/><path d="M-274.15066097854134,133.36663494618205L-278.15514091838406,133.5419849882524L-271.043503338782,136.58287675064022z" style="fill:rgb(0,0,176);fill-opacity:1"/><path d="M-281.79971838910103,135.5926227534729L-285.3828068155663,135.56149923538075L-284.2373327796471,140.42430605962622z" style="fill:rgb(0,0,85);fill-opacity:1"/><path d="M-272.47268747307027,135.29149667527744L-270.4997325327859,140.0358166658586L-266.4368869102173,139.71245633225863z" style="fill:rgb(0,0,121);fill-opacity:1"/><path d="M-283.85122840954773,147.20411085739735L-287.95909329357426,147.3825004823907L-281.9223311504377,151.87342705985802z" style="fill:rgb(0,0,76);fill-opacity:1"/><path d="M-270.11555248165484,146.72613752534667L-272.5608360223089,151.67135153651626L-269.045713281355,151.52389096269795z" style="fill:rgb(0,0,113);fill-opacity:1"/><path d="M-283.34967020217283,150.59133878811116L-280.20941370565095,153.8511937721567L-276.23357062610194,153.56577882769824z" style="fill:rgb(0,0,153);fill-opacity:1"/><path d="M-169.55053772258952,151.81563879955462L-173.55501766243225,151.99098884162498L-166.44338008283023,155.0318806040128z" style="fill:rgb(0,0,176);fill-opacity:1"/><path d="M-177.19959513314922,154.04162660684548L-180.78268355961453,154.01050308875332L-179.63720952369525,158.87330991299882z" style="fill:rgb(0,0,85);fill-opacity:1"/><path d="M-167.87256421711854,153.74050052865005L-165.89960927683404,158.4848205192312L-161.8367636542654,158.1614601856312z" style="fill:rgb(0,0,121);fill-opacity:1"/><path d="M-179.25110515359592,165.65311471076996L-183.35897003762238,165.8315043357633L-177.3222078944859,170.32243091323062z" style="fill:rgb(0,0,76);fill-opacity:1"/><path d="M-165.51542922570295,165.17514137871927L-167.96071276635712,170.12035538988886L-164.44559002540316,169.97289481607055z" style="fill:rgb(0,0,113);fill-opacity:1"/><path d="M-178.749546946221,169.04034264148376L-175.60929044969913,172.3001976255293L-171.63344737015015,172.01478268107084z" style="fill:rgb(0,0,153);fill-opacity:1"/><path d="M-64.95041446663782,241.27194355031804L-68.95489440648052,241.4472935923884L-61.84325682687854,244.48818535477622z" style="fill:rgb(0,0,176);fill-opacity:1"/><path d="M-72.59947187719753,243.4979313576089L-76.1825603036628,243.46680783951675L-75.03708626774356,248.32961466376224z" style="fill:rgb(0,0,85);fill-opacity:1"/><path d="M-63.27244096116683,243.19680527941347L-61.29948602088237,247.94112526999461L-57.236640398313725,247.61776493639462z" style="fill:rgb(0,0,121);fill-opacity:1"/><path d="M-74.6509818976442,255.10941946153338L-78.7588467816707,255.28780908652672L-72.72208463853421,259.77873566399404z" style="fill:rgb(0,0,76);fill-opacity:1"/><path d="M-60.9153059697513,254.6314461294827L-63.360589510405426,259.5766601406523L-59.84546676945143,259.4291995668339z" style="fill:rgb(0,0,113);fill-opacity:1"/><path d="M-74.1494236902693,258.49664739224716L-71.00916719374744,261.75650237629276L-67.03332411419842,261.47108743183423z" style="fill:rgb(0,0,153);fill-opacity:1"/><path d="M29.189696463718843,224.00550185693845L25.185216523876154,224.18085189900881L32.29685410347814,227.2217436613966z" style="fill:rgb(0,0,176);fill-opacity:1"/><path d="M21.540639053159143,226.2314896642293L17.957550626693834,226.20036614613713L19.1030246626131,231.0631729703826z" style="fill:rgb(0,0,85);fill-opacity:1"/><path d="M30.867669969189848,225.93036358603385L32.84062490947431,230.67468357661497L36.90347053204295,230.35132324301497z" style="fill:rgb(0,0,121);fill-opacity:1"/><path d="M19.48912903271244,237.84297776815376L15.381264148685977,238.0213673931471L21.418026291822464,242.51229397061442z" style="fill:rgb(0,0,76);fill-opacity:1"/><path d="M33.22480496060538,237.36500443610308L30.779521419951255,242.31021844727266L34.29464416090521,242.16275787345435z" style="fill:rgb(0,0,113);fill-opacity:1"/><path d="M19.99068724008736,241.23020569886756L23.13094373660923,244.49006068291308L27.10678681615826,244.20464573845467z" style="fill:rgb(0,0,153);fill-opacity:1"/><path d="M144.24983204526575,218.04307456203753L140.245352105423,218.2184246041079L147.356989685025,221.2593163664957z" style="fill:rgb(0,0,176);fill-opacity:1"/><path d="M136.60077463470606,220.2690623693284L133.01768620824072,220.23793885123624L134.16316024416003,225.10074567548173z" style="fill:rgb(0,0,85);fill-opacity:1"/><path d="M145.9278055507367,219.96793629113296L147.9007604910212,224.7122562817141L151.96360611358983,224.3888959481141z" style="fill:rgb(0,0,121);fill-opacity:1"/><path d="M134.54926461425936,231.88055047325284L130.44139973023286,232.05894009824618L136.47816187336937,236.5498666757135z" style="fill:rgb(0,0,76);fill-opacity:1"/><path d="M148.28494054215227,231.40257714120216L145.83965700149813,236.34779115237174L149.35477974245217,236.20033057855343z" style="fill:rgb(0,0,113);fill-opacity:1"/><path d="M135.05082282163428,235.26777840396664L138.19107931815614,238.5276333880122L142.1669223977051,238.24221844355372z" style="fill:rgb(0,0,153);fill-opacity:1"/><path d="M248.84995530121742,178.93737202419973L244.8454753613747,179.1127220662701L251.9571129409767,182.1536138286579z" style="fill:rgb(0,0,176);fill-opacity:1"/><path d="M241.20089789065776,181.1633598314906L237.61780946419242,181.13223631339844L238.76328350011173,185.9950431376439z" style="fill:rgb(0,0,85);fill-opacity:1"/><path d="M250.5279288066884,180.86223375329516L252.5008837469729,185.60655374387628L256.5637293695415,185.28319341027628z" style="fill:rgb(0,0,121);fill-opacity:1"/><path d="M239.14938787021106,192.77484793541504L235.04152298618456,192.95323756040838L241.07828512932107,197.44416413787567z" style="fill:rgb(0,0,76);fill-opacity:1"/><path d="M252.88506379810397,192.29687460336436L250.43978025744983,197.2420886145339L253.95490299840387,197.0946280407156z" style="fill:rgb(0,0,113);fill-opacity:1"/><path d="M239.65094607758598,196.16207586612882L242.79120257410784,199.4219308501744L246.7670456536568,199.13651590571592z" style="fill:rgb(0,0,153);fill-opacity:1"/><path d="M353.4500785571693,194.98668736927021L349.44559861732654,195.16203741134058L356.5572361969286,198.20292917372836z" style="fill:rgb(0,0,176);fill-opacity:1"/><path d="M345.8010211466097,197.21267517656105L342.21793272014423,197.1815516584689L343.3634067560636,202.04435848271442z" style="fill:rgb(0,0,85);fill-opacity:1"/><path d="M355.12805206264034,196.91154909836558L357.1010070029248,201.6558690889468L361.16385262549335,201.33250875534682z" style="fill:rgb(0,0,121);fill-opacity:1"/><path d="M343.74951112616293,208.82416328048552L339.64164624213646,209.00255290547886L345.67840838527303,213.49347948294619z" style="fill:rgb(0,0,76);fill-opacity:1"/><path d="M357.48518705405587,208.34618994843484L355.0399035134017,213.29140395960442L358.5550262543556,213.14394338578612z" style="fill:rgb(0,0,113);fill-opacity:1"/><path d="M344.2510693335379,212.21139121119933L347.3913258300597,215.47124619524487L351.36716890960867,215.1858312507864z" style="fill:rgb(0,0,153);fill-opacity:1"/><path d="M447.59018948752583,140.6022273973792L443.5857095476832,140.77757743944954L450.69734712728524,143.81846920183733z" style="fill:rgb(0,0,176);fill-opacity:1"/><path d="M439.9411320769662,142.82821520467002L436.35804365050086,142.7970916865779L437.50351768642025,147.6598985108234z" style="fill:rgb(0,0,85);fill-opacity:1"/><path d="M449.26816299299696,142.52708912647458L451.2411179332813,147.27140911705575L455.30396355585,146.9480487834558z" style="fill:rgb(0,0,121);fill-opacity:1"/><path d="M437.88962205651956,154.4397033085945L433.781757172493,154.61809293358783L439.81851931562954,159.10901951105515z" style="fill:rgb(0,0,76);fill-opacity:1"/><path d="M451.6252979844124,153.9617299765438L449.18001444375835,158.9069439877134L452.6951371847123,158.75948341389508z" style="fill:rgb(0,0,113);fill-opacity:1"/><path d="M438.3911802638944,157.8269312393083L441.53143676041634,161.08678622335384L445.50727983996535,160.80137127889537z" style="fill:rgb(0,0,153);fill-opacity:1"/><path d="M-444.03375302971943,254.24321393225827L-448.35051102201925,254.46097878243955L-444.1543757087265,257.83739993385655z" style="fill:rgb(0,0,166);fill-opacity:1"/><path d="M-450.93390292763337,260.0246292803049L-455.19125132617586,260.1053204282821L-451.89775636394154,265.50418846593897z" style="fill:rgb(0,0,95);fill-opacity:1"/><path d="M-437.9940836818776,259.65900993703644L-437.4301717560742,265.17511044854933L-433.0438315739061,264.88294870167715z" style="fill:rgb(0,0,137);fill-opacity:1"/><path d="M-451.64339255256755,264.1023671920288L-456.0782186513539,264.2514449127262L-451.1134448109907,269.52911880798194z" style="fill:rgb(0,0,92);fill-opacity:1"/><path d="M-437.19657788424763,263.6777704896941L-438.14329880312783,269.26063680135235L-433.94035572164375,269.0274545344275z" style="fill:rgb(0,0,134);fill-opacity:1"/><path d="M-444.93962459235433,271.33026520843566L-445.0431900518767,275.0423903317326L-440.7816886220741,274.68575181127756z" style="fill:rgb(0,0,163);fill-opacity:1"/><path d="M-381.27367907614826,231.74333956193712L-385.5904370684482,231.9611044121184L-381.3943017551553,235.33752556353537z" style="fill:rgb(0,0,166);fill-opacity:1"/><path d="M-388.1738289740623,237.5247549099838L-392.43117737260485,237.60544605796102L-389.13768241037036,243.00431409561787z" style="fill:rgb(0,0,95);fill-opacity:1"/><path d="M-375.23400972830666,237.15913556671538L-374.6700978025031,242.67523607822824L-370.28375762033505,242.38307433135608z" style="fill:rgb(0,0,137);fill-opacity:1"/><path d="M-388.8833185989963,241.60249282170776L-393.3181446977828,241.7515705424051L-388.3533708574197,247.02924443766082z" style="fill:rgb(0,0,92);fill-opacity:1"/><path d="M-374.43650393067657,241.1778961193731L-375.3832248495569,246.76076243103122L-371.1802817680727,246.52758016410633z" style="fill:rgb(0,0,134);fill-opacity:1"/><path d="M-382.17955063878316,248.8303908381145L-382.2831160983055,252.54251596141142L-378.0216146685031,252.18587744095635z" style="fill:rgb(0,0,163);fill-opacity:1"/><path d="M-276.67355582019655,133.22651527776506L-280.9903138124964,133.44428012794634L-276.7941784992036,136.82070127936328z" style="fill:rgb(0,0,166);fill-opacity:1"/><path d="M-283.57370571811055,139.00793062581175L-287.8310541166531,139.08862177378893L-284.53755915441866,144.48748981144576z" style="fill:rgb(0,0,95);fill-opacity:1"/><path d="M-270.6338864723549,138.6423112825433L-270.0699745465514,144.15841179405615L-265.6836343643833,143.866250047184z" style="fill:rgb(0,0,137);fill-opacity:1"/><path d="M-284.2831953430446,143.08566853753567L-288.718021441831,143.234746258233L-283.75324760146793,148.5124201534887z" style="fill:rgb(0,0,92);fill-opacity:1"/><path d="M-269.83638067472486,142.661071835201L-270.7831015936051,148.2439381468591L-266.58015851212093,148.0107558799342z" style="fill:rgb(0,0,134);fill-opacity:1"/><path d="M-277.57942738283145,150.31356655394248L-277.6829928423538,154.02569167723937L-273.4214914125513,153.66905315678426z" style="fill:rgb(0,0,163);fill-opacity:1"/><path d="M-172.07343256424477,151.67551913113763L-176.39019055654464,151.89328398131892L-172.19405524325174,155.26970513273585z" style="fill:rgb(0,0,166);fill-opacity:1"/><path d="M-178.97358246215876,157.45693447918435L-183.23093086070122,157.53762562716153L-179.93743589846684,162.93649366481833z" style="fill:rgb(0,0,95);fill-opacity:1"/><path d="M-166.03376321640303,157.0913151359159L-165.46985129059956,162.60741564742872L-161.08351110843148,162.31525390055657z" style="fill:rgb(0,0,137);fill-opacity:1"/><path d="M-179.68307208709282,161.53467239090824L-184.1178981858792,161.68375011160558L-179.1531243455161,166.9614240068613z" style="fill:rgb(0,0,92);fill-opacity:1"/><path d="M-165.23625741877302,161.11007568857357L-166.18297833765328,166.6929420002317L-161.98003525616906,166.4597597333068z" style="fill:rgb(0,0,134);fill-opacity:1"/><path d="M-172.97930412687964,168.76257040731508L-173.08286958640198,172.47469553061197L-168.82136815659953,172.11805701015686z" style="fill:rgb(0,0,163);fill-opacity:1"/><path d="M-67.47330930829304,241.13182388190106L-71.79006730059295,241.34958873208234L-67.59393198730001,244.72600988349927z" style="fill:rgb(0,0,166);fill-opacity:1"/><path d="M-74.37345920620706,246.91323922994778L-78.63080760474953,246.99393037792495L-75.33731264251512,252.39279841558178z" style="fill:rgb(0,0,95);fill-opacity:1"/><path d="M-61.43363996045135,246.5476198866793L-60.86972803464787,252.06372039819217L-56.48338785247977,251.77155865132002z" style="fill:rgb(0,0,137);fill-opacity:1"/><path d="M-75.0829488311411,250.9909771416717L-79.5177749299275,251.14005486236903L-74.55300108956442,256.41772875762473z" style="fill:rgb(0,0,92);fill-opacity:1"/><path d="M-60.63613416282133,250.56638043933702L-61.58285508170158,256.14924675099513L-57.37991200021738,255.91606448407023z" style="fill:rgb(0,0,134);fill-opacity:1"/><path d="M-68.3791808709279,258.21887515807845L-68.48274633045027,261.93100028137536L-64.22124490064783,261.57436176092034z" style="fill:rgb(0,0,163);fill-opacity:1"/><path d="M26.666801622063627,223.86538218852147L22.35004362976372,224.08314703870278L26.54617894305666,227.45956819011963z" style="fill:rgb(0,0,166);fill-opacity:1"/><path d="M19.766651724149597,229.64679753656813L15.509303325607142,229.7274886845453L18.80279828784151,235.1263567222021z" style="fill:rgb(0,0,95);fill-opacity:1"/><path d="M32.706470969905325,229.28117819329967L33.270382895708764,234.7972787048125L37.65672307787691,234.50511695794034z" style="fill:rgb(0,0,137);fill-opacity:1"/><path d="M19.05716209921554,233.72453544829202L14.62233600042914,233.87361316898935L19.587109840792237,239.1512870642451z" style="fill:rgb(0,0,92);fill-opacity:1"/><path d="M33.503976767535306,233.29993874595735L32.5572558486551,238.8828050576155L36.760198930139296,238.64962279069061z" style="fill:rgb(0,0,134);fill-opacity:1"/><path d="M25.760930059428766,240.95243346469886L25.657364599906405,244.66455858799577L29.918866029708845,244.3079200675407z" style="fill:rgb(0,0,163);fill-opacity:1"/><path d="M141.72693720361048,217.90295489362055L137.41017921131063,218.12071974380183L141.6063145246035,221.49714089521876z" style="fill:rgb(0,0,166);fill-opacity:1"/><path d="M134.8267873056965,223.68437024166727L130.56943890715402,223.76506138964444L133.8629338693884,229.16392942730127z" style="fill:rgb(0,0,95);fill-opacity:1"/><path d="M147.7666065514522,223.3187508983988L148.33051847725574,228.83485140991166L152.7168586594238,228.5426896630395z" style="fill:rgb(0,0,137);fill-opacity:1"/><path d="M134.11729768076242,227.76210815339118L129.68247158197605,227.91118587408852L134.64724542233918,233.1888597693442z" style="fill:rgb(0,0,92);fill-opacity:1"/><path d="M148.56411234908228,227.3375114510565L147.61739143020196,232.9203777627146L151.82033451168618,232.6871954957897z" style="fill:rgb(0,0,134);fill-opacity:1"/><path d="M140.8210656409756,234.99000616979797L140.71750018145326,238.70213129309485L144.97900161125574,238.34549277263974z" style="fill:rgb(0,0,163);fill-opacity:1"/><path d="M246.32706045956218,178.79725235578275L242.01030246726233,179.01501720596403L246.2064377805552,182.39143835738096z" style="fill:rgb(0,0,166);fill-opacity:1"/><path d="M239.4269105616482,184.57866770382944L235.16956216310572,184.65935885180662L238.4630571253401,190.05822688946344z" style="fill:rgb(0,0,95);fill-opacity:1"/><path d="M252.3667298074039,184.21304836056098L252.93064173320744,189.72914887207384L257.3169819153755,189.43698712520168z" style="fill:rgb(0,0,137);fill-opacity:1"/><path d="M238.71742093671412,188.65640561555335L234.28259483792775,188.8054833362507L239.24736867829088,194.0831572315064z" style="fill:rgb(0,0,92);fill-opacity:1"/><path d="M253.16423560503398,188.23180891321869L252.21751468615366,193.8146752248768L256.42045776763786,193.5814929579519z" style="fill:rgb(0,0,134);fill-opacity:1"/><path d="M245.4211888969273,195.8843036319601L245.31762343740496,199.59642875525705L249.5791248672074,199.23979023480197z" style="fill:rgb(0,0,163);fill-opacity:1"/><path d="M350.92718371551405,194.84656770085323L346.61042572321423,195.0643325510345L350.806561036507,198.44075370245142z" style="fill:rgb(0,0,166);fill-opacity:1"/><path d="M344.0270338176001,200.62798304889995L339.7696854190576,200.70867419687713L343.06318038129194,206.10754223453387z" style="fill:rgb(0,0,95);fill-opacity:1"/><path d="M356.9668530633558,200.2623637056315L357.5307649891592,205.77846421714426L361.91710517132736,205.4863024702721z" style="fill:rgb(0,0,137);fill-opacity:1"/><path d="M343.31754419266593,204.70572096062378L338.88271809387953,204.8547986813211L343.8474919342428,210.13247257657687z" style="fill:rgb(0,0,92);fill-opacity:1"/><path d="M357.76435886098574,204.2811242582891L356.8176379421056,209.86399056994728L361.0205810235897,209.63080830302238z" style="fill:rgb(0,0,134);fill-opacity:1"/><path d="M350.02131215287915,211.93361897703065L349.9177466933568,215.6457441003275L354.17924812315937,215.28910557987246z" style="fill:rgb(0,0,163);fill-opacity:1"/><path d="M445.06729464587073,140.4621077289622L440.75053665357086,140.67987257914348L444.9466719668637,144.0562937305604z" style="fill:rgb(0,0,166);fill-opacity:1"/><path d="M438.16714474795674,146.24352307700892L433.90979634941414,146.3242142249861L437.20329131164857,151.7230822626429z" style="fill:rgb(0,0,95);fill-opacity:1"/><path d="M451.1069639937123,145.87790373374045L451.6708759195159,151.39400424525329L456.057216101684,151.10184249838113z" style="fill:rgb(0,0,137);fill-opacity:1"/><path d="M437.45765512302256,150.3212609887328L433.02282902423616,150.47033870943014L437.9876028645994,155.74801260468584z" style="fill:rgb(0,0,92);fill-opacity:1"/><path d="M451.9044697913424,149.89666428639813L450.9577488724621,155.47953059805624L455.16069195394635,155.24634833113134z" style="fill:rgb(0,0,134);fill-opacity:1"/><path d="M444.16142308323583,157.5491590051396L444.05785762371346,161.2612841284365L448.3193590535159,160.90464560798142z" style="fill:rgb(0,0,163);fill-opacity:1"/><path d="M-447.4516249228586,254.07160214679345L-450.7476399658359,257.42921525115986L-443.6739812737997,257.35357011984627z" style="fill:rgb(0,0,166);fill-opacity:1"/><path d="M-438.36653261083956,271.78659916135547L-445.4634427749393,271.8623187269883L-441.5999214784971,275.0966945938568z" style="fill:rgb(0,0,163);fill-opacity:1"/><path d="M-384.69155096928756,231.5717277764723L-387.98756601226484,234.92934088083865L-380.91390732022853,234.85369574952517z" style="fill:rgb(0,0,166);fill-opacity:1"/><path d="M-375.60645865726843,249.28672479103435L-382.70336882136814,249.36244435666714L-378.8398475249261,252.5968202235356z" style="fill:rgb(0,0,163);fill-opacity:1"/><path d="M-280.0914277133358,133.05490349230024L-283.3874427563131,136.41251659666656L-276.31378406427683,136.33687146535308z" style="fill:rgb(0,0,166);fill-opacity:1"/><path d="M-271.0063354013167,150.76990050686226L-278.10324556541644,150.8456200724951L-274.23972426897427,154.07999593936353z" style="fill:rgb(0,0,163);fill-opacity:1"/><path d="M-175.49130445738405,151.50390734567281L-178.78731950036126,154.86152045003914L-171.71366080832496,154.78587531872566z" style="fill:rgb(0,0,166);fill-opacity:1"/><path d="M-166.4062121453649,169.21890436023486L-173.50312230946466,169.29462392586768L-169.63960101302246,172.52899979273616z" style="fill:rgb(0,0,163);fill-opacity:1"/><path d="M-70.89118120143233,240.96021209643624L-74.18719624440959,244.31782520080256L-67.11353755237324,244.24218006948908z" style="fill:rgb(0,0,166);fill-opacity:1"/><path d="M-61.8060888894132,258.67520911099825L-68.90299905351293,258.7509286766311L-65.03947775707074,261.9853045434996z" style="fill:rgb(0,0,163);fill-opacity:1"/><path d="M23.248929728924328,223.69377040305667L19.95291468594709,227.05138350742294L27.026573377983432,226.97573837610943z" style="fill:rgb(0,0,166);fill-opacity:1"/><path d="M32.33402204094347,241.40876741761866L25.237111876843745,241.4844869832515L29.10063317328592,244.71886285011996z" style="fill:rgb(0,0,163);fill-opacity:1"/><path d="M138.30906531047123,217.73134310815573L135.013050267494,221.08895621252205L142.08670895953028,221.01331108120857z" style="fill:rgb(0,0,166);fill-opacity:1"/><path d="M147.39415762249035,235.44634012271774L140.2972474583906,235.5220596883506L144.16076875483282,238.756435555219z" style="fill:rgb(0,0,163);fill-opacity:1"/><path d="M242.90918856642293,178.62564057031793L239.6131735234457,181.98325367468425L246.68683221548199,181.90760854337077z" style="fill:rgb(0,0,166);fill-opacity:1"/><path d="M251.99428087844205,196.34063758487991L244.8973707143423,196.41635715051274L248.7608920107845,199.65073301738124z" style="fill:rgb(0,0,163);fill-opacity:1"/><path d="M347.50931182237485,194.6749559153884L344.21329677939764,198.0325690197547L351.28695547143377,197.95692388844122z" style="fill:rgb(0,0,166);fill-opacity:1"/><path d="M356.5944041343939,212.38995292995043L349.49749397029416,212.46567249558328L353.3610152667364,215.7000483624517z" style="fill:rgb(0,0,163);fill-opacity:1"/><path d="M441.6494227527315,140.29049594349738L438.35340770975415,143.6481090478637L445.42706640179046,143.57246391655022z" style="fill:rgb(0,0,166);fill-opacity:1"/><path d="M450.73451506475055,158.00549295805942L443.63760490065084,158.08121252369222L447.5011261970929,161.31558839056066z" style="fill:rgb(0,0,163);fill-opacity:1"/><path d="M-445.00229057517214,254.02867383598982L-445.0483419857548,257.6023867761235L-438.2663325504291,257.22332690568624z" style="fill:rgb(0,0,176);fill-opacity:1"/><path d="M-444.0434790640937,271.64432216895153L-450.849944529936,271.96002358729436L-444.09275432138463,275.14126672595467z" style="fill:rgb(0,0,153);fill-opacity:1"/><path d="M-382.24221662160096,231.52879946566867L-382.2882680321836,235.1025124058024L-375.506258596858,234.72345253536506z" style="fill:rgb(0,0,176);fill-opacity:1"/><path d="M-381.2834051105225,249.14444779863038L-388.08987057636494,249.4601492169732L-381.33268036781345,252.64139235563349z" style="fill:rgb(0,0,153);fill-opacity:1"/><path d="M-277.64209336564926,133.0119751814966L-277.6881447762319,136.5856881216303L-270.90613534090625,136.20662825119297z" style="fill:rgb(0,0,176);fill-opacity:1"/><path d="M-276.6832818545708,150.62762351445832L-283.4897473204132,150.94332493280115L-276.73255711186175,154.12456807146143z" style="fill:rgb(0,0,153);fill-opacity:1"/><path d="M-173.04197010969742,151.46097903486918L-173.08802152028008,155.0346919750029L-166.30601208495452,154.65563210456554z" style="fill:rgb(0,0,176);fill-opacity:1"/><path d="M-172.083158598619,169.07662736783092L-178.88962406446137,169.39232878617375L-172.1324338559099,172.57357192483403z" style="fill:rgb(0,0,153);fill-opacity:1"/><path d="M-68.4418468537457,240.9172837856326L-68.48789826432835,244.4909967257663L-61.7058888290028,244.11193685532896z" style="fill:rgb(0,0,176);fill-opacity:1"/><path d="M-67.48303534266726,258.5329321185943L-74.28950080850969,258.84863353693714L-67.5323105999582,262.02987667559745z" style="fill:rgb(0,0,153);fill-opacity:1"/><path d="M25.69826407661097,223.65084209225301L25.652212666028316,227.2245550323867L32.43422210135387,226.84549516194934z" style="fill:rgb(0,0,176);fill-opacity:1"/><path d="M26.657075587689402,241.26649042521473L19.850610121846994,241.58219184355755L26.607800330398476,244.76343498221783z" style="fill:rgb(0,0,153);fill-opacity:1"/><path d="M140.75839965815783,217.6884147973521L140.71234824757516,221.2621277374858L147.49435768290073,220.88306786704845z" style="fill:rgb(0,0,176);fill-opacity:1"/><path d="M141.71721116923624,235.3040631303138L134.9107457033939,235.61976454865663L141.66793591194534,238.8010076873169z" style="fill:rgb(0,0,153);fill-opacity:1"/><path d="M245.35852291410953,178.5827122595143L245.31247150352687,182.156425199648L252.09448093885243,181.77736532921065z" style="fill:rgb(0,0,176);fill-opacity:1"/><path d="M246.31733442518794,196.19836059247598L239.5108689593456,196.5140620108188L246.26805916789704,199.6953051494791z" style="fill:rgb(0,0,153);fill-opacity:1"/><path d="M349.95864617006134,194.63202760458478L349.9125947594787,198.20574054471845L356.69460419480436,197.8266806742811z" style="fill:rgb(0,0,176);fill-opacity:1"/><path d="M350.9174576811398,212.2476759375465L344.11099221529753,212.56337735588932L350.86818242384885,215.7446204945496z" style="fill:rgb(0,0,153);fill-opacity:1"/><path d="M444.098757100418,140.24756763269374L444.05270568983536,143.82128057282745L450.834715125161,143.4422207023901z" style="fill:rgb(0,0,176);fill-opacity:1"/><path d="M445.0575686114965,157.86321596565546L438.25110314565404,158.17891738399828L445.00829335420553,161.36016052265856z" style="fill:rgb(0,0,153);fill-opacity:1"/><path d="M-445.0505206771177,127.96634201315058L-444.7137856876738,150.77913995522053L-436.3429926109419,127.99730315901752z" style="fill:rgb(260,0,0);fill-opacity:1"/><path d="M-452.7614596004862,127.99856949203696L-444.38003637939255,150.77793537126595L-444.05434807115824,127.96628026408573z" style="fill:rgb(244,0,0);fill-opacity:1"/><path d="M-382.2904467235465,-161.69231194824314L-381.9537117341026,-138.8795140061732L-373.58291865737084,-161.6613508023762z" style="fill:rgb(260,0,0);fill-opacity:1"/><path d="M-390.001385646915,-161.66008446935675L-381.61996242582137,-138.88071859012777L-381.29427411758707,-161.69237369730803z" style="fill:rgb(244,0,0);fill-opacity:1"/><path d="M-277.6903234675948,-160.80034668147965L-277.3535884781509,-137.98754873940968L-268.98279540141914,-160.7693855356127z" style="fill:rgb(260,0,0);fill-opacity:1"/><path d="M-285.4012623909633,-160.76811920259325L-277.01983916986967,-137.98875332336425L-276.69415086163536,-160.80040843054454z" style="fill:rgb(244,0,0);fill-opacity:1"/><path d="M-173.09020021164295,-196.05243619276607L-172.7534652221991,-173.23963825069612L-164.38267214546732,-196.02147504689913z" style="fill:rgb(260,0,0);fill-opacity:1"/><path d="M-180.8011391350115,-196.02020871387967L-172.41971591391783,-173.2408428346507L-172.09402760568358,-196.05249794183095z" style="fill:rgb(244,0,0);fill-opacity:1"/><path d="M-68.49007695569122,-202.92078521543309L-68.15334196624738,-180.10798727336308L-59.782548889515624,-202.88982406956615z" style="fill:rgb(260,0,0);fill-opacity:1"/><path d="M-76.2010158790598,-202.8885577365467L-67.81959265796611,-180.10919185731765L-67.49390434973184,-202.92084696449797z" style="fill:rgb(244,0,0);fill-opacity:1"/><path d="M25.650033974665444,-275.7709906306651L25.986768964109288,-252.95819268859515L34.35756204084102,-275.7400294847982z" style="fill:rgb(260,0,0);fill-opacity:1"/><path d="M17.939095051296846,-275.7387631517787L26.32051827239056,-252.95939727254972L26.64620658062483,-275.77105237972995z" style="fill:rgb(244,0,0);fill-opacity:1"/><path d="M140.7101695562123,136.25574821831816L141.04690454565613,159.06854616038808L149.41769762238798,136.2867093641851z" style="fill:rgb(260,0,0);fill-opacity:1"/><path d="M132.99923063284373,136.28797569720456L141.38065385393742,159.0673415764335L141.70634216217167,136.25568646925328z" style="fill:rgb(244,0,0);fill-opacity:1"/><path d="M245.310292812164,173.23615945024488L245.64702780160783,196.04895739231483L254.01782087833968,173.26712059611182z" style="fill:rgb(260,0,0);fill-opacity:1"/><path d="M237.59935388879543,173.26838692913128L245.98077710988912,196.04775280836026L246.30646541812337,173.23609770118z" style="fill:rgb(244,0,0);fill-opacity:1"/><path d="M349.9104160681158,121.09844846991213L350.2471510575597,143.91124641198206L358.61794413429146,121.12940961577907z" style="fill:rgb(260,0,0);fill-opacity:1"/><path d="M342.1994771447473,121.13067594879851L350.58090036584093,143.9100418280275L350.90658867407524,121.09838672084727z" style="fill:rgb(244,0,0);fill-opacity:1"/><path d="M444.0505269984725,161.52868239195783L444.38726198791636,184.3414803340278L452.75805506464815,161.55964353782477z" style="fill:rgb(260,0,0);fill-opacity:1"/><path d="M436.3395880751039,161.56090987084423L444.7210112961976,184.34027575007323L445.0466996044319,161.52862064289295z" style="fill:rgb(244,0,0);fill-opacity:1"/><path d="M-438.91451593823354,256.59686077711433L-445.5041876041606,256.845515219396L-436.9282624091448,261.1861480154492z" style="fill:rgb(0,0,251);fill-opacity:1"/><path d="M-452.18066511996915,268.0059135115509L-450.1695971414362,272.64032173159035L-443.60591481382585,272.3252407448993z" style="fill:rgb(0,0,227);fill-opacity:1"/><path d="M-376.1544419846624,234.09698640679315L-382.74411365058944,234.34564084907484L-374.16818845557384,238.68627364512815z" style="fill:rgb(0,0,251);fill-opacity:1"/><path d="M-389.4205911663981,245.50603914122976L-387.40952318786515,250.1404473612692L-380.84584086025467,249.82536637457815z" style="fill:rgb(0,0,227);fill-opacity:1"/><path d="M-271.55431872871065,135.58016212262106L-278.14399039463774,135.82881656490275L-269.5680651996221,140.16944936095607z" style="fill:rgb(0,0,251);fill-opacity:1"/><path d="M-284.8204679104463,146.98921485705765L-282.8093999319134,151.62362307709714L-276.24571760430297,151.3085420904061z" style="fill:rgb(0,0,227);fill-opacity:1"/><path d="M-166.95419547275887,154.02916597599364L-173.54386713868593,154.27782041827533L-164.9679419436702,158.61845321432867z" style="fill:rgb(0,0,251);fill-opacity:1"/><path d="M-180.22034465449448,165.43821871043025L-178.20927667596158,170.07262693046974L-171.64559434835118,169.7575459437787z" style="fill:rgb(0,0,227);fill-opacity:1"/><path d="M-62.35407221680718,243.48547072675706L-68.94374388273421,243.73412516903875L-60.36781868771851,248.0747579650921z" style="fill:rgb(0,0,251);fill-opacity:1"/><path d="M-75.62022139854281,254.89452346119367L-73.60915342000987,259.52893168123313L-67.04547109239944,259.2138506945421z" style="fill:rgb(0,0,227);fill-opacity:1"/><path d="M31.78603871354949,226.21902903337744L25.19636704762246,226.46768347565913L33.772292242638166,230.80831627171244z" style="fill:rgb(0,0,251);fill-opacity:1"/><path d="M18.51988953181384,237.62808176781405L20.530957510346802,242.26248998785354L27.09463983795723,241.9474090011625z" style="fill:rgb(0,0,227);fill-opacity:1"/><path d="M146.84617429509638,220.25660173847655L140.25650262916932,220.50525618075824L148.83242782418503,224.84588897681158z" style="fill:rgb(0,0,251);fill-opacity:1"/><path d="M133.5800251133608,231.66565447291313L135.5910930918937,236.30006269295262L142.15477541950406,235.98498170626158z" style="fill:rgb(0,0,227);fill-opacity:1"/><path d="M251.44629755104808,181.15089920063875L244.85662588512102,181.39955364292044L253.43255108013673,185.74018643897375z" style="fill:rgb(0,0,251);fill-opacity:1"/><path d="M238.1801483693125,192.55995193507533L240.1912163478454,197.1943601551148L246.75489867545576,196.87927916842375z" style="fill:rgb(0,0,227);fill-opacity:1"/><path d="M356.04642080699995,197.2002145457092L349.45674914107286,197.4488689879909L358.03267433608863,201.78950178404426z" style="fill:rgb(0,0,251);fill-opacity:1"/><path d="M342.78027162526433,208.60926728014581L344.7913396037973,213.2436755001853L351.35502193140763,212.92859451349426z" style="fill:rgb(0,0,227);fill-opacity:1"/><path d="M450.1865317373566,142.8157545738182L443.59686007142955,143.0644090160999L452.17278526644515,147.40504181215323z" style="fill:rgb(0,0,251);fill-opacity:1"/><path d="M436.92038255562096,154.22480730825478L438.93145053415384,158.85921552829427L445.4951328617643,158.54413454160323z" style="fill:rgb(0,0,227);fill-opacity:1"/><path d="M-450.0829303651083,256.31947605019906L-452.23313190283056,261.0005535516343L-443.6401148072923,260.7698360350409z" style="fill:rgb(0,0,236);fill-opacity:1"/><path d="M-436.8719955554988,268.22849103213883L-445.4805468168859,268.4278226269957L-438.9944235791542,272.85382070399123z" style="fill:rgb(0,0,243);fill-opacity:1"/><path d="M-387.32285641153726,233.81960167987788L-389.4730579492595,238.50067918131322L-380.88004085372114,238.26996166471983z" style="fill:rgb(0,0,236);fill-opacity:1"/><path d="M-374.11192160192786,245.72861666181768L-382.72047286331474,245.92794825667457L-376.2343496255831,250.3539463336701z" style="fill:rgb(0,0,243);fill-opacity:1"/><path d="M-282.7227331555855,135.3027773957058L-284.87293469330774,139.98385489714113L-276.27991759776944,139.75313738054774z" style="fill:rgb(0,0,236);fill-opacity:1"/><path d="M-269.5117983459761,147.21179237764557L-278.12034960736304,147.41112397250245L-271.63422636963134,151.83712204949805z" style="fill:rgb(0,0,243);fill-opacity:1"/><path d="M-178.12260989963366,153.75178124907836L-180.2728114373559,158.43285875051373L-171.67979434181768,158.20214123392034z" style="fill:rgb(0,0,236);fill-opacity:1"/><path d="M-164.91167509002423,165.6607962310182L-173.5202263514112,165.86012782587505L-167.03410311367958,170.28612590287062z" style="fill:rgb(0,0,243);fill-opacity:1"/><path d="M-73.52248664368197,243.20808599984178L-75.67268818140423,247.88916350127715L-67.07967108586593,247.65844598468377z" style="fill:rgb(0,0,236);fill-opacity:1"/><path d="M-60.31155183407256,255.11710098178162L-68.92010309545947,255.31643257663848L-62.43397985772788,259.742430653634z" style="fill:rgb(0,0,243);fill-opacity:1"/><path d="M20.617624286674705,225.94164430646217L18.467422748952423,230.6227218078975L27.060439844490745,230.39200429130412z" style="fill:rgb(0,0,236);fill-opacity:1"/><path d="M33.82855909628412,237.850659288402L25.220007834897203,238.04999088325886L31.7061310726288,242.47598896025443z" style="fill:rgb(0,0,243);fill-opacity:1"/><path d="M135.6777598682216,219.97921701156127L133.52755833049937,224.66029451299664L142.12057542603756,224.42957699640326z" style="fill:rgb(0,0,236);fill-opacity:1"/><path d="M148.888694677831,231.88823199350108L140.28014341644405,232.08756358835794L146.76626665417567,236.5135616653535z" style="fill:rgb(0,0,243);fill-opacity:1"/><path d="M240.27788312417331,180.87351447372347L238.12768158645108,185.55459197515881L246.72069868198926,185.32387445856543z" style="fill:rgb(0,0,236);fill-opacity:1"/><path d="M253.4888179337827,192.78252945566328L244.88026667239575,192.98186105052014L251.36638991012737,197.40785912751568z" style="fill:rgb(0,0,243);fill-opacity:1"/><path d="M344.8780063801252,196.92282981879393L342.7278048424029,201.60390732022933L351.32082193794116,201.37318980363594z" style="fill:rgb(0,0,236);fill-opacity:1"/><path d="M358.0889411897346,208.83184480073376L349.48038992834756,209.03117639559062L355.96651316607927,213.4571744725862z" style="fill:rgb(0,0,243);fill-opacity:1"/><path d="M439.0181173104817,142.53836984690292L436.86791577275955,147.2194473483383L445.46093286829785,146.9887298317449z" style="fill:rgb(0,0,236);fill-opacity:1"/><path d="M452.2290521200911,154.4473848288427L443.62050085870425,154.6467164236996L450.1066240964359,159.07271450069518z" style="fill:rgb(0,0,243);fill-opacity:1"/><path d="M-444.04111100816283,256.55581607156154L-450.815153218915,256.800619176607L-444.1299136883365,261.27208876379103z" style="fill:rgb(0,0,236);fill-opacity:1"/><path d="M-444.9656796656942,267.9042812427903L-445.0483419857548,272.690931851427L-438.30294345990706,272.3762628938232z" style="fill:rgb(0,0,243);fill-opacity:1"/><path d="M-381.28103705459165,234.05594170124039L-388.0550792653439,234.30074480628582L-381.3698397347653,238.77221439346994z" style="fill:rgb(0,0,236);fill-opacity:1"/><path d="M-382.20560571212303,245.4044068724692L-382.2882680321836,250.1910574811059L-375.54286950633593,249.87638852350202z" style="fill:rgb(0,0,243);fill-opacity:1"/><path d="M-276.68091379863995,135.5391174170683L-283.45495600939216,135.78392052211373L-276.7697164788136,140.25539010929785z" style="fill:rgb(0,0,236);fill-opacity:1"/><path d="M-277.60548245617133,146.88758258829708L-277.6881447762319,151.67423319693384L-270.9427462503842,151.35956423932996z" style="fill:rgb(0,0,243);fill-opacity:1"/><path d="M-172.08079054268813,153.98812127044087L-178.85483275344032,154.2329243754863L-172.16959322286183,158.70439396267045z" style="fill:rgb(0,0,236);fill-opacity:1"/><path d="M-173.00535920021952,165.33658644166968L-173.08802152028008,170.12323705030644L-166.34262299443242,169.80856809270256z" style="fill:rgb(0,0,243);fill-opacity:1"/><path d="M-67.4806672867364,243.4444260212043L-74.25470949748863,243.68922912624973L-67.5694699669101,248.16069871343387z" style="fill:rgb(0,0,236);fill-opacity:1"/><path d="M-68.40523594426779,254.7928911924331L-68.48789826432835,259.5795418010698L-61.74249973848071,259.264872843466z" style="fill:rgb(0,0,243);fill-opacity:1"/><path d="M26.659443643620268,226.17798432782467L19.88540143286804,226.4227874328701L26.570640963446564,230.89425702005423z" style="fill:rgb(0,0,236);fill-opacity:1"/><path d="M25.73487498608888,237.52644949905348L25.652212666028316,242.31310010769025L32.39761119187596,241.99843115008636z" style="fill:rgb(0,0,243);fill-opacity:1"/><path d="M141.7195792251671,220.21555703292378L134.94553701441495,220.46036013796922L141.6307765449934,224.93182972515336z" style="fill:rgb(0,0,236);fill-opacity:1"/><path d="M140.79501056763573,231.56402220415256L140.71234824757516,236.35067281278933L147.45774677342283,236.03600385518544z" style="fill:rgb(0,0,243);fill-opacity:1"/><path d="M246.3197024811188,181.10985449508598L239.54566027036665,181.35465760013142L246.2308998009451,185.82612718731554z" style="fill:rgb(0,0,236);fill-opacity:1"/><path d="M245.39513382358743,192.45831966631476L245.31247150352687,197.2449702749515L252.05787002937453,196.9303013173476z" style="fill:rgb(0,0,243);fill-opacity:1"/><path d="M350.91982573707065,197.15916984015644L344.1457835263186,197.40397294520187L350.8310230568969,201.87544253238605z" style="fill:rgb(0,0,236);fill-opacity:1"/><path d="M349.9952570795393,208.50763501138525L349.9125947594787,213.294285620022L356.6579932853264,212.97961666241812z" style="fill:rgb(0,0,243);fill-opacity:1"/><path d="M445.05993666742734,142.77470986826543L438.28589445667507,143.01951297331087L444.97113398725367,147.490982560495z" style="fill:rgb(0,0,236);fill-opacity:1"/><path d="M444.13536800989596,154.1231750394942L444.05270568983536,158.90982564813098L450.79810421568305,158.5951566905271z" style="fill:rgb(0,0,243);fill-opacity:1"/><path d="M-437.14044061913836,260.02067198816303L-445.496381480094,260.2907706939774L-436.5004777166839,265.32269549238555z" style="fill:rgb(0,0,287);fill-opacity:1"/><path d="M-452.6007083837656,263.86060467307624L-451.9496001560907,269.213842202119L-443.6155346709976,268.8914149502787z" style="fill:rgb(0,0,266);fill-opacity:1"/><path d="M-444.0442141735914,268.18297072618446L-452.4741867639775,268.47271866978474L-444.10316973563323,272.85444496715655z" style="fill:rgb(0,0,227);fill-opacity:1"/><path d="M-374.3803666655674,237.52079761784194L-382.7363075265228,237.79089632365628L-373.74040376311285,242.82282112206448z" style="fill:rgb(0,0,287);fill-opacity:1"/><path d="M-389.8406344301944,241.36073030275514L-389.18952620251963,246.71396783179785L-380.8554607174264,246.39154057995765z" style="fill:rgb(0,0,266);fill-opacity:1"/><path d="M-381.2841402200202,245.68309635586334L-389.71411281040645,245.9728442994636L-381.34309578206205,250.35457059683543z" style="fill:rgb(0,0,227);fill-opacity:1"/><path d="M-269.78024340961565,139.00397333366985L-278.1361842705711,139.2740720394842L-269.14028050716115,144.3059968378924z" style="fill:rgb(0,0,287);fill-opacity:1"/><path d="M-285.2405111742427,142.84390601858306L-284.5894029465679,148.19714354762573L-276.2553374614747,147.87471629578553z" style="fill:rgb(0,0,266);fill-opacity:1"/><path d="M-276.6840169640685,147.16627207169122L-285.1139895544547,147.45602001529147L-276.74297252611035,151.83774631266337z" style="fill:rgb(0,0,227);fill-opacity:1"/><path d="M-165.18012015366378,157.45297718704245L-173.5360610146193,157.7230758928568L-164.5401572512093,162.75500069126497z" style="fill:rgb(0,0,287);fill-opacity:1"/><path d="M-180.64038791829094,161.29290987195563L-179.98927969061606,166.64614740099833L-171.65521420552287,166.32372014915813z" style="fill:rgb(0,0,266);fill-opacity:1"/><path d="M-172.0838937081167,165.61527592506383L-180.51386629850288,165.90502386866407L-172.14284927015854,170.28675016603597z" style="fill:rgb(0,0,227);fill-opacity:1"/><path d="M-60.57999689771209,246.90928193780587L-68.93593775866758,247.17938064362022L-59.94003399525761,252.21130544202842z" style="fill:rgb(0,0,287);fill-opacity:1"/><path d="M-76.0402646623392,250.74921462271908L-75.38915643466436,256.1024521517618L-67.05509094957117,255.78002489992156z" style="fill:rgb(0,0,266);fill-opacity:1"/><path d="M-67.48377045216496,255.07158067582725L-75.91374304255119,255.3613286194275L-67.5427260142068,259.74305491679934z" style="fill:rgb(0,0,227);fill-opacity:1"/><path d="M33.56011403264459,229.64284024442622L25.2041731716891,229.91293895024057L34.20007693509903,234.94486374864874z" style="fill:rgb(0,0,287);fill-opacity:1"/><path d="M18.09984626801744,233.4827729293394L18.750954495692287,238.83601045838213L27.08501998078551,238.51358320654194z" style="fill:rgb(0,0,266);fill-opacity:1"/><path d="M26.656340478191705,237.80513898244763L18.22636788780546,238.09488692604788L26.597384916149867,242.47661322341978z" style="fill:rgb(0,0,227);fill-opacity:1"/><path d="M148.62024961419147,223.68041294952536L140.26430875323595,223.9505116553397L149.260212516646,228.9824364537479z" style="fill:rgb(0,0,287);fill-opacity:1"/><path d="M133.1599818495643,227.52034563443857L133.81109007723921,232.87358316348121L142.14515556233238,232.55115591164102z" style="fill:rgb(0,0,266);fill-opacity:1"/><path d="M141.71647605973854,231.8427116875467L133.2865034693524,232.13245963114696L141.6575204976967,236.51418592851886z" style="fill:rgb(0,0,227);fill-opacity:1"/><path d="M253.22037287014317,184.57471041168753L244.86443200918765,184.84480911750188L253.8603357725977,189.87673391591008z" style="fill:rgb(0,0,287);fill-opacity:1"/><path d="M237.760105105516,188.41464309660074L238.41121333319091,193.76788062564341L246.74527881828408,193.44545337380322z" style="fill:rgb(0,0,266);fill-opacity:1"/><path d="M246.31659931569024,192.7370091497089L237.8866267253041,193.02675709330916L246.2576437536484,197.40848339068103z" style="fill:rgb(0,0,227);fill-opacity:1"/><path d="M357.82049612609507,200.62402575675804L349.4645552651395,200.8941244625724L358.46045902854945,205.9260492609805z" style="fill:rgb(0,0,287);fill-opacity:1"/><path d="M342.3602283614679,204.46395844167117L343.0113365891428,209.8171959707139L351.3454020742359,209.4947687188737z" style="fill:rgb(0,0,266);fill-opacity:1"/><path d="M350.9167225716421,208.7863244947794L342.48674998125597,209.07607243837964L350.85776700960025,213.45779873575154z" style="fill:rgb(0,0,227);fill-opacity:1"/><path d="M451.9606070564516,146.239565784867L443.6046661954962,146.50966449068136L452.60056995890614,151.54158928908953z" style="fill:rgb(0,0,287);fill-opacity:1"/><path d="M436.5003392918245,150.0794984697802L437.1514475194994,155.43273599882286L445.4855130045926,155.11030874698267z" style="fill:rgb(0,0,266);fill-opacity:1"/><path d="M445.05683350199877,154.40186452288836L436.6268609116126,154.6916124664886L444.99787793995694,159.0733387638605z" style="fill:rgb(0,0,227);fill-opacity:1"/><path d="M-444.99311326307975,256.3231020109759L-445.0492422678073,261.0528451625951L-436.6392168226811,260.7139184633033zM-382.23303930950857,233.82322764065472L-382.2891683142361,238.55297079227398L-373.8791428691101,238.21404409298222zM-277.63291605355687,135.30640335648263L-277.6890450582844,140.0361465081019L-269.27901961315837,139.69721980881013zM-173.03279279760503,153.7554072098552L-173.08892180233258,158.4851503614745L-164.67889635720655,158.14622366218273zM-68.4326695416533,243.21171196061863L-68.48879854638086,247.94145511223792L-60.07877310125487,247.60252841294616zM25.70744138870337,225.945270267239L25.65131238397581,230.67501341885827L34.06133782910181,230.3360867195665zM140.76757697025022,219.98284297233812L140.71144796552267,224.7125861239574L149.1214734106487,224.37365942466565zM245.36770022620192,180.87714043450032L245.31157122147437,185.60688358611958L253.7215966666004,185.26795688682782zM349.96782348215373,196.92645577957077L349.9116944774262,201.6561989311901L358.32171992255235,201.31727223189833zM444.1079344125104,142.54199580767977L444.05180540778287,147.27173895929906L452.46183085290886,146.9328122600073z" style="fill:rgb(0,0,251);fill-opacity:1"/><path d="M-451.87691202569675,259.76022005506144L-452.6633831598268,265.12757248130833L-443.6255480253303,264.82927655089316z" style="fill:rgb(0,0,269);fill-opacity:1"/><path d="M-436.4335226455053,264.10531773551645L-445.48926440686375,264.36019442655913L-437.2145127635472,269.41741875066134z" style="fill:rgb(0,0,284);fill-opacity:1"/><path d="M-389.1168380721257,237.26034568474034L-389.90330920625564,242.62769811098727L-380.86547407175914,242.3294021805721z" style="fill:rgb(0,0,269);fill-opacity:1"/><path d="M-373.6734486919342,241.60544336519536L-382.7291904532926,241.86032005623807L-374.4544388099763,246.91754438034025z" style="fill:rgb(0,0,284);fill-opacity:1"/><path d="M-284.51671481617393,138.74352140056826L-285.30318595030394,144.11087382681518L-276.26535081580744,143.8125778964z" style="fill:rgb(0,0,269);fill-opacity:1"/><path d="M-269.0733254359825,143.08861908102327L-278.1290671973409,143.34349577206598L-269.85431555402454,148.40072009616813z" style="fill:rgb(0,0,284);fill-opacity:1"/><path d="M-179.91659156022212,157.19252525394086L-180.7030626943521,162.55987768018775L-171.66522755985565,162.26158174977257z" style="fill:rgb(0,0,269);fill-opacity:1"/><path d="M-164.47320218003068,161.53762293439584L-173.5289439413891,161.79249962543855L-165.2541922980726,166.84972394954073z" style="fill:rgb(0,0,284);fill-opacity:1"/><path d="M-75.31646830427042,246.64883000470428L-76.10293943840037,252.0161824309512L-67.06510430390394,251.71788650053603z" style="fill:rgb(0,0,269);fill-opacity:1"/><path d="M-59.87307892407898,250.9939276851593L-68.92882068543734,251.248804376202L-60.65406904212094,256.3060287003041z" style="fill:rgb(0,0,284);fill-opacity:1"/><path d="M18.82364262608623,229.38238831132463L18.03717149195626,234.74974073757153L27.075006626452748,234.45144480715635z" style="fill:rgb(0,0,269);fill-opacity:1"/><path d="M34.26703200627765,233.72748599177962L25.211290244919322,233.98236268282233L33.48604188823575,239.03958700692453z" style="fill:rgb(0,0,284);fill-opacity:1"/><path d="M133.88377820763316,223.41996101642377L133.09730707350315,228.7873134426707L142.1351422079996,228.48901751225551z" style="fill:rgb(0,0,269);fill-opacity:1"/><path d="M149.32716758782462,227.76505869687878L140.27142582646616,228.01993538792152L148.54617746978263,233.0771597120236z" style="fill:rgb(0,0,284);fill-opacity:1"/><path d="M238.48390146358486,184.31425847858594L237.69743032945485,189.68161090483287L246.7352654639513,189.3833149744177z" style="fill:rgb(0,0,269);fill-opacity:1"/><path d="M253.92729084377632,188.65935615904095L244.87154908241786,188.91423285008366L253.14630072573433,193.97145717418582z" style="fill:rgb(0,0,284);fill-opacity:1"/><path d="M343.0840247195367,200.36357382365645L342.29755358540666,205.7309262499033L351.33538871990316,205.4326303194881z" style="fill:rgb(0,0,269);fill-opacity:1"/><path d="M358.52741409972805,204.70867150411138L349.47167233836973,204.9635481951541L357.74642398168623,210.0207725192563z" style="fill:rgb(0,0,284);fill-opacity:1"/><path d="M437.22413564989336,145.97911385176542L436.4376645157633,151.34646627801231L445.47549965025985,151.04817034759714z" style="fill:rgb(0,0,269);fill-opacity:1"/><path d="M452.6675250300848,150.3242115322204L443.6117832687264,150.5790882232631L451.8865349120427,155.63631254736526z" style="fill:rgb(0,0,284);fill-opacity:1"/><path d="M-444.0434388257095,260.0171192871793L-452.45926356668065,260.27726351382216L-444.118868280812,265.3397553735245z" style="fill:rgb(0,0,269);fill-opacity:1"/><path d="M-444.9775982525947,263.8399856845795L-445.0492422678073,269.2187069880691L-436.6547318331661,268.90716915282536z" style="fill:rgb(0,0,284);fill-opacity:1"/><path d="M-381.2833648721383,237.51724491685817L-389.6991896131096,237.77738914350107L-381.35879432724084,242.83988100320346z" style="fill:rgb(0,0,269);fill-opacity:1"/><path d="M-382.2175242990235,241.34011131425845L-382.2891683142361,246.71883261774795L-373.8946578795952,246.40729478250424z" style="fill:rgb(0,0,284);fill-opacity:1"/><path d="M-276.6832416161866,139.0004206326861L-285.0990663571578,139.26056485932898L-276.75867107128914,144.32305671903137z" style="fill:rgb(0,0,269);fill-opacity:1"/><path d="M-277.6174010430718,142.8232870300864L-277.6890450582844,148.20200833357583L-269.2945346236434,147.8904704983321z" style="fill:rgb(0,0,284);fill-opacity:1"/><path d="M-172.0831183602348,157.4494244860587L-180.49894310120604,157.70956871270158L-172.15854781533727,162.77206057240394z" style="fill:rgb(0,0,269);fill-opacity:1"/><path d="M-173.01727778712,161.27229088345896L-173.08892180233258,166.65101218694844L-164.69441136769157,166.3394743517047z" style="fill:rgb(0,0,284);fill-opacity:1"/><path d="M-67.48299510428308,246.9057292368221L-75.89881984525432,247.165873463465L-67.55842455938556,252.2283653231674z" style="fill:rgb(0,0,269);fill-opacity:1"/><path d="M-68.41715453116828,250.72859563422242L-68.48879854638086,256.10731693771186L-60.09428811173988,255.79577910246812z" style="fill:rgb(0,0,284);fill-opacity:1"/><path d="M26.65711582607359,229.63928754344246L18.24129108510232,229.89943177008536L26.581686370971124,234.96192362978772z" style="fill:rgb(0,0,269);fill-opacity:1"/><path d="M25.722956399188384,233.4621539408427L25.65131238397581,238.84087524433224L34.0458228186168,238.52933740908853z" style="fill:rgb(0,0,284);fill-opacity:1"/><path d="M141.71725140762044,223.6768602485416L133.30142666664923,223.9370044751845L141.64182195251797,228.99949633488689z" style="fill:rgb(0,0,269);fill-opacity:1"/><path d="M140.78309198073524,227.4997266459419L140.71144796552267,232.87844794943132L149.10595840016367,232.56691011418758z" style="fill:rgb(0,0,284);fill-opacity:1"/><path d="M246.31737466357214,184.57115771070377L237.90154992260094,184.83130193734667L246.24194520846967,189.89379379704906z" style="fill:rgb(0,0,269);fill-opacity:1"/><path d="M245.38321523668694,188.39402410810408L245.31157122147437,193.77274541159352L253.70608165611537,193.46120757634978z" style="fill:rgb(0,0,284);fill-opacity:1"/><path d="M350.917497919524,200.62047305577428L342.50167317855283,200.88061728241718L350.84206846442146,205.94310914211948z" style="fill:rgb(0,0,269);fill-opacity:1"/><path d="M349.9833384926388,204.4433394531745L349.9116944774262,209.822060756664L358.3062049120673,209.51052292142026z" style="fill:rgb(0,0,284);fill-opacity:1"/><path d="M445.0576088498807,146.23601308388325L436.64178410890946,146.49615731052614L444.98217939477814,151.5586491702285z" style="fill:rgb(0,0,269);fill-opacity:1"/><path d="M444.12344942299546,150.05887948128353L444.05180540778287,155.43760078477297L452.4463158424238,155.12606294952923z" style="fill:rgb(0,0,284);fill-opacity:1"/><path d="M-444.985718971354,259.77088786188904L-445.04942933356534,265.13306518244667L-436.07215067081404,264.8131160429272z" style="fill:rgb(0,0,287);fill-opacity:1"/><path d="M-444.0442421942718,264.10003946060243L-453.04065401774574,264.37370160671435L-444.11094783901945,269.40918984542014z" style="fill:rgb(0,0,266);fill-opacity:1"/><path d="M-382.2256450177828,237.27101349156794L-382.28935537999416,242.6331908121256L-373.312076717243,242.31324167260615z" style="fill:rgb(0,0,287);fill-opacity:1"/><path d="M-381.28416824070064,241.6001650902814L-390.28058006417456,241.87382723639328L-381.35087388544827,246.909315475099z" style="fill:rgb(0,0,266);fill-opacity:1"/><path d="M-277.6255217618311,138.75418920739585L-277.68923212404246,144.11636652795352L-268.7119534612913,143.79641738843407z" style="fill:rgb(0,0,287);fill-opacity:1"/><path d="M-276.68404498474894,143.0833408061093L-285.68045680822286,143.3570029522212L-276.75075062949657,148.39249119092688z" style="fill:rgb(0,0,266);fill-opacity:1"/><path d="M-173.0253985058793,157.20319306076846L-173.08910886809065,162.5653703813261L-164.11183020533943,162.24542124180664z" style="fill:rgb(0,0,287);fill-opacity:1"/><path d="M-172.08392172879712,161.53234465948188L-181.08033355227104,161.80600680559377L-172.15062737354475,166.84149504429948z" style="fill:rgb(0,0,266);fill-opacity:1"/><path d="M-68.42527524992758,246.65949781153188L-68.48898561213892,252.02167513208954L-59.51170694938773,251.7017259925701z" style="fill:rgb(0,0,287);fill-opacity:1"/><path d="M-67.48379847284538,250.98864941024533L-76.48021029631934,251.26231155635722L-67.55050411759302,256.29779979506293z" style="fill:rgb(0,0,266);fill-opacity:1"/><path d="M25.714835680429086,229.39305611815223L25.651125318217755,234.75523343870987L34.62840398096891,234.4352842991904z" style="fill:rgb(0,0,287);fill-opacity:1"/><path d="M26.656312457511287,233.72220771686565L17.659900634037307,233.99586986297754L26.589606812763645,239.03135810168328z" style="fill:rgb(0,0,266);fill-opacity:1"/><path d="M140.77497126197594,223.43062882325137L140.7112608997646,228.79280614380903L149.68853956251587,228.47285700428958z" style="fill:rgb(0,0,287);fill-opacity:1"/><path d="M141.71644803905812,227.75978042196482L132.7200362155842,228.0334425680767L141.6497423943105,233.06893080678236z" style="fill:rgb(0,0,266);fill-opacity:1"/><path d="M245.37509451792764,184.32492628541354L245.3113841557163,189.6871036059712L254.28866281846757,189.36715446645175z" style="fill:rgb(0,0,287);fill-opacity:1"/><path d="M246.31657129500982,188.654077884127L237.3201594715359,188.92774003023888L246.2498656502622,193.96322826894456z" style="fill:rgb(0,0,266);fill-opacity:1"/><path d="M349.9752177738795,200.37424163048405L349.91150741166814,205.73641895104163L358.88878607441933,205.41646981152218z" style="fill:rgb(0,0,287);fill-opacity:1"/><path d="M350.91669455096167,204.70339322919742L341.92028272748774,204.9770553753093L350.84998890621404,210.01254361401504z" style="fill:rgb(0,0,266);fill-opacity:1"/><path d="M444.11532870423616,145.98978165859302L444.0516183420248,151.35195897915065L453.028897004776,151.0320098396312z" style="fill:rgb(0,0,287);fill-opacity:1"/><path d="M445.05680548131835,150.31893325730644L436.0603936578444,150.59259540341833L444.9900998365707,155.628083642124z" style="fill:rgb(0,0,266);fill-opacity:1"/></svg>